<?xml version="1.0" encoding="UTF-8"?>
<svg version="1.1" xmlns="http://www.w3.org/2000/svg" width="512" height="512">
<path d="M0 0 C0.99305145 -0.0071553 1.98610291 -0.01431061 3.00924683 -0.02168274 C6.27535765 -0.03851804 9.54008511 -0.0191878 12.80615234 0.00219727 C15.09288648 0.0013677 17.37962056 -0.00109497 19.66635132 -0.00511169 C24.45613588 -0.00796672 29.24545212 0.00669636 34.03515625 0.03417969 C40.14103856 0.06814519 46.24607746 0.06227962 52.35199928 0.04351711 C57.07586546 0.03288566 61.79953953 0.04194248 66.52338791 0.05690193 C68.77259117 0.06204703 71.02181482 0.06164711 73.27101517 0.05535698 C93.86965421 0.01939196 110.88105116 2.4906442 126.42333984 17.29516602 C127.58349609 18.45145508 127.58349609 18.45145508 128.76708984 19.63110352 C129.83443359 20.66364258 129.83443359 20.66364258 130.92333984 21.71704102 C147.50150194 38.86906257 147.19884422 59.65500738 146.95458984 81.94360352 C146.93951763 84.34138158 146.92583372 86.7391688 146.91357422 89.13696289 C146.88076583 94.96854513 146.83076728 100.7997809 146.76708984 106.63110352 C147.91371094 106.59968262 147.91371094 106.59968262 149.08349609 106.56762695 C172.12861725 106.01992401 193.25906459 106.6255145 211.26708984 123.06860352 C222.84905076 134.14911604 231.51267651 148.64193422 232.1547699 165.02226257 C232.17528343 166.92261644 232.18001815 168.82318896 232.17114258 170.72363281 C232.18143745 172.29683037 232.18143745 172.29683037 232.19194031 173.90180969 C232.21009891 177.33645539 232.20638503 180.7706393 232.20068359 184.20532227 C232.20525183 186.61749925 232.2105593 189.02967493 232.21656799 191.44184875 C232.22547863 196.4876536 232.22310064 201.53330001 232.21313477 206.57910156 C232.20167 213.00636837 232.22182958 219.43308371 232.2510519 225.86027813 C232.26951131 230.84067695 232.26910172 235.82094613 232.26341438 240.80137062 C232.26326224 243.16895125 232.26921682 245.53654128 232.28170586 247.90408897 C232.36146616 265.50664938 231.14232011 280.77462824 222.76708984 296.63110352 C222.28755859 297.58243164 221.80802734 298.53375977 221.31396484 299.51391602 C210.46059496 319.6927542 191.97429055 332.95966513 170.36865234 339.68969727 C161.67408822 341.97831679 153.21788185 342.78064927 144.26368713 342.77154541 C143.33779642 342.77451653 142.4119057 342.77748765 141.45795768 342.78054881 C138.37162068 342.78918399 135.28532271 342.79073967 132.19897461 342.79223633 C129.97909971 342.79686827 127.75922561 342.80189344 125.53935242 342.80728149 C119.51821587 342.82037357 113.49709045 342.82684453 107.4759419 342.83129215 C103.70813616 342.8342288 99.94033343 342.83833477 96.17252922 342.84279633 C85.71779447 342.85490026 75.26306149 342.86528326 64.80832005 342.86867142 C64.1402622 342.86889098 63.47220436 342.86911055 62.78390234 342.86933677 C61.77956154 342.86966419 61.77956154 342.86966419 60.75493103 342.86999822 C59.39838827 342.87044167 58.0418455 342.87088823 56.68530273 342.87133789 C56.01242586 342.87155932 55.33954898 342.87178075 54.64628189 342.87200889 C43.76214698 342.8759504 32.87807928 342.89338691 21.99397028 342.91669741 C10.78956309 342.94049788 -0.41481972 342.95262006 -11.61925465 342.95403934 C-17.89799288 342.95508355 -24.17663627 342.96090916 -30.45535088 342.97885895 C-36.36924977 342.99543718 -42.28298353 342.9974481 -48.19689751 342.98871994 C-50.35543259 342.98795469 -52.5139769 342.99222383 -54.67248917 343.00217819 C-83.25069019 343.1261354 -107.55143875 337.44354837 -128.70556641 317.28344727 C-143.19680388 302.07548707 -152.30603671 282.48516687 -152.42578125 261.3659668 C-152.43395874 260.55864105 -152.44213623 259.75131531 -152.45056152 258.91952515 C-152.47525542 256.26349606 -152.49188719 253.6075197 -152.50634766 250.95141602 C-152.51433317 249.58454462 -152.51433317 249.58454462 -152.52248001 248.19005966 C-152.54913766 243.36979771 -152.56853895 238.54956103 -152.58300781 233.72924805 C-152.59635877 229.7504992 -152.62424335 225.77226176 -152.66503906 221.79370117 C-152.71442938 216.97565305 -152.73913563 212.15806935 -152.74623489 207.3397789 C-152.75293184 205.50980423 -152.76811324 203.6798393 -152.7921257 201.85000992 C-152.82388208 199.28447069 -152.82379933 196.72071489 -152.81640625 194.1550293 C-152.83281158 193.40775574 -152.84921692 192.66048218 -152.86611938 191.89056396 C-152.790213 185.41986619 -150.19367267 180.77621184 -145.79012108 176.09848213 C-140.95691305 171.75784676 -135.92098559 170.11156849 -129.44384766 170.32250977 C-122.30668955 171.31868554 -116.87308677 174.13425433 -112.38916016 179.75219727 C-109.49229573 184.45960196 -108.98294151 188.3751675 -108.97753906 193.87719727 C-108.97391861 194.58856339 -108.97029816 195.2999295 -108.96656799 196.03285217 C-108.9596945 197.57258832 -108.95716471 199.11234872 -108.95851517 200.65209961 C-108.95948549 203.1009951 -108.94647513 205.54945765 -108.92953491 207.99829102 C-108.88344088 214.95935644 -108.8587026 221.92037893 -108.85205078 228.8815918 C-108.84699296 233.14750874 -108.82252289 237.41297727 -108.78672409 241.67874146 C-108.77701773 243.29238167 -108.77454327 244.90608434 -108.77989578 246.51974487 C-108.83009805 262.41163558 -105.97820494 275.32508618 -94.98291016 287.38110352 C-86.60991508 295.36508776 -76.01571339 297.93892307 -64.80938721 297.89852905 C-63.88011752 297.90306017 -62.95084783 297.90759128 -61.99341846 297.9122597 C-58.88992976 297.92488622 -55.78661695 297.92328444 -52.68310547 297.92163086 C-50.45364151 297.92761722 -48.22417963 297.93442301 -45.99472046 297.94198608 C-39.94499145 297.95964292 -33.89531903 297.96434136 -27.84556675 297.96561766 C-24.06357041 297.96704006 -20.28158842 297.97131138 -16.49959564 297.97661209 C-3.97971103 297.99415742 8.54014146 298.00345247 21.06003579 298.00195114 C21.73422301 298.00187123 22.40841022 298.00179132 23.10302734 298.00170898 C23.77804359 298.00162722 24.45305983 298.00154546 25.14853111 298.00146122 C36.08207689 298.00064874 47.01548476 298.01977912 57.94899067 298.04798572 C69.19176567 298.07675988 80.4344756 298.0901578 91.67729497 298.08879817 C97.98270801 298.08828889 104.28796498 298.09395333 110.59334564 298.11515427 C116.5261383 298.13455801 122.45862633 298.13464622 128.3914299 298.120121 C130.56377229 298.11803444 132.73613385 298.12272462 134.90844345 298.13484192 C150.31563456 298.42858386 150.31563456 298.42858386 164.76708984 293.63110352 C165.51933208 293.23268438 166.27157433 292.83426525 167.04661179 292.42377281 C177.535968 286.54067537 183.46661261 277.4613768 186.82778931 266.02073669 C187.94719661 261.40477397 188.06274715 256.96886881 188.05761719 252.23681641 C188.06433441 251.3332692 188.07105164 250.42972198 188.07797241 249.49879456 C188.0968566 246.53372592 188.10087139 243.56888467 188.10302734 240.60375977 C188.10946063 238.52925018 188.11618938 236.45474148 188.12319946 234.38023376 C188.13514733 230.04041439 188.13888272 225.70067449 188.13769531 221.36083984 C188.13749197 215.81502326 188.16482128 210.26971822 188.19923973 204.72402287 C188.22153247 200.44219139 188.22553216 196.16048272 188.22447586 191.87859917 C188.22682718 189.83457103 188.23562414 187.79053927 188.25114059 185.74656868 C188.27085381 182.88228086 188.26494217 180.0190927 188.25292969 177.15478516 C188.2641687 176.32074158 188.27540771 175.486698 188.2869873 174.62738037 C188.21857167 168.17039812 186.73792944 161.98793398 182.3551693 157.03573704 C177.49167142 152.75705885 172.94985104 151.40497823 166.59130859 151.21704102 C164.8559082 151.1590332 164.8559082 151.1590332 163.08544922 151.09985352 C161.88726562 151.06891602 160.68908203 151.03797852 159.45458984 151.00610352 C157.62831055 150.9480957 157.62831055 150.9480957 155.76513672 150.88891602 C152.76593756 150.79482349 149.76674162 150.70918143 146.76708984 150.63110352 C146.7770826 151.54619942 146.7770826 151.54619942 146.78727722 152.4797821 C146.85418012 158.88864821 146.89911602 165.29741347 146.93188477 171.70654297 C146.94687544 174.09134966 146.96727484 176.47612923 146.9934082 178.86083984 C147.26861406 204.63845552 147.26861406 204.63845552 143.76708984 214.63110352 C143.52756592 215.32051025 143.28804199 216.00991699 143.04125977 216.72021484 C139.25798496 226.40098561 133.08218187 233.49096137 125.76708984 240.63110352 C125.18314453 241.23567383 124.59919922 241.84024414 123.99755859 242.46313477 C113.22498324 252.79935264 97.34249132 257.1040624 82.82641602 257.03515625 C81.27766029 257.04545113 81.27766029 257.04545113 79.69761658 257.05595398 C76.31828667 257.0741052 72.93942632 257.0704005 69.56005859 257.06469727 C67.18793082 257.06926518 64.81580437 257.07457256 62.44367981 257.08058167 C57.48363859 257.08949031 52.52375857 257.0871158 47.5637207 257.07714844 C41.23938605 257.06567162 34.91561083 257.08586276 28.5913496 257.11506557 C23.69509912 257.13350346 18.79898076 257.13311983 13.90270424 257.12742805 C11.57254566 257.12727572 9.24237763 257.13324688 6.91225243 257.14571953 C-13.95748384 257.24169417 -31.1207544 254.9869465 -46.88916016 239.96704102 C-47.66259766 239.19618164 -48.43603516 238.42532227 -49.23291016 237.63110352 C-50.30025391 236.59856445 -50.30025391 236.59856445 -51.38916016 235.54516602 C-65.07105321 221.38966897 -67.76937826 203.91409809 -67.67895508 185.03271484 C-67.6704574 182.33361105 -67.69927467 179.63663961 -67.73095703 176.93774414 C-67.81656116 155.90263944 -62.26113613 139.12267644 -47.36572266 123.69750977 C-33.40610278 110.69363149 -16.60413803 106.45295882 1.93481445 106.51757812 C3.58957794 106.51735909 3.58957794 106.51735909 5.277771 106.51713562 C8.9083455 106.51782987 12.5388681 106.52559941 16.16943359 106.53344727 C18.69291659 106.53531318 21.21639994 106.53673626 23.73988342 106.53773499 C29.69308274 106.54115736 35.64626553 106.54903138 41.59945637 106.55908448 C48.38062374 106.5702857 55.16179202 106.57576614 61.94296634 106.58077991 C75.88435106 106.59121513 89.82571944 106.60878952 103.76708984 106.63110352 C103.67299094 100.81418457 103.56677595 94.99765443 103.44970703 89.18115234 C103.41160749 87.20562674 103.37672271 85.23003626 103.34521484 83.25439453 C103.29914825 80.40186493 103.24122568 77.54977476 103.18115234 74.69750977 C103.16382553 73.38913902 103.16382553 73.38913902 103.14614868 72.05433655 C102.97508694 64.82097392 102.72060233 56.85427774 97.64208984 51.25610352 C97.10326172 50.62961914 96.56443359 50.00313477 96.00927734 49.35766602 C90.01745675 44.74375538 83.65902782 44.19713651 76.38867188 44.27807617 C75.48673096 44.27591599 74.58479004 44.2737558 73.65551758 44.27153015 C71.7098397 44.26845793 69.76414218 44.27200516 67.81848526 44.28154373 C64.73163246 44.29535968 61.64541698 44.28879849 58.55856323 44.27670288 C49.78671985 44.24585066 41.01502789 44.2505886 32.24316406 44.27075195 C26.86508133 44.28170584 21.48747887 44.26840348 16.10946274 44.24085617 C14.06907319 44.23543851 12.02863491 44.2394206 9.98828506 44.25325394 C-11.20557972 44.39528761 -11.20557972 44.39528761 -18.23291016 38.63110352 C-24.04183336 32.40700422 -24.71174889 26.45690751 -24.63525391 18.22094727 C-24.03699167 12.88305412 -22.13393242 9.2919509 -18.23291016 5.63110352 C-12.26938751 0.90639995 -7.49950269 -0.09513267 0 0 Z M-18.25634766 156.45532227 C-18.70236328 157.07020508 -19.14837891 157.68508789 -19.60791016 158.31860352 C-20.06939453 158.9205957 -20.53087891 159.52258789 -21.00634766 160.14282227 C-24.42029329 167.06856548 -24.54911982 174.55009654 -24.48291016 182.13110352 C-24.49064453 183.01668945 -24.49837891 183.90227539 -24.50634766 184.81469727 C-24.48310433 192.72904975 -24.19599529 200.42822606 -18.60791016 206.50610352 C-17.97626953 207.22540039 -17.34462891 207.94469727 -16.69384766 208.68579102 C-10.69574768 213.42714623 -4.36331445 214.07384146 2.99365234 214.01928711 C3.87929871 214.02454407 4.76494507 214.02980103 5.6774292 214.03521729 C8.5824996 214.04833777 11.48701461 214.03970747 14.39208984 214.02954102 C16.42415471 214.03156403 18.45621886 214.03447737 20.48828125 214.03823853 C24.7381891 214.04265112 28.98790724 214.03626511 33.23779297 214.0222168 C38.67155053 214.00512567 44.10486347 214.01497255 49.53860474 214.03293419 C53.73204874 214.04380078 57.92538821 214.04031248 62.11883545 214.03255081 C64.12180637 214.03055676 66.12478693 214.03298001 68.12774658 214.03998947 C70.93226075 214.04765134 73.73606567 214.03593364 76.54052734 214.01928711 C77.35946472 214.0253598 78.1784021 214.0314325 79.02215576 214.03768921 C85.47997814 213.96706597 91.03182693 212.79326372 96.22802734 208.68579102 C96.85966797 207.96649414 97.49130859 207.24719727 98.14208984 206.50610352 C98.78919922 205.80227539 99.43630859 205.09844727 100.10302734 204.37329102 C104.10041835 197.78604105 104.051205 190.06843486 103.96240234 182.56469727 C103.95957245 181.64519791 103.95674255 180.72569855 103.9538269 179.77833557 C103.94273568 176.87495259 103.91765248 173.97189143 103.89208984 171.06860352 C103.88204573 169.08618613 103.87292239 167.10376386 103.86474609 165.12133789 C103.84283271 160.29113796 103.80838065 155.46117508 103.76708984 150.63110352 C89.30233359 150.53750935 74.83762455 150.46731691 60.37262726 150.42385483 C53.65570429 150.40326181 46.93896988 150.37520418 40.22216797 150.3293457 C33.73825584 150.28583688 27.25453942 150.26195538 20.77049255 150.25159454 C18.29858826 150.24421232 15.82669449 150.22979659 13.35487366 150.20818329 C9.88852923 150.1790835 6.42299019 150.17515042 2.95654297 150.17700195 C1.93802246 150.16262085 0.91950195 150.14823975 -0.12988281 150.13342285 C-7.3347297 150.17497698 -12.8222908 151.55627873 -18.25634766 156.45532227 Z " fill="#D236BA" transform="translate(216.23291015625,127.368896484375)"/>
<path d="M0 0 C0.92589072 -0.00297112 1.85178144 -0.00594224 2.80572945 -0.0090034 C5.89206645 -0.01763858 8.97836443 -0.01919426 12.06471252 -0.02069092 C14.28458742 -0.02532286 16.50446153 -0.03034803 18.72433472 -0.03573608 C24.74547127 -0.04882816 30.76659668 -0.05529912 36.78774524 -0.05974674 C40.55555097 -0.06268339 44.3233537 -0.06678936 48.09115791 -0.07125092 C58.54589267 -0.08335485 69.00062564 -0.09373785 79.45536709 -0.09712601 C80.12342493 -0.09734557 80.79148277 -0.09756514 81.47978479 -0.09779136 C82.48412559 -0.09811878 82.48412559 -0.09811878 83.5087561 -0.09845281 C84.86529887 -0.09889626 86.22184163 -0.09934282 87.5783844 -0.09979248 C88.25126128 -0.10001391 88.92413816 -0.10023534 89.61740524 -0.10046348 C100.50154016 -0.10440499 111.38560786 -0.1218415 122.26971685 -0.145152 C133.47412404 -0.16895247 144.67850685 -0.18107465 155.88294178 -0.18249393 C162.16168002 -0.18353814 168.44032341 -0.18936375 174.71903801 -0.20731354 C180.63293691 -0.22389177 186.54667067 -0.22590269 192.46058464 -0.21717453 C194.61911972 -0.21640928 196.77766404 -0.22067842 198.9361763 -0.23063278 C227.51437733 -0.35458999 251.81512588 5.32799704 272.96925354 25.48809814 C287.84845506 41.10321071 296.54537746 60.84537575 296.73487854 82.41387939 C296.74295029 83.29645416 296.75102203 84.17902893 296.75933838 85.08834839 C296.77311858 86.94911773 296.78386762 88.80991171 296.79176331 90.67071533 C296.80329794 92.56369492 296.82377313 94.45664162 296.85328674 96.34942627 C296.89611958 99.1002996 296.91215098 101.85021335 296.92237854 104.60137939 C296.93988663 105.43809174 296.95739471 106.27480408 296.97543335 107.13687134 C296.95085347 113.86566699 295.26852289 119.33659392 290.46144104 124.19903564 C289.7924176 124.65407471 289.12339417 125.10911377 288.43409729 125.57794189 C287.76249573 126.05102783 287.09089417 126.52411377 286.39894104 127.01153564 C280.97537966 130.23003511 274.58086847 129.77407014 268.49659729 129.14044189 C262.17542748 126.80894524 257.3542262 121.88334059 254.38087463 115.89239502 C253.29867631 112.52449344 253.24028096 109.64633369 253.22315979 106.10919189 C253.20284126 104.72637173 253.18198999 103.34355932 253.16065979 101.96075439 C253.13827958 99.81322694 253.12166789 97.66600945 253.11573792 95.51837158 C253.04315468 79.87668467 249.98483015 67.1645984 239.24659729 55.39044189 C230.87602587 47.4087687 220.28336511 44.83260022 209.07980347 44.87301636 C208.15123934 44.86848524 207.22267522 44.86395413 206.26597279 44.85928571 C203.16481804 44.84665918 200.0638393 44.84826098 196.96266174 44.84991455 C194.7348203 44.84392815 192.50698093 44.83712235 190.27914429 44.82955933 C184.23348023 44.81190189 178.1878728 44.807204 172.14218545 44.80592775 C168.36219142 44.80450526 164.58221175 44.80023377 160.8022213 44.79493332 C148.28740234 44.77738713 135.77261553 44.76809297 123.25778685 44.76959427 C122.24690012 44.76971414 122.24690012 44.76971414 121.21559143 44.76983643 C120.20346053 44.76995907 120.20346053 44.76995907 119.17088255 44.77008419 C108.24447879 44.77089646 97.3182131 44.75177157 86.39184926 44.72355969 C75.15471949 44.694776 63.91765484 44.68138804 52.68048066 44.68274724 C46.37894807 44.68325631 40.0775717 44.67760355 33.77607155 44.65639114 C27.84573811 44.63697317 21.91570933 44.63690888 15.98536491 44.65142441 C13.81505512 44.65350928 11.64472607 44.64883092 9.47444916 44.63670349 C-6.74999158 44.55195131 -19.32024698 45.56637211 -31.59324646 57.10528564 C-39.58557537 65.33574726 -43.62047343 75.53224604 -43.63470459 86.96485901 C-43.63871277 88.12973846 -43.64272095 89.29461792 -43.64685059 90.49479675 C-43.64605751 92.39860863 -43.64605751 92.39860863 -43.64524841 94.34088135 C-43.64828228 95.69808057 -43.65180437 97.05527878 -43.65577698 98.41247559 C-43.66364902 101.33058598 -43.66880449 104.24868425 -43.67206764 107.16680336 C-43.67799355 111.78591753 -43.6945489 116.4049553 -43.71340942 121.02403259 C-43.71974635 122.60752197 -43.72607198 124.19101138 -43.73238659 125.77450085 C-43.7355524 126.56738046 -43.73871821 127.36026007 -43.74197996 128.17716634 C-43.78400252 138.92622325 -43.81702845 149.67524383 -43.82933044 160.42437744 C-43.83772114 167.68151501 -43.86024716 174.93846241 -43.89868611 182.19550484 C-43.91840933 186.03214475 -43.93086377 189.86850065 -43.92585182 193.70519447 C-43.92119199 197.31609403 -43.93508257 200.92645555 -43.96286392 204.5372467 C-43.97302296 206.48464099 -43.96354663 208.43210715 -43.95336914 210.37950134 C-44.04469354 218.97410089 -45.05196085 224.61055818 -51.25340271 230.95294189 C-57.19137481 234.94965388 -63.21507336 237.34830062 -70.50340271 236.14044189 C-78.00005525 233.99489228 -82.55189502 229.9868296 -86.5611515 223.40361404 C-87.75713757 220.5310018 -87.76105317 218.26011478 -87.77082825 215.1484375 C-87.77935822 213.9207666 -87.78788818 212.6930957 -87.79667664 211.42822266 C-87.79597759 210.07025134 -87.79505452 208.71228012 -87.79393005 207.35430908 C-87.79991601 205.92156626 -87.80672171 204.48882667 -87.81428528 203.05609131 C-87.8319615 199.16279882 -87.83664178 195.26959426 -87.83791685 191.37626553 C-87.83933991 188.93783852 -87.84361278 186.49943374 -87.84891129 184.06101227 C-87.86742807 175.53571663 -87.87558123 167.01048353 -87.87400818 158.48516846 C-87.87281144 150.57139391 -87.89381714 142.65789417 -87.92549551 134.74418902 C-87.95179007 127.92946442 -87.96236975 121.11482868 -87.96109736 114.30005383 C-87.96059089 110.2395572 -87.96609527 106.17930392 -87.98745346 102.11885834 C-88.00705508 98.2872234 -88.00681365 94.45605802 -87.9924202 90.62440491 C-87.99035669 89.23141531 -87.99488281 87.83839465 -88.00714111 86.44545746 C-88.20390884 62.50008805 -79.23574859 41.18745515 -62.53855896 24.02716064 C-45.66736287 7.52044866 -23.33371314 -0.02372373 0 0 Z " fill="#FB7D56" transform="translate(151.50340270996094,41.85955810546875)"/>
</svg>
