<?xml version="1.0" encoding="UTF-8"?>
<!DOCTYPE svg PUBLIC "-//W3C//DTD SVG 1.1//EN" "http://www.w3.org/Graphics/SVG/1.1/DTD/svg11.dtd">
<svg xmlns="http://www.w3.org/2000/svg" version="1.1" width="320px" height="320px" style="shape-rendering:geometricPrecision; text-rendering:geometricPrecision; image-rendering:optimizeQuality; fill-rule:evenodd; clip-rule:evenodd" xmlns:xlink="http://www.w3.org/1999/xlink">
<g><path style="opacity:0.995" fill="#6e42bc" d="M 184.5,16.5 C 185.808,17.2323 187.142,18.0656 188.5,19C 147.344,33.1631 106.178,47.3298 65,61.5C 63.9701,61.1639 63.4701,60.4972 63.5,59.5C 75.5269,42.3308 91.5269,30.1641 111.5,23C 121.229,19.5208 131.229,17.1874 141.5,16C 155.866,15.2178 170.199,15.3844 184.5,16.5 Z"/></g>
<g><path style="opacity:0.983" fill="#783bb5" d="M 184.5,16.5 C 196.841,17.8406 208.508,21.1739 219.5,26.5C 219.414,27.4959 219.748,28.3292 220.5,29C 208.39,33.1466 196.39,37.4799 184.5,42C 186.343,42.1587 187.009,42.6587 186.5,43.5C 181.417,42.7441 176.417,42.4108 171.5,42.5C 170.432,41.5655 169.099,41.2322 167.5,41.5C 163.498,41.7227 159.665,41.7227 156,41.5C 152.282,42.0956 148.616,42.7623 145,43.5C 130.042,44.5972 116.209,49.0972 103.5,57C 98.1956,60.4802 93.5289,64.6468 89.5,69.5C 86.4838,72.5203 83.8171,75.8536 81.5,79.5C 80.8444,78.7222 80.0111,78.0556 79,77.5C 69.5377,80.9319 60.0377,84.2653 50.5,87.5C 49.0815,86.9953 48.4148,85.9953 48.5,84.5C 51.8426,75.0931 56.8426,66.7598 63.5,59.5C 63.4701,60.4972 63.9701,61.1639 65,61.5C 106.178,47.3298 147.344,33.1631 188.5,19C 187.142,18.0656 185.808,17.2323 184.5,16.5 Z"/></g>
<g><path style="opacity:0.994" fill="#8334ad" d="M 219.5,26.5 C 226.998,29.6725 233.998,33.6725 240.5,38.5C 242.172,41.3371 241.506,42.0038 238.5,40.5C 228.348,44.5509 218.348,47.8842 208.5,50.5C 203.215,49.5977 198.215,47.931 193.5,45.5C 192.914,45.7093 192.414,46.0426 192,46.5C 190.281,45.1312 188.448,44.1312 186.5,43.5C 187.009,42.6587 186.343,42.1587 184.5,42C 196.39,37.4799 208.39,33.1466 220.5,29C 219.748,28.3292 219.414,27.4959 219.5,26.5 Z"/></g>
<g><path style="opacity:0.008" fill="#ca5576" d="M 167.5,41.5 C 169.099,41.2322 170.432,41.5655 171.5,42.5C 171.565,42.9382 171.399,43.2716 171,43.5C 169.698,42.9152 168.531,42.2485 167.5,41.5 Z"/></g>
<g><path style="opacity:0.993" fill="#9232a4" d="M 240.5,38.5 C 243.582,40.3719 246.249,42.7052 248.5,45.5C 247.262,45.81 247.262,46.31 248.5,47C 239.032,50.0999 229.699,53.2666 220.5,56.5C 215.902,55.5346 211.902,53.5346 208.5,50.5C 218.348,47.8842 228.348,44.5509 238.5,40.5C 241.506,42.0038 242.172,41.3371 240.5,38.5 Z"/></g>
<g><path style="opacity:0.99" fill="#9b319f" d="M 248.5,45.5 C 251.833,48.1667 254.833,51.1667 257.5,54.5C 249.832,58.1199 241.832,61.2866 233.5,64C 233.402,65.2847 233.402,66.4514 233.5,67.5C 228.901,64.0504 224.568,60.3837 220.5,56.5C 229.699,53.2666 239.032,50.0999 248.5,47C 247.262,46.31 247.262,45.81 248.5,45.5 Z"/></g>
<g><path style="opacity:0.989" fill="#a72f98" d="M 257.5,54.5 C 259.547,56.5496 261.214,58.883 262.5,61.5C 263.292,62.9669 263.292,64.3002 262.5,65.5C 255.013,68.6109 247.346,70.7776 239.5,72C 238.529,70.5187 237.196,69.6854 235.5,69.5C 234.5,69.1667 233.833,68.5 233.5,67.5C 233.402,66.4514 233.402,65.2847 233.5,64C 241.832,61.2866 249.832,58.1199 257.5,54.5 Z"/></g>
<g><path style="opacity:0.993" fill="#b12f92" d="M 262.5,61.5 C 265.277,63.9505 267.277,66.9505 268.5,70.5C 261.223,73.4283 253.723,76.0949 246,78.5C 244.862,78.0109 243.695,77.6775 242.5,77.5C 240.177,74.8739 237.843,72.2072 235.5,69.5C 237.196,69.6854 238.529,70.5187 239.5,72C 247.346,70.7776 255.013,68.6109 262.5,65.5C 263.292,64.3002 263.292,62.9669 262.5,61.5 Z"/></g>
<g><path style="opacity:0.008" fill="#ca5774" d="M 89.5,69.5 C 90.8333,70.1667 90.8333,70.1667 89.5,69.5 Z"/></g>
<g><path style="opacity:1" fill="#bc2d8c" d="M 268.5,70.5 C 270.664,72.822 272.331,75.4887 273.5,78.5C 273.056,80.1132 272.056,81.2798 270.5,82C 263.217,83.8158 256.217,86.3158 249.5,89.5C 247.139,85.4828 244.806,81.4828 242.5,77.5C 243.695,77.6775 244.862,78.0109 246,78.5C 253.723,76.0949 261.223,73.4283 268.5,70.5 Z"/></g>
<g><path style="opacity:0.996" fill="#8234ad" d="M 81.5,79.5 C 77.2954,85.9123 73.6288,92.579 70.5,99.5C 61.7235,101.635 52.7235,104.301 43.5,107.5C 42.5836,107.457 41.9169,107.124 41.5,106.5C 43.1899,98.4488 45.5232,91.1154 48.5,84.5C 48.4148,85.9953 49.0815,86.9953 50.5,87.5C 60.0377,84.2653 69.5377,80.9319 79,77.5C 80.0111,78.0556 80.8444,78.7222 81.5,79.5 Z"/></g>
<g><path style="opacity:0.997" fill="#9e319d" d="M 175.5,82.5 C 175.607,84.3786 175.107,84.7119 174,83.5C 154.676,90.9081 135.176,97.9081 115.5,104.5C 114.708,103.3 114.708,101.967 115.5,100.5C 128.237,87.8545 143.737,81.5211 162,81.5C 166.502,81.8816 171.002,82.2149 175.5,82.5 Z"/></g>
<g><path style="opacity:0.992" fill="#a72f98" d="M 175.5,82.5 C 181.248,83.5955 186.582,85.5955 191.5,88.5C 191.062,88.4346 190.728,88.6012 190.5,89C 191.167,89.3333 191.833,89.6667 192.5,90C 168.759,97.8025 145.092,105.802 121.5,114C 118.739,114.722 116.073,114.555 113.5,113.5C 111.642,112.405 109.975,111.071 108.5,109.5C 110.506,106.171 112.839,103.171 115.5,100.5C 114.708,101.967 114.708,103.3 115.5,104.5C 135.176,97.9081 154.676,90.9081 174,83.5C 175.107,84.7119 175.607,84.3786 175.5,82.5 Z"/></g>
<g><path style="opacity:1" fill="#c82c86" d="M 273.5,78.5 C 275.731,81.8363 277.397,85.503 278.5,89.5C 278.38,90.5862 277.713,91.2528 276.5,91.5C 269.206,93.8751 262.04,96.5417 255,99.5C 254.722,98.5842 254.222,97.9175 253.5,97.5C 251.659,95.1515 250.326,92.4848 249.5,89.5C 256.217,86.3158 263.217,83.8158 270.5,82C 272.056,81.2798 273.056,80.1132 273.5,78.5 Z"/></g>
<g><path style="opacity:0.986" fill="#b22f91" d="M 191.5,88.5 C 195.505,89.4977 198.839,91.4977 201.5,94.5C 201.144,95.8699 200.31,96.8699 199,97.5C 189.758,100.469 180.592,103.636 171.5,107C 170.244,107.417 169.577,108.25 169.5,109.5C 153.564,106.93 140.231,111.93 129.5,124.5C 124.025,120.785 118.691,117.118 113.5,113.5C 116.073,114.555 118.739,114.722 121.5,114C 145.092,105.802 168.759,97.8025 192.5,90C 191.833,89.6667 191.167,89.3333 190.5,89C 190.728,88.6012 191.062,88.4346 191.5,88.5 Z"/></g>
<g><path style="opacity:0.98" fill="#d12c80" d="M 278.5,89.5 C 280.072,92.2154 281.072,95.2154 281.5,98.5C 273.26,100.08 265.426,102.746 258,106.5C 257.617,105.944 257.117,105.611 256.5,105.5C 254.98,103.11 253.98,100.443 253.5,97.5C 254.222,97.9175 254.722,98.5842 255,99.5C 262.04,96.5417 269.206,93.8751 276.5,91.5C 277.713,91.2528 278.38,90.5862 278.5,89.5 Z"/></g>
<g><path style="opacity:1" fill="#bd2e8c" d="M 201.5,94.5 C 204.447,95.7805 206.781,97.7805 208.5,100.5C 208.5,101.5 208.5,102.5 208.5,103.5C 199.696,105.823 191.03,108.657 182.5,112C 183.738,112.69 183.738,113.19 182.5,113.5C 178.322,110.935 173.989,109.602 169.5,109.5C 169.577,108.25 170.244,107.417 171.5,107C 180.592,103.636 189.758,100.469 199,97.5C 200.31,96.8699 201.144,95.8699 201.5,94.5 Z"/></g>
<g><path style="opacity:0.998" fill="#d82e7b" d="M 281.5,98.5 C 283.901,101.708 283.901,104.874 281.5,108C 274.457,109.677 267.457,111.511 260.5,113.5C 258.395,111.738 256.728,109.572 255.5,107C 256.056,106.617 256.389,106.117 256.5,105.5C 257.117,105.611 257.617,105.944 258,106.5C 265.426,102.746 273.26,100.08 281.5,98.5 Z"/></g>
<g><path style="opacity:0.992" fill="#9232a4" d="M 70.5,99.5 C 69.8991,102.968 68.8991,106.301 67.5,109.5C 58.425,111.803 49.5916,114.803 41,118.5C 40.7679,117.263 40.2679,116.263 39.5,115.5C 39.4203,112.219 40.087,109.219 41.5,106.5C 41.9169,107.124 42.5836,107.457 43.5,107.5C 52.7235,104.301 61.7235,101.635 70.5,99.5 Z"/></g>
<g><path style="opacity:1" fill="#c82c86" d="M 208.5,100.5 C 211.241,102.975 213.241,105.975 214.5,109.5C 214.67,110.822 214.337,111.989 213.5,113C 206.538,115.599 199.538,118.099 192.5,120.5C 191.583,119.873 190.583,119.539 189.5,119.5C 187.353,117.263 185.02,115.263 182.5,113.5C 183.738,113.19 183.738,112.69 182.5,112C 191.03,108.657 199.696,105.823 208.5,103.5C 208.5,102.5 208.5,101.5 208.5,100.5 Z"/></g>
<g><path style="opacity:0.995" fill="#9b319f" d="M 67.5,109.5 C 66.8084,113.6 65.8084,117.6 64.5,121.5C 56.4527,124.597 48.2861,127.597 40,130.5C 37.9803,129.968 37.147,128.635 37.5,126.5C 37.3134,123.353 37.3134,120.187 37.5,117C 38.0442,116.283 38.7109,115.783 39.5,115.5C 40.2679,116.263 40.7679,117.263 41,118.5C 49.5916,114.803 58.425,111.803 67.5,109.5 Z"/></g>
<g><path style="opacity:0.991" fill="#d12c80" d="M 214.5,109.5 C 217.201,112.235 218.868,115.569 219.5,119.5C 211.425,121.47 203.591,124.136 196,127.5C 195.502,125.456 194.335,124.122 192.5,123.5C 191.122,122.455 190.122,121.122 189.5,119.5C 190.583,119.539 191.583,119.873 192.5,120.5C 199.538,118.099 206.538,115.599 213.5,113C 214.337,111.989 214.67,110.822 214.5,109.5 Z"/></g>
<g><path style="opacity:0.982" fill="#a53099" d="M 64.5,121.5 C 64.2962,124.518 63.9629,127.518 63.5,130.5C 54.8931,133.369 46.2265,136.036 37.5,138.5C 37.7373,137.209 37.404,136.209 36.5,135.5C 36.2279,133.389 35.8946,131.223 35.5,129C 36.0659,128.005 36.7326,127.172 37.5,126.5C 37.147,128.635 37.9803,129.968 40,130.5C 48.2861,127.597 56.4527,124.597 64.5,121.5 Z"/></g>
<g><path style="opacity:1" fill="#de2f74" d="M 223.5,133.5 C 224.234,134.708 224.567,136.041 224.5,137.5C 223.542,137.047 222.708,136.381 222,135.5C 184.213,148.644 146.38,161.644 108.5,174.5C 108.84,172.321 109.84,170.488 111.5,169C 111.041,167.057 112.041,165.724 114.5,165C 138.833,156.667 163.167,148.333 187.5,140C 187.167,139.667 186.833,139.333 186.5,139C 189.691,138.969 192.857,139.469 196,140.5C 197.225,140.138 198.391,139.638 199.5,139C 198.701,137.251 199.368,135.918 201.5,135C 207.871,132.932 214.204,130.765 220.5,128.5C 221.065,130.544 222.065,132.21 223.5,133.5 Z"/></g>
<g><path style="opacity:0.985" fill="#b02f93" d="M 63.5,130.5 C 62.9603,134.642 62.2937,138.642 61.5,142.5C 53.6855,144.494 46.0189,146.994 38.5,150C 37.3636,151.145 36.3636,152.312 35.5,153.5C 35.332,148.064 34.9987,142.564 34.5,137C 35.0442,136.283 35.7109,135.783 36.5,135.5C 37.404,136.209 37.7373,137.209 37.5,138.5C 46.2265,136.036 54.8931,133.369 63.5,130.5 Z"/></g>
<g><path style="opacity:1" fill="#df366e" d="M 224.5,137.5 C 224.5,138.833 224.5,140.167 224.5,141.5C 204.75,147.979 184.75,154.979 164.5,162.5C 165.243,163.182 165.909,163.849 166.5,164.5C 155.458,164.187 145.791,167.187 137.5,173.5C 137.631,172.624 137.298,171.957 136.5,171.5C 126.034,174.987 115.701,178.654 105.5,182.5C 105.298,180.05 105.631,177.717 106.5,175.5C 107.492,175.672 108.158,175.338 108.5,174.5C 146.38,161.644 184.213,148.644 222,135.5C 222.708,136.381 223.542,137.047 224.5,137.5 Z"/></g>
<g><path style="opacity:0.997" fill="#d52b7d" d="M 165.5,137.5 C 168.305,138.319 171.305,138.819 174.5,139C 154.07,145.773 134.07,152.607 114.5,159.5C 127.965,144.441 144.965,137.108 165.5,137.5 Z"/></g>
<g><path style="opacity:1" fill="#da2b7a" d="M 219.5,119.5 C 221.746,123.805 223.08,128.471 223.5,133.5C 222.065,132.21 221.065,130.544 220.5,128.5C 214.204,130.765 207.871,132.932 201.5,135C 199.368,135.918 198.701,137.251 199.5,139C 198.391,139.638 197.225,140.138 196,140.5C 192.857,139.469 189.691,138.969 186.5,139C 186.833,139.333 187.167,139.667 187.5,140C 163.167,148.333 138.833,156.667 114.5,165C 112.041,165.724 111.041,167.057 111.5,169C 109.84,170.488 108.84,172.321 108.5,174.5C 108.158,175.338 107.492,175.672 106.5,175.5C 107.9,169.939 110.567,164.606 114.5,159.5C 134.07,152.607 154.07,145.773 174.5,139C 171.305,138.819 168.305,138.319 165.5,137.5C 168.157,137.17 170.824,136.837 173.5,136.5C 181.502,137.429 189.502,137.929 197.5,138C 196.822,133.141 195.156,128.308 192.5,123.5C 194.335,124.122 195.502,125.456 196,127.5C 203.591,124.136 211.425,121.47 219.5,119.5 Z"/></g>
<g><path style="opacity:0.999" fill="#e23c68" d="M 224.5,141.5 C 225.341,143.379 225.675,145.379 225.5,147.5C 226.791,147.263 227.791,147.596 228.5,148.5C 226.434,149.248 224.6,148.581 223,146.5C 208.706,152.378 194.206,157.878 179.5,163C 175.312,163.176 171.312,163.676 167.5,164.5C 167.167,164.5 166.833,164.5 166.5,164.5C 165.909,163.849 165.243,163.182 164.5,162.5C 184.75,154.979 204.75,147.979 224.5,141.5 Z"/></g>
<g><path style="opacity:1" fill="#bc2d8d" d="M 61.5,142.5 C 61.5,145.167 61.5,147.833 61.5,150.5C 60.3501,153.146 58.3501,154.979 55.5,156C 48.8973,158.474 42.2306,160.64 35.5,162.5C 35.5,159.5 35.5,156.5 35.5,153.5C 36.3636,152.312 37.3636,151.145 38.5,150C 46.0189,146.994 53.6855,144.494 61.5,142.5 Z"/></g>
<g><path style="opacity:0.999" fill="#e34563" d="M 228.5,148.5 C 231.331,149.079 233.664,150.412 235.5,152.5C 223.829,156.451 211.829,160.618 199.5,165C 199.966,166.299 199.966,167.799 199.5,169.5C 199.167,169.5 198.833,169.5 198.5,169.5C 198.5,168.5 198.5,167.5 198.5,166.5C 195.103,166.508 191.936,165.841 189,164.5C 182.256,165.674 175.089,165.674 167.5,164.5C 171.312,163.676 175.312,163.176 179.5,163C 194.206,157.878 208.706,152.378 223,146.5C 224.6,148.581 226.434,149.248 228.5,148.5 Z"/></g>
<g><path style="opacity:0.989" fill="#e54b5a" d="M 235.5,152.5 C 238.511,153.669 241.178,155.336 243.5,157.5C 241.533,157.739 239.699,157.406 238,156.5C 225.058,161.646 212.225,165.979 199.5,169.5C 199.966,167.799 199.966,166.299 199.5,165C 211.829,160.618 223.829,156.451 235.5,152.5 Z"/></g>
<g><path style="opacity:0.997" fill="#e75354" d="M 243.5,157.5 C 245.389,158.604 247.055,159.937 248.5,161.5C 231.358,168.215 214.025,174.549 196.5,180.5C 197.702,177.681 197.702,175.181 196.5,173C 197.823,172.184 198.489,171.017 198.5,169.5C 198.833,169.5 199.167,169.5 199.5,169.5C 212.225,165.979 225.058,161.646 238,156.5C 239.699,157.406 241.533,157.739 243.5,157.5 Z"/></g>
<g><path style="opacity:1" fill="#c82b86" d="M 61.5,150.5 C 61.5,151.5 61.5,152.5 61.5,153.5C 60.9443,158.329 59.9443,163.162 58.5,168C 51.8333,170.333 45.1667,172.667 38.5,175C 37.8742,175.75 37.3742,176.584 37,177.5C 36.8091,175.292 36.3091,173.292 35.5,171.5C 35.5,168.5 35.5,165.5 35.5,162.5C 42.2306,160.64 48.8973,158.474 55.5,156C 58.3501,154.979 60.3501,153.146 61.5,150.5 Z"/></g>
<g><path style="opacity:1" fill="#ea5b4c" d="M 248.5,161.5 C 250.5,162.833 252.167,164.5 253.5,166.5C 244.167,170.167 234.833,173.833 225.5,177.5C 224.075,175.969 223.409,176.302 223.5,178.5C 222.778,178.082 222.278,177.416 222,176.5C 221.5,177.667 220.667,178.5 219.5,179C 212.129,181.401 204.796,183.901 197.5,186.5C 196.817,186.137 196.15,185.804 195.5,185.5C 195.366,183.708 195.699,182.042 196.5,180.5C 214.025,174.549 231.358,168.215 248.5,161.5 Z"/></g>
<g><path style="opacity:0.996" fill="#ec6445" d="M 253.5,166.5 C 256.516,169.52 259.183,172.854 261.5,176.5C 252.771,177.908 244.271,180.242 236,183.5C 234.97,183.836 234.47,184.503 234.5,185.5C 233.728,184.306 232.728,183.306 231.5,182.5C 229.909,180.367 227.909,178.701 225.5,177.5C 234.833,173.833 244.167,170.167 253.5,166.5 Z"/></g>
<g><path style="opacity:0.998" fill="#d42c7e" d="M 61.5,153.5 C 61.3705,163.521 61.7039,173.521 62.5,183.5C 61.71,182.391 61.21,181.058 61,179.5C 60.4387,178.978 59.772,178.645 59,178.5C 51.9085,181.197 44.7419,183.697 37.5,186C 38.7119,187.107 38.3786,187.607 36.5,187.5C 35.0511,181.478 34.7178,176.144 35.5,171.5C 36.3091,173.292 36.8091,175.292 37,177.5C 37.3742,176.584 37.8742,175.75 38.5,175C 45.1667,172.667 51.8333,170.333 58.5,168C 59.9443,163.162 60.9443,158.329 61.5,153.5 Z"/></g>
<g><path style="opacity:0.994" fill="#eb6247" d="M 223.5,178.5 C 223.324,181.727 222.657,184.727 221.5,187.5C 220.732,186.737 220.232,185.737 220,184.5C 210.26,188.136 200.426,191.469 190.5,194.5C 192.39,191.365 194.057,188.365 195.5,185.5C 196.15,185.804 196.817,186.137 197.5,186.5C 204.796,183.901 212.129,181.401 219.5,179C 220.667,178.5 221.5,177.667 222,176.5C 222.278,177.416 222.778,178.082 223.5,178.5 Z"/></g>
<g><path style="opacity:0.999" fill="#db2b79" d="M 62.5,183.5 C 63.1495,185.435 63.4828,187.435 63.5,189.5C 62.596,188.791 62.2627,187.791 62.5,186.5C 54.4441,188.684 46.4441,191.184 38.5,194C 39.985,195.756 39.6516,196.923 37.5,197.5C 37.8957,194.956 37.229,192.789 35.5,191C 36.3366,189.989 36.67,188.822 36.5,187.5C 38.3786,187.607 38.7119,187.107 37.5,186C 44.7419,183.697 51.9085,181.197 59,178.5C 59.772,178.645 60.4387,178.978 61,179.5C 61.21,181.058 61.71,182.391 62.5,183.5 Z"/></g>
<g><path style="opacity:0.993" fill="#ee6c3d" d="M 261.5,176.5 C 263.358,178.883 264.692,181.55 265.5,184.5C 264.265,184.279 263.265,183.612 262.5,182.5C 255.127,185.235 247.794,188.069 240.5,191C 241.598,191.77 241.598,192.603 240.5,193.5C 238.885,190.55 236.885,187.884 234.5,185.5C 234.47,184.503 234.97,183.836 236,183.5C 244.271,180.242 252.771,177.908 261.5,176.5 Z"/></g>
<g><path style="opacity:0.998" fill="#e24065" d="M 137.5,173.5 C 134.44,176.952 132.44,180.952 131.5,185.5C 130.85,185.196 130.183,184.863 129.5,184.5C 121.278,187.126 113.278,190.126 105.5,193.5C 105.5,189.833 105.5,186.167 105.5,182.5C 115.701,178.654 126.034,174.987 136.5,171.5C 137.298,171.957 137.631,172.624 137.5,173.5 Z"/></g>
<g><path style="opacity:0.008" fill="#ca5774" d="M 231.5,182.5 C 230.833,183.167 230.833,183.167 231.5,182.5 Z"/></g>
<g><path style="opacity:1" fill="#f17734" d="M 265.5,184.5 C 266.736,186.649 267.736,188.982 268.5,191.5C 259.518,193.945 251.185,196.612 243.5,199.5C 242.13,197.75 241.13,195.75 240.5,193.5C 241.598,192.603 241.598,191.77 240.5,191C 247.794,188.069 255.127,185.235 262.5,182.5C 263.265,183.612 264.265,184.279 265.5,184.5 Z"/></g>
<g><path style="opacity:0.999" fill="#df3570" d="M 63.5,189.5 C 64.0916,192.127 64.4249,194.794 64.5,197.5C 63.8826,197.389 63.3826,197.056 63,196.5C 55.2715,199.465 47.4381,202.132 39.5,204.5C 37.5455,202.332 36.8788,199.998 37.5,197.5C 39.6516,196.923 39.985,195.756 38.5,194C 46.4441,191.184 54.4441,188.684 62.5,186.5C 62.2627,187.791 62.596,188.791 63.5,189.5 Z"/></g>
<g><path style="opacity:0.994" fill="#ee6c3e" d="M 221.5,187.5 C 220.683,192.797 219.016,197.797 216.5,202.5C 215.842,201.602 215.176,200.602 214.5,199.5C 187.871,208.765 161.204,217.932 134.5,227C 133.244,227.417 132.577,228.25 132.5,229.5C 127.316,227.637 122.983,224.637 119.5,220.5C 127.535,216.315 136.035,212.982 145,210.5C 146.364,209.629 147.53,208.629 148.5,207.5C 157.529,208.965 166.529,208.799 175.5,207C 181.935,204.385 186.935,200.218 190.5,194.5C 200.426,191.469 210.26,188.136 220,184.5C 220.232,185.737 220.732,186.737 221.5,187.5 Z"/></g>
<g><path style="opacity:1" fill="#e64d59" d="M 131.5,185.5 C 131.601,190.578 132.934,195.245 135.5,199.5C 128.169,201.774 120.502,204.274 112.5,207C 112.347,208.209 112.014,209.375 111.5,210.5C 108.344,205.373 106.344,199.706 105.5,193.5C 113.278,190.126 121.278,187.126 129.5,184.5C 130.183,184.863 130.85,185.196 131.5,185.5 Z"/></g>
<g><path style="opacity:0.999" fill="#f4832c" d="M 268.5,191.5 C 270.268,196.676 271.268,202.01 271.5,207.5C 270.596,206.791 270.263,205.791 270.5,204.5C 261.754,206.525 253.421,209.525 245.5,213.5C 245.095,209.034 244.428,204.367 243.5,199.5C 251.185,196.612 259.518,193.945 268.5,191.5 Z"/></g>
<g><path style="opacity:1" fill="#f07337" d="M 216.5,202.5 C 216.167,203.167 215.833,203.833 215.5,204.5C 190.86,212.757 165.86,221.257 140.5,230C 139.402,230.77 139.402,231.603 140.5,232.5C 137.212,232.984 134.545,231.984 132.5,229.5C 132.577,228.25 133.244,227.417 134.5,227C 161.204,217.932 187.871,208.765 214.5,199.5C 215.176,200.602 215.842,201.602 216.5,202.5 Z"/></g>
<g><path style="opacity:1" fill="#e95a4d" d="M 135.5,199.5 C 137.167,200.833 138.833,202.167 140.5,203.5C 140.414,204.496 140.748,205.329 141.5,206C 132.992,208.336 124.658,211.169 116.5,214.5C 115.583,213.873 114.583,213.539 113.5,213.5C 112.761,213.631 112.094,213.464 111.5,213C 112.598,212.23 112.598,211.397 111.5,210.5C 112.014,209.375 112.347,208.209 112.5,207C 120.502,204.274 128.169,201.774 135.5,199.5 Z"/></g>
<g><path style="opacity:0.999" fill="#e24065" d="M 64.5,197.5 C 65.7867,201.313 66.7867,205.313 67.5,209.5C 66.2101,208.942 65.3768,207.942 65,206.5C 57.6268,209.349 49.7934,212.016 41.5,214.5C 40.8852,211.206 39.8852,208.039 38.5,205C 38.7284,204.601 39.0618,204.435 39.5,204.5C 47.4381,202.132 55.2715,199.465 63,196.5C 63.3826,197.056 63.8826,197.389 64.5,197.5 Z"/></g>
<g><path style="opacity:0.991" fill="#eb6148" d="M 140.5,203.5 C 143.232,204.866 145.899,206.199 148.5,207.5C 147.53,208.629 146.364,209.629 145,210.5C 136.035,212.982 127.535,216.315 119.5,220.5C 116.507,219.007 114.507,216.674 113.5,213.5C 114.583,213.539 115.583,213.873 116.5,214.5C 124.658,211.169 132.992,208.336 141.5,206C 140.748,205.329 140.414,204.496 140.5,203.5 Z"/></g>
<g><path style="opacity:0.986" fill="#e54a5c" d="M 67.5,209.5 C 68.3627,211.421 69.0293,213.421 69.5,215.5C 61.5431,218.036 53.2098,220.703 44.5,223.5C 43.0462,222.48 42.7129,221.313 43.5,220C 42.87,218.108 41.87,216.441 40.5,215C 40.7284,214.601 41.0618,214.435 41.5,214.5C 49.7934,212.016 57.6268,209.349 65,206.5C 65.3768,207.942 66.2101,208.942 67.5,209.5 Z"/></g>
<g><path style="opacity:1" fill="#f58f35" d="M 271.5,207.5 C 272.833,212.5 272.833,217.5 271.5,222.5C 270.71,221.391 270.21,220.058 270,218.5C 261.989,222.782 253.489,225.782 244.5,227.5C 245.256,222.649 245.589,217.982 245.5,213.5C 253.421,209.525 261.754,206.525 270.5,204.5C 270.263,205.791 270.596,206.791 271.5,207.5 Z"/></g>
<g><path style="opacity:1" fill="#f27c31" d="M 215.5,204.5 C 205.288,223.166 189.455,233.833 168,236.5C 161.317,236.75 154.65,236.083 148,234.5C 147.667,234.833 147.333,235.167 147,235.5C 144.834,234.269 142.667,233.269 140.5,232.5C 139.402,231.603 139.402,230.77 140.5,230C 165.86,221.257 190.86,212.757 215.5,204.5 Z"/></g>
<g><path style="opacity:0.999" fill="#e75355" d="M 69.5,215.5 C 70.3052,217.915 71.3052,220.249 72.5,222.5C 64.3231,225.357 55.9898,228.69 47.5,232.5C 46.5331,229.759 45.1997,227.259 43.5,225C 44.056,224.617 44.3893,224.117 44.5,223.5C 53.2098,220.703 61.5431,218.036 69.5,215.5 Z"/></g>
<g><path style="opacity:0.998" fill="#f79d41" d="M 271.5,222.5 C 271.57,226.425 270.903,230.091 269.5,233.5C 268.85,233.196 268.183,232.863 267.5,232.5C 256.919,236.133 246.585,240.133 236.5,244.5C 238.414,241.674 239.914,239.007 241,236.5C 241.642,234.238 242.475,232.071 243.5,230C 242.434,228.841 242.767,228.008 244.5,227.5C 253.489,225.782 261.989,222.782 270,218.5C 270.21,220.058 270.71,221.391 271.5,222.5 Z"/></g>
<g><path style="opacity:0.991" fill="#eb6148" d="M 72.5,222.5 C 74.3084,227.45 76.6417,232.117 79.5,236.5C 71.2051,239.823 62.8718,243.156 54.5,246.5C 52.332,243.486 50.332,240.32 48.5,237C 49.6341,235.984 49.3008,235.317 47.5,235C 47.6243,234.03 47.6243,233.197 47.5,232.5C 55.9898,228.69 64.3231,225.357 72.5,222.5 Z"/></g>
<g><path style="opacity:0.984" fill="#ee6d3d" d="M 79.5,236.5 C 81.5113,239.861 83.5113,243.194 85.5,246.5C 85.5654,246.938 85.3988,247.272 85,247.5C 84.1667,246.5 83.3333,245.5 82.5,244.5C 75.6139,247.296 68.6139,249.796 61.5,252C 61.3482,253.924 61.3482,255.758 61.5,257.5C 58.8059,254.124 56.4726,250.457 54.5,246.5C 62.8718,243.156 71.2051,239.823 79.5,236.5 Z"/></g>
<g><path style="opacity:1" fill="#f17733" d="M 85.5,246.5 C 86.8333,247.167 87.8333,248.167 88.5,249.5C 88.5979,250.549 88.5979,251.715 88.5,253C 79.8031,255.278 71.8031,258.111 64.5,261.5C 63.5116,260.205 62.5116,258.872 61.5,257.5C 61.3482,255.758 61.3482,253.924 61.5,252C 68.6139,249.796 75.6139,247.296 82.5,244.5C 83.3333,245.5 84.1667,246.5 85,247.5C 85.3988,247.272 85.5654,246.938 85.5,246.5 Z"/></g>
<g><path style="opacity:1" fill="#f4832d" d="M 88.5,249.5 C 93.6542,254.894 99.3208,259.561 105.5,263.5C 103.516,263.617 101.85,262.95 100.5,261.5C 92.5457,265.485 84.2124,268.485 75.5,270.5C 75.5,271.5 75.5,272.5 75.5,273.5C 71.1814,270.178 67.5147,266.178 64.5,261.5C 71.8031,258.111 79.8031,255.278 88.5,253C 88.5979,251.715 88.5979,250.549 88.5,249.5 Z"/></g>
<g><path style="opacity:0.999" fill="#fab959" d="M 259.5,257.5 C 256.565,262.765 252.899,267.432 248.5,271.5C 248.719,270.325 248.386,269.325 247.5,268.5C 215.279,279.963 182.946,291.129 150.5,302C 151.416,302.278 152.082,302.778 152.5,303.5C 144.525,303.531 136.858,302.864 129.5,301.5C 129.047,300.542 128.381,299.708 127.5,299C 171.286,283.627 215.119,268.461 259,253.5C 259.49,254.793 259.657,256.127 259.5,257.5 Z"/></g>
<g><path style="opacity:1" fill="#f59034" d="M 105.5,263.5 C 110.899,266.199 116.232,268.866 121.5,271.5C 119.181,270.833 116.847,270.666 114.5,271C 117.167,271.667 117.167,272.333 114.5,273C 105.489,276.004 96.4891,279.004 87.5,282C 88.056,282.383 88.3893,282.883 88.5,283.5C 83.591,280.926 79.2577,277.592 75.5,273.5C 75.5,272.5 75.5,271.5 75.5,270.5C 84.2124,268.485 92.5457,265.485 100.5,261.5C 101.85,262.95 103.516,263.617 105.5,263.5 Z"/></g>
<g><path style="opacity:0.996" fill="#fac061" d="M 248.5,271.5 C 230.838,289.571 209.005,299.904 183,302.5C 182.667,303.167 182.333,303.833 182,304.5C 172.368,304.231 162.535,303.898 152.5,303.5C 152.082,302.778 151.416,302.278 150.5,302C 182.946,291.129 215.279,279.963 247.5,268.5C 248.386,269.325 248.719,270.325 248.5,271.5 Z"/></g>
<g><path style="opacity:0.995" fill="#f69d41" d="M 121.5,271.5 C 126.646,272.701 131.646,274.035 136.5,275.5C 137.263,276.268 138.263,276.768 139.5,277C 126.032,281.433 112.699,285.933 99.5,290.5C 96.4253,289.609 93.4253,288.443 90.5,287C 90.8333,286.667 91.1667,286.333 91.5,286C 90.0577,285.623 89.0577,284.79 88.5,283.5C 88.3893,282.883 88.056,282.383 87.5,282C 96.4891,279.004 105.489,276.004 114.5,273C 117.167,272.333 117.167,271.667 114.5,271C 116.847,270.666 119.181,270.833 121.5,271.5 Z"/></g>
<g><path style="opacity:1" fill="#f8ad4f" d="M 269.5,233.5 C 267.78,242.26 264.447,250.26 259.5,257.5C 259.657,256.127 259.49,254.793 259,253.5C 215.119,268.461 171.286,283.627 127.5,299C 128.381,299.708 129.047,300.542 129.5,301.5C 126.167,300.5 122.833,299.5 119.5,298.5C 118.833,298.167 118.167,297.833 117.5,297.5C 110.871,296.681 104.871,294.347 99.5,290.5C 112.699,285.933 126.032,281.433 139.5,277C 138.263,276.768 137.263,276.268 136.5,275.5C 159.652,279.376 182.318,277.543 204.5,270C 217.421,264.236 228.088,255.736 236.5,244.5C 246.585,240.133 256.919,236.133 267.5,232.5C 268.183,232.863 268.85,233.196 269.5,233.5 Z"/></g>
<g><path style="opacity:0.008" fill="#cb5974" d="M 117.5,297.5 C 118.167,297.833 118.833,298.167 119.5,298.5C 118.377,299.757 117.711,299.424 117.5,297.5 Z"/></g>
</svg>
