<?xml version="1.0" standalone="no"?>
<!DOCTYPE svg PUBLIC "-//W3C//DTD SVG 20010904//EN"
 "http://www.w3.org/TR/2001/REC-SVG-20010904/DTD/svg10.dtd">
<svg version="1.0" xmlns="http://www.w3.org/2000/svg"
 width="320.000000pt" height="320.000000pt" viewBox="0 0 320.000000 320.000000"
 preserveAspectRatio="xMidYMid meet">

<g transform="translate(0.000000,320.000000) scale(0.100000,-0.100000)"
fill="#000000" stroke="none">
<path d="M1500 3034 c-346 -42 -553 -129 -738 -308 -158 -153 -264 -337 -327
-572 -99 -363 -95 -790 11 -1144 29 -94 88 -230 101 -230 4 0 55 16 113 37
l105 36 -22 48 c-38 79 -90 248 -110 354 -14 79 -18 153 -18 345 0 214 3 259
22 355 56 274 147 453 308 603 210 196 582 277 941 203 338 -70 576 -282 689
-613 28 -84 16 -81 161 -43 l101 27 -12 42 c-144 470 -473 762 -950 841 -92
16 -312 27 -375 19z"/>
<path d="M1525 2361 c-164 -27 -302 -104 -395 -221 l-31 -39 101 -70 101 -70
36 40 c50 56 108 87 194 105 133 28 274 -3 354 -77 45 -42 94 -136 102 -199
l5 -37 -48 8 c-89 14 -349 10 -432 -7 -291 -60 -457 -250 -439 -504 6 -92 33
-164 86 -235 l40 -53 136 46 c76 27 135 52 135 60 0 6 -6 12 -14 12 -7 0 -34
16 -58 35 -125 95 -114 263 22 347 71 43 158 61 300 62 132 1 246 -9 270 -24
12 -7 12 -21 2 -89 -6 -45 -22 -107 -35 -139 l-23 -57 142 48 142 49 7 44 c3
24 10 46 14 48 4 3 26 -8 48 -24 l40 -30 113 38 c63 21 116 44 118 51 7 22
-129 142 -214 190 -44 24 -85 51 -91 60 -7 8 -13 33 -13 56 0 63 -36 191 -77
275 -67 139 -200 245 -354 284 -73 18 -220 27 -284 17z"/>
</g>
</svg>
