<?xml version="1.0" encoding="UTF-8"?>
<!DOCTYPE svg PUBLIC "-//W3C//DTD SVG 1.1//EN" "http://www.w3.org/Graphics/SVG/1.1/DTD/svg11.dtd">
<svg xmlns="http://www.w3.org/2000/svg" version="1.1" width="600px" height="600px" style="shape-rendering:geometricPrecision; text-rendering:geometricPrecision; image-rendering:optimizeQuality; fill-rule:evenodd; clip-rule:evenodd" xmlns:xlink="http://www.w3.org/1999/xlink">
<g><path style="opacity:1" fill="#fefefe" d="M -0.5,-0.5 C 199.5,-0.5 399.5,-0.5 599.5,-0.5C 599.5,199.5 599.5,399.5 599.5,599.5C 399.5,599.5 199.5,599.5 -0.5,599.5C -0.5,399.5 -0.5,199.5 -0.5,-0.5 Z"/></g>
<g><path style="opacity:1" fill="#5a54cd" d="M 175.5,29.5 C 131.052,53.2173 86.719,76.5507 42.5,99.5C 61.2821,62.251 91.2821,39.4177 132.5,31C 146.789,29.6092 161.122,29.1092 175.5,29.5 Z"/></g>
<g><path style="opacity:1" fill="#5e4fc9" d="M 175.5,29.5 C 188.833,29.5 202.167,29.5 215.5,29.5C 208.888,34.2476 202.721,37.2476 197,38.5C 196.683,40.3008 196.016,40.6341 195,39.5C 194.683,41.3008 194.016,41.6341 193,40.5C 190.936,42.4674 188.269,44.4674 185,46.5C 183.94,46.7455 182.773,46.7455 181.5,46.5C 180.201,47.09 179.368,48.09 179,49.5C 177.984,48.3659 177.317,48.6992 177,50.5C 174.91,49.2092 173.576,49.8758 173,52.5C 171.984,51.3659 171.317,51.6992 171,53.5C 170,53.5 169,53.5 168,53.5C 166.888,56.3029 165.054,57.3029 162.5,56.5C 160.57,57.5525 159.07,58.8858 158,60.5C 155.223,59.5533 153.223,60.5533 152,63.5C 150.984,62.3659 150.317,62.6992 150,64.5C 149,64.5 148,64.5 147,64.5C 144.948,67.206 142.281,69.206 139,70.5C 137.984,69.3659 137.317,69.6992 137,71.5C 133.547,70.8918 130.881,72.2251 129,75.5C 128,75.5 127,75.5 126,75.5C 125.626,76.4162 125.126,77.2496 124.5,78C 119.585,80.9842 114.585,82.9842 109.5,84C 107.5,85.6667 105.5,87.3333 103.5,89C 102.551,89.6172 101.718,89.4506 101,88.5C 100.424,91.1242 99.0902,91.7908 97,90.5C 96.6827,92.3008 96.016,92.6341 95,91.5C 92.365,92.4735 90.365,94.1402 89,96.5C 88.6667,96.1667 88.3333,95.8333 88,95.5C 86.3333,96.8333 84.6667,98.1667 83,99.5C 80.7076,98.3991 79.2076,99.2324 78.5,102C 77.5509,102.617 76.7175,102.451 76,101.5C 74.635,103.86 72.635,105.527 70,106.5C 67.2233,105.553 65.2233,106.553 64,109.5C 62.984,108.366 62.3173,108.699 62,110.5C 60.984,109.366 60.3173,109.699 60,111.5C 59,111.5 58,111.5 57,111.5C 56.4236,114.124 55.0902,114.791 53,113.5C 52.4921,115.904 51.3255,116.571 49.5,115.5C 48.3044,115.846 48.3044,116.346 49.5,117C 48.2396,118.113 47.073,118.28 46,117.5C 45.6667,118.167 45.3333,118.833 45,119.5C 42.9098,118.209 41.5764,118.876 41,121.5C 40.2825,120.549 39.4491,120.383 38.5,121C 37.4982,122.672 36.3316,123.838 35,124.5C 34.6174,123.944 34.1174,123.611 33.5,123.5C 35.3395,114.971 38.3395,106.971 42.5,99.5C 86.719,76.5507 131.052,53.2173 175.5,29.5 Z"/></g>
<g><path style="opacity:1" fill="#624cc5" d="M 215.5,29.5 C 225.167,29.5 234.833,29.5 244.5,29.5C 173.839,66.9167 103.005,104.25 32,141.5C 31.6174,140.944 31.1174,140.611 30.5,140.5C 30.5,140.167 30.5,139.833 30.5,139.5C 30.8711,133.924 31.8711,128.591 33.5,123.5C 34.1174,123.611 34.6174,123.944 35,124.5C 36.3316,123.838 37.4982,122.672 38.5,121C 39.4491,120.383 40.2825,120.549 41,121.5C 41.5764,118.876 42.9098,118.209 45,119.5C 45.3333,118.833 45.6667,118.167 46,117.5C 47.073,118.28 48.2396,118.113 49.5,117C 48.3044,116.346 48.3044,115.846 49.5,115.5C 51.3255,116.571 52.4921,115.904 53,113.5C 55.0902,114.791 56.4236,114.124 57,111.5C 58,111.5 59,111.5 60,111.5C 60.3173,109.699 60.984,109.366 62,110.5C 62.3173,108.699 62.984,108.366 64,109.5C 65.2233,106.553 67.2233,105.553 70,106.5C 72.635,105.527 74.635,103.86 76,101.5C 76.7175,102.451 77.5509,102.617 78.5,102C 79.2076,99.2324 80.7076,98.3991 83,99.5C 84.6667,98.1667 86.3333,96.8333 88,95.5C 88.3333,95.8333 88.6667,96.1667 89,96.5C 90.365,94.1402 92.365,92.4735 95,91.5C 96.016,92.6341 96.6827,92.3008 97,90.5C 99.0902,91.7908 100.424,91.1242 101,88.5C 101.718,89.4506 102.551,89.6172 103.5,89C 105.5,87.3333 107.5,85.6667 109.5,84C 114.585,82.9842 119.585,80.9842 124.5,78C 125.126,77.2496 125.626,76.4162 126,75.5C 127,75.5 128,75.5 129,75.5C 130.881,72.2251 133.547,70.8918 137,71.5C 137.317,69.6992 137.984,69.3659 139,70.5C 142.281,69.206 144.948,67.206 147,64.5C 148,64.5 149,64.5 150,64.5C 150.317,62.6992 150.984,62.3659 152,63.5C 153.223,60.5533 155.223,59.5533 158,60.5C 159.07,58.8858 160.57,57.5525 162.5,56.5C 165.054,57.3029 166.888,56.3029 168,53.5C 169,53.5 170,53.5 171,53.5C 171.317,51.6992 171.984,51.3659 173,52.5C 173.576,49.8758 174.91,49.2092 177,50.5C 177.317,48.6992 177.984,48.3659 179,49.5C 179.368,48.09 180.201,47.09 181.5,46.5C 182.773,46.7455 183.94,46.7455 185,46.5C 188.269,44.4674 190.936,42.4674 193,40.5C 194.016,41.6341 194.683,41.3008 195,39.5C 196.016,40.6341 196.683,40.3008 197,38.5C 202.721,37.2476 208.888,34.2476 215.5,29.5 Z"/></g>
<g><path style="opacity:1" fill="#6846c1" d="M 244.5,29.5 C 263.833,29.5 283.167,29.5 302.5,29.5C 212.093,77.3697 121.427,124.703 30.5,171.5C 30.5,161.167 30.5,150.833 30.5,140.5C 31.1174,140.611 31.6174,140.944 32,141.5C 103.005,104.25 173.839,66.9167 244.5,29.5 Z"/></g>
<g><path style="opacity:1" fill="#6e42bd" d="M 302.5,29.5 C 310.833,29.5 319.167,29.5 327.5,29.5C 324.944,31.1546 322.277,32.8213 319.5,34.5C 319.06,35.698 318.727,36.8647 318.5,38C 315.221,38.9728 312.221,40.4728 309.5,42.5C 309.5,41.5 309.5,40.5 309.5,39.5C 290.009,49.4118 270.675,59.5785 251.5,70C 252.416,70.2784 253.082,70.7784 253.5,71.5C 218.001,78.7498 187.001,94.7498 160.5,119.5C 160.631,118.761 160.464,118.094 160,117.5C 139.079,128.377 118.245,139.377 97.5,150.5C 98.0253,151.192 98.6919,151.692 99.5,152C 97.1667,153.167 94.8333,154.333 92.5,155.5C 91.0317,153.468 89.365,153.635 87.5,156C 88.5,156.333 89.5,156.667 90.5,157C 87.5,158.5 84.5,160 81.5,161.5C 81.5,160.5 81.5,159.5 81.5,158.5C 66.5314,166.318 51.5314,174.152 36.5,182C 33.286,183.398 31.286,185.231 30.5,187.5C 30.5,182.167 30.5,176.833 30.5,171.5C 121.427,124.703 212.093,77.3697 302.5,29.5 Z"/></g>
<g><path style="opacity:1" fill="#733db8" d="M 327.5,29.5 C 344.833,29.5 362.167,29.5 379.5,29.5C 378.496,30.6828 377.662,32.0161 377,33.5C 376.586,33.0426 376.086,32.7093 375.5,32.5C 359.833,40.6667 344.167,48.8333 328.5,57C 327.874,57.7504 327.374,58.5838 327,59.5C 325.984,58.3659 325.317,58.6992 325,60.5C 323.984,59.3659 323.317,59.6992 323,61.5C 321.251,60.701 319.918,61.3676 319,63.5C 318.667,63.1667 318.333,62.8333 318,62.5C 316.581,63.4601 315.081,64.2935 313.5,65C 314.34,66.6665 313.84,66.8331 312,65.5C 310.052,66.1094 308.218,66.776 306.5,67.5C 288.651,67.0776 270.984,68.4109 253.5,71.5C 253.082,70.7784 252.416,70.2784 251.5,70C 270.675,59.5785 290.009,49.4118 309.5,39.5C 309.5,40.5 309.5,41.5 309.5,42.5C 312.221,40.4728 315.221,38.9728 318.5,38C 318.727,36.8647 319.06,35.698 319.5,34.5C 322.277,32.8213 324.944,31.1546 327.5,29.5 Z"/></g>
<g><path style="opacity:1" fill="#7b39b3" d="M 379.5,29.5 C 396.833,29.5 414.167,29.5 431.5,29.5C 406.211,43.4806 380.544,56.9806 354.5,70C 352.793,70.1953 351.126,70.1953 349.5,70C 350.571,70.8518 351.571,71.6851 352.5,72.5C 337.291,69.8433 321.958,68.1766 306.5,67.5C 308.218,66.776 310.052,66.1094 312,65.5C 313.84,66.8331 314.34,66.6665 313.5,65C 315.081,64.2935 316.581,63.4601 318,62.5C 318.333,62.8333 318.667,63.1667 319,63.5C 319.918,61.3676 321.251,60.701 323,61.5C 323.317,59.6992 323.984,59.3659 325,60.5C 325.317,58.6992 325.984,58.3659 327,59.5C 327.374,58.5838 327.874,57.7504 328.5,57C 344.167,48.8333 359.833,40.6667 375.5,32.5C 376.086,32.7093 376.586,33.0426 377,33.5C 377.662,32.0161 378.496,30.6828 379.5,29.5 Z"/></g>
<g><path style="opacity:1" fill="#7f35af" d="M 431.5,29.5 C 440.857,29.3496 450.191,29.683 459.5,30.5C 460.091,31.1515 460.757,31.8182 461.5,32.5C 432.942,47.8937 404.276,62.8937 375.5,77.5C 367.721,76.305 360.054,74.6383 352.5,72.5C 351.571,71.6851 350.571,70.8518 349.5,70C 351.126,70.1953 352.793,70.1953 354.5,70C 380.544,56.9806 406.211,43.4806 431.5,29.5 Z"/></g>
<g><path style="opacity:1" fill="#8633ab" d="M 459.5,30.5 C 466.051,30.9415 472.385,32.2748 478.5,34.5C 478.577,35.7498 479.244,36.5831 480.5,37C 450.875,53.312 420.875,68.812 390.5,83.5C 385.334,81.7446 380.334,79.7446 375.5,77.5C 404.276,62.8937 432.942,47.8937 461.5,32.5C 460.757,31.8182 460.091,31.1515 459.5,30.5 Z"/></g>
<g><path style="opacity:1" fill="#8d33a8" d="M 478.5,34.5 C 484.574,35.5072 490.241,37.5072 495.5,40.5C 472.561,52.6377 449.561,64.8043 426.5,77C 418.373,81.3984 410.04,85.2318 401.5,88.5C 397.646,87.0698 393.979,85.4031 390.5,83.5C 420.875,68.812 450.875,53.312 480.5,37C 479.244,36.5831 478.577,35.7498 478.5,34.5 Z"/></g>
<g><path style="opacity:1" fill="#9233a5" d="M 495.5,40.5 C 499.813,41.9899 503.813,43.9899 507.5,46.5C 476.471,62.5174 445.471,78.8507 414.5,95.5C 410,93.4174 405.666,91.0841 401.5,88.5C 410.04,85.2318 418.373,81.3984 426.5,77C 449.561,64.8043 472.561,52.6377 495.5,40.5 Z"/></g>
<g><path style="opacity:1" fill="#9831a1" d="M 507.5,46.5 C 511.336,48.5836 515.003,50.917 518.5,53.5C 488.291,70.3176 457.291,86.6509 425.5,102.5C 421.628,100.403 417.961,98.0692 414.5,95.5C 445.471,78.8507 476.471,62.5174 507.5,46.5 Z"/></g>
<g><path style="opacity:1" fill="#9f319e" d="M 518.5,53.5 C 522.791,56.1231 526.457,59.4564 529.5,63.5C 499.34,79.3961 469.174,95.3961 439,111.5C 437.989,110.663 436.822,110.33 435.5,110.5C 431.854,108.183 428.52,105.516 425.5,102.5C 457.291,86.6509 488.291,70.3176 518.5,53.5 Z"/></g>
<g><path style="opacity:1" fill="#a6309a" d="M 529.5,63.5 C 532.833,66.1667 535.833,69.1667 538.5,72.5C 536.801,72.3398 535.134,72.5065 533.5,73C 504.019,88.7396 474.352,103.906 444.5,118.5C 441.474,115.805 438.474,113.138 435.5,110.5C 436.822,110.33 437.989,110.663 439,111.5C 469.174,95.3961 499.34,79.3961 529.5,63.5 Z"/></g>
<g><path style="opacity:1" fill="#fefdfd" d="M 306.5,67.5 C 321.958,68.1766 337.291,69.8433 352.5,72.5C 360.054,74.6383 367.721,76.305 375.5,77.5C 380.334,79.7446 385.334,81.7446 390.5,83.5C 393.979,85.4031 397.646,87.0698 401.5,88.5C 405.666,91.0841 410,93.4174 414.5,95.5C 417.961,98.0692 421.628,100.403 425.5,102.5C 428.52,105.516 431.854,108.183 435.5,110.5C 438.474,113.138 441.474,115.805 444.5,118.5C 447.167,121.833 450.167,124.833 453.5,127.5C 456.041,131.252 459.041,134.585 462.5,137.5C 464.5,140.5 466.5,143.5 468.5,146.5C 470.167,149.167 471.833,151.833 473.5,154.5C 475.597,158.372 477.931,162.039 480.5,165.5C 482.533,169.565 484.533,173.565 486.5,177.5C 487.463,180.744 488.796,183.744 490.5,186.5C 492.266,193.139 494.599,199.473 497.5,205.5C 497.548,208.313 498.215,210.979 499.5,213.5C 487.444,217.737 475.111,221.404 462.5,224.5C 461.504,224.586 460.671,224.252 460,223.5C 459.153,221.146 458.32,218.812 457.5,216.5C 455.795,209.371 453.128,202.704 449.5,196.5C 448.29,191.749 446.29,187.416 443.5,183.5C 442.331,180.489 440.664,177.822 438.5,175.5C 434.598,168.599 429.931,162.266 424.5,156.5C 421.833,153.167 418.833,150.167 415.5,147.5C 412.149,144.152 408.482,141.152 404.5,138.5C 401.709,136.265 398.709,134.265 395.5,132.5C 391.326,129.912 386.993,127.579 382.5,125.5C 377.619,123.098 372.619,121.098 367.5,119.5C 361.786,116.904 355.786,115.237 349.5,114.5C 344.992,113.299 340.325,112.299 335.5,111.5C 327.585,110.071 319.585,109.404 311.5,109.5C 277.167,106.336 244.833,112.836 214.5,129C 191.282,143.378 173.949,162.878 162.5,187.5C 159.1,192.307 156.766,197.64 155.5,203.5C 154.063,207.108 152.563,210.775 151,214.5C 150.506,216.134 150.34,217.801 150.5,219.5C 148.432,222.763 147.432,226.43 147.5,230.5C 146.01,234.942 145.01,239.609 144.5,244.5C 143.205,248.267 142.539,252.267 142.5,256.5C 141.523,259.287 141.19,262.287 141.5,265.5C 140.517,269.298 140.183,273.298 140.5,277.5C 139.167,289.833 139.167,302.167 140.5,314.5C 140.5,315.833 140.5,317.167 140.5,318.5C 140.423,322.215 140.756,325.881 141.5,329.5C 141.307,333.566 141.64,337.566 142.5,341.5C 143.235,347.34 144.235,353.007 145.5,358.5C 145.549,362.078 146.215,365.411 147.5,368.5C 148.729,375.838 150.729,382.838 153.5,389.5C 154.129,392.397 155.129,395.064 156.5,397.5C 157.892,401.949 159.559,406.282 161.5,410.5C 163.676,415.528 166.343,420.194 169.5,424.5C 171.354,428.221 173.687,431.554 176.5,434.5C 179.07,439.738 182.736,444.072 187.5,447.5C 189.833,450.5 192.5,453.167 195.5,455.5C 197.8,457.984 200.467,459.984 203.5,461.5C 207.273,465.227 211.606,468.227 216.5,470.5C 221.769,473.967 227.436,476.634 233.5,478.5C 236.215,480.072 239.215,481.072 242.5,481.5C 245.888,483.118 249.554,484.118 253.5,484.5C 255.562,485.776 257.896,486.61 260.5,487C 267.119,488.291 273.785,489.124 280.5,489.5C 287.982,490.492 295.648,490.825 303.5,490.5C 312.639,490.928 321.639,490.261 330.5,488.5C 350.301,486.732 368.967,481.232 386.5,472C 400.073,464.719 411.407,454.885 420.5,442.5C 425.687,437.465 429.354,431.465 431.5,424.5C 435.277,419.171 437.277,413.171 437.5,406.5C 439.091,402.796 439.924,398.796 440,394.5C 440.817,388.984 440.651,383.65 439.5,378.5C 439.634,376.708 439.301,375.042 438.5,373.5C 437.576,367.825 435.909,362.491 433.5,357.5C 431.618,352.632 428.952,348.299 425.5,344.5C 423.42,340.914 420.754,337.747 417.5,335C 413.521,331.344 409.188,328.178 404.5,325.5C 401.422,337.212 398.089,348.879 394.5,360.5C 391.372,367.18 388.039,373.847 384.5,380.5C 365.918,406.178 340.584,419.844 308.5,421.5C 299.805,421.673 291.138,421.34 282.5,420.5C 277.276,419.194 271.943,417.861 266.5,416.5C 263.021,414.597 259.354,412.93 255.5,411.5C 249.7,408.096 244.033,404.429 238.5,400.5C 236.5,397.833 234.167,395.5 231.5,393.5C 228.159,388.495 224.826,383.495 221.5,378.5C 219.278,373.158 217.278,367.825 215.5,362.5C 215.483,360.435 215.15,358.435 214.5,356.5C 213.687,348.862 213.354,341.196 213.5,333.5C 215.12,328.354 216.453,323.02 217.5,317.5C 221.067,310.594 225.067,303.927 229.5,297.5C 248.333,278.15 271.333,267.317 298.5,265C 309.161,264.5 319.828,264.333 330.5,264.5C 341.587,264.594 352.587,265.594 363.5,267.5C 362.606,258.816 359.939,250.816 355.5,243.5C 352.466,235.414 347.132,229.414 339.5,225.5C 336.765,222.799 333.431,221.132 329.5,220.5C 323.576,217.883 317.243,216.55 310.5,216.5C 286.184,213.72 266.517,222.054 251.5,241.5C 249.275,239.89 246.941,238.557 244.5,237.5C 241.725,234.395 238.392,232.062 234.5,230.5C 231.048,227.601 227.382,224.934 223.5,222.5C 221.852,221.19 220.186,219.857 218.5,218.5C 220.859,215.149 223.192,211.815 225.5,208.5C 242.062,190.388 262.396,179.388 286.5,175.5C 289.833,175.5 293.167,175.5 296.5,175.5C 307.892,175.303 319.225,175.97 330.5,177.5C 336.353,179.673 342.353,181.673 348.5,183.5C 353.131,186.151 357.798,188.818 362.5,191.5C 368.438,196.099 374.105,201.099 379.5,206.5C 381.147,209.473 383.147,212.14 385.5,214.5C 387.346,218.869 389.679,222.869 392.5,226.5C 394.847,233.256 397.181,239.922 399.5,246.5C 399.394,249.079 400.061,251.412 401.5,253.5C 401.735,258.241 402.402,262.908 403.5,267.5C 403.185,271.371 403.518,275.038 404.5,278.5C 406.336,280.588 408.669,281.921 411.5,282.5C 413.181,284.008 415.181,285.008 417.5,285.5C 419.663,287.083 421.996,288.416 424.5,289.5C 428.462,292.488 432.462,295.488 436.5,298.5C 438.833,300.5 441.167,302.5 443.5,304.5C 445.806,306.139 447.806,308.139 449.5,310.5C 452.195,313.526 454.862,316.526 457.5,319.5C 458.811,322.135 460.478,324.469 462.5,326.5C 464.11,330.1 466.11,333.434 468.5,336.5C 469.747,341.929 471.747,346.929 474.5,351.5C 474.259,353.898 474.926,355.898 476.5,357.5C 476.53,361.618 477.197,365.618 478.5,369.5C 479.377,378.133 479.711,386.8 479.5,395.5C 479.5,396.5 479.5,397.5 479.5,398.5C 478.097,406.691 476.763,415.024 475.5,423.5C 472.658,430.011 469.991,436.678 467.5,443.5C 463.596,449.634 459.929,455.968 456.5,462.5C 449.606,471.735 441.939,480.402 433.5,488.5C 409.924,507.955 383.258,520.955 353.5,527.5C 341.928,529.557 330.261,530.891 318.5,531.5C 307.167,531.5 295.833,531.5 284.5,531.5C 278.064,531.673 271.731,531.006 265.5,529.5C 261.476,528.962 257.476,528.295 253.5,527.5C 245.859,525.705 238.193,524.039 230.5,522.5C 228.786,521.262 226.786,520.595 224.5,520.5C 217.911,517.518 211.244,514.518 204.5,511.5C 201.028,509.262 197.362,507.262 193.5,505.5C 190.506,503 187.173,501 183.5,499.5C 180.81,496.815 177.81,494.482 174.5,492.5C 171.192,489.529 167.859,486.529 164.5,483.5C 162.833,481.167 160.833,479.167 158.5,477.5C 155.138,473.808 151.805,470.141 148.5,466.5C 147.974,464.77 146.974,463.436 145.5,462.5C 143.154,459.129 140.821,455.796 138.5,452.5C 137.752,450.668 136.752,449.001 135.5,447.5C 133.403,443.628 131.069,439.961 128.5,436.5C 127.07,432.646 125.403,428.979 123.5,425.5C 122.403,422.314 121.07,419.314 119.5,416.5C 118.069,411.989 116.402,407.655 114.5,403.5C 113.297,397.686 111.63,392.02 109.5,386.5C 109.074,382.573 108.074,378.907 106.5,375.5C 106.283,371.295 105.617,367.295 104.5,363.5C 104.461,359.267 103.795,355.267 102.5,351.5C 102.276,347.821 101.942,344.154 101.5,340.5C 101.167,337.167 100.833,333.833 100.5,330.5C 99.6671,315.516 99.3338,300.516 99.5,285.5C 99.5,281.5 99.5,277.5 99.5,273.5C 100.226,268.184 100.893,262.851 101.5,257.5C 101.888,252.781 102.555,248.114 103.5,243.5C 104.075,239.477 104.741,235.477 105.5,231.5C 106.245,226.772 107.245,222.106 108.5,217.5C 113.182,198.455 119.848,180.122 128.5,162.5C 137.594,147.062 148.261,132.729 160.5,119.5C 187.001,94.7498 218.001,78.7498 253.5,71.5C 270.984,68.4109 288.651,67.0776 306.5,67.5 Z"/></g>
<g><path style="opacity:1" fill="#ab3096" d="M 538.5,72.5 C 540.727,74.6068 542.727,76.9401 544.5,79.5C 543.36,80.8014 542.027,81.9681 540.5,83C 511.59,98.0935 482.59,112.927 453.5,127.5C 450.167,124.833 447.167,121.833 444.5,118.5C 474.352,103.906 504.019,88.7396 533.5,73C 535.134,72.5065 536.801,72.3398 538.5,72.5 Z"/></g>
<g><path style="opacity:1" fill="#b22f92" d="M 544.5,79.5 C 547.579,82.6505 549.913,86.3171 551.5,90.5C 522.645,105.615 492.978,121.282 462.5,137.5C 459.041,134.585 456.041,131.252 453.5,127.5C 482.59,112.927 511.59,98.0935 540.5,83C 542.027,81.9681 543.36,80.8014 544.5,79.5 Z"/></g>
<g><path style="opacity:1" fill="#b92e8e" d="M 551.5,90.5 C 554.258,93.678 556.258,97.3447 557.5,101.5C 551.938,103.614 546.271,106.447 540.5,110C 516.571,122.464 492.571,134.631 468.5,146.5C 466.5,143.5 464.5,140.5 462.5,137.5C 492.978,121.282 522.645,105.615 551.5,90.5 Z"/></g>
<g><path style="opacity:1" fill="#be2d8c" d="M 557.5,101.5 C 559.065,103.509 560.065,105.843 560.5,108.5C 560.762,109.978 560.429,111.311 559.5,112.5C 531.708,126.563 504.041,140.896 476.5,155.5C 475.583,154.873 474.583,154.539 473.5,154.5C 471.833,151.833 470.167,149.167 468.5,146.5C 492.571,134.631 516.571,122.464 540.5,110C 546.271,106.447 551.938,103.614 557.5,101.5 Z"/></g>
<g><path style="opacity:1" fill="#7f37b0" d="M 311.5,109.5 C 311.611,110.117 311.944,110.617 312.5,111C 262.833,136.833 213.167,162.667 163.5,188.5C 162.893,188.376 162.56,188.043 162.5,187.5C 173.949,162.878 191.282,143.378 214.5,129C 244.833,112.836 277.167,106.336 311.5,109.5 Z"/></g>
<g><path style="opacity:1" fill="#8633ab" d="M 311.5,109.5 C 319.585,109.404 327.585,110.071 335.5,111.5C 333.669,113.776 331.336,115.609 328.5,117C 271.103,146.533 213.77,176.366 156.5,206.5C 155.614,205.675 155.281,204.675 155.5,203.5C 156.766,197.64 159.1,192.307 162.5,187.5C 162.56,188.043 162.893,188.376 163.5,188.5C 213.167,162.667 262.833,136.833 312.5,111C 311.944,110.617 311.611,110.117 311.5,109.5 Z"/></g>
<g><path style="opacity:1" fill="#8c33a8" d="M 335.5,111.5 C 340.325,112.299 344.992,113.299 349.5,114.5C 348.448,114.351 347.448,114.517 346.5,115C 348.167,115.333 349.833,115.667 351.5,116C 284.676,150.578 218.009,185.412 151.5,220.5C 150.893,220.376 150.56,220.043 150.5,219.5C 150.34,217.801 150.506,216.134 151,214.5C 152.563,210.775 154.063,207.108 155.5,203.5C 155.281,204.675 155.614,205.675 156.5,206.5C 213.77,176.366 271.103,146.533 328.5,117C 331.336,115.609 333.669,113.776 335.5,111.5 Z"/></g>
<g><path style="opacity:1" fill="#c52e88" d="M 560.5,108.5 C 563.076,113.448 564.743,118.781 565.5,124.5C 564.732,123.737 564.232,122.737 564,121.5C 536.09,136.368 508.257,151.035 480.5,165.5C 477.931,162.039 475.597,158.372 473.5,154.5C 474.583,154.539 475.583,154.873 476.5,155.5C 504.041,140.896 531.708,126.563 559.5,112.5C 560.429,111.311 560.762,109.978 560.5,108.5 Z"/></g>
<g><path style="opacity:1" fill="#9232a5" d="M 349.5,114.5 C 355.786,115.237 361.786,116.904 367.5,119.5C 294.316,157.677 221.149,196.01 148,234.5C 147.51,233.207 147.343,231.873 147.5,230.5C 147.432,226.43 148.432,222.763 150.5,219.5C 150.56,220.043 150.893,220.376 151.5,220.5C 218.009,185.412 284.676,150.578 351.5,116C 349.833,115.667 348.167,115.333 346.5,115C 347.448,114.517 348.448,114.351 349.5,114.5 Z"/></g>
<g><path style="opacity:1" fill="#713fba" d="M 160.5,119.5 C 148.261,132.729 137.594,147.062 128.5,162.5C 118.864,166.734 109.364,171.401 100,176.5C 97.0051,178.258 93.5051,180.092 89.5,182C 90.3402,183.666 89.8402,183.833 88,182.5C 77.4294,188.544 66.2627,194.377 54.5,200C 53.9647,202.109 52.9647,202.609 51.5,201.5C 50.5,202 49.5,202.5 48.5,203C 47.1667,203.667 47.1667,204.333 48.5,205C 47.2341,205.309 46.0674,205.809 45,206.5C 43.4419,205.655 42.4419,206.321 42,208.5C 39.9098,207.209 38.5764,207.876 38,210.5C 36.984,209.366 36.3173,209.699 36,211.5C 35,211.5 34,211.5 33,211.5C 32.6232,212.942 31.7899,213.942 30.5,214.5C 30.5,205.5 30.5,196.5 30.5,187.5C 31.286,185.231 33.286,183.398 36.5,182C 51.5314,174.152 66.5314,166.318 81.5,158.5C 81.5,159.5 81.5,160.5 81.5,161.5C 84.5,160 87.5,158.5 90.5,157C 89.5,156.667 88.5,156.333 87.5,156C 89.365,153.635 91.0317,153.468 92.5,155.5C 94.8333,154.333 97.1667,153.167 99.5,152C 98.6919,151.692 98.0253,151.192 97.5,150.5C 118.245,139.377 139.079,128.377 160,117.5C 160.464,118.094 160.631,118.761 160.5,119.5 Z"/></g>
<g><path style="opacity:1" fill="#9832a1" d="M 367.5,119.5 C 372.619,121.098 377.619,123.098 382.5,125.5C 350.5,142.167 318.5,158.833 286.5,175.5C 262.396,179.388 242.062,190.388 225.5,208.5C 198.216,221.225 171.383,234.892 145,249.5C 144.506,247.866 144.34,246.199 144.5,244.5C 145.01,239.609 146.01,234.942 147.5,230.5C 147.343,231.873 147.51,233.207 148,234.5C 221.149,196.01 294.316,157.677 367.5,119.5 Z"/></g>
<g><path style="opacity:1" fill="#cb2c84" d="M 565.5,124.5 C 567.006,129.03 568.006,133.697 568.5,138.5C 567.596,137.791 567.263,136.791 567.5,135.5C 562.527,137.067 557.694,139.067 553,141.5C 530.653,153.419 508.487,165.419 486.5,177.5C 484.533,173.565 482.533,169.565 480.5,165.5C 508.257,151.035 536.09,136.368 564,121.5C 564.232,122.737 564.732,123.737 565.5,124.5 Z"/></g>
<g><path style="opacity:1" fill="#9f309d" d="M 382.5,125.5 C 386.993,127.579 391.326,129.912 395.5,132.5C 395.631,133.376 395.298,134.043 394.5,134.5C 369.009,147.412 343.676,160.578 318.5,174C 310.989,174.171 303.655,174.671 296.5,175.5C 293.167,175.5 289.833,175.5 286.5,175.5C 318.5,158.833 350.5,142.167 382.5,125.5 Z"/></g>
<g><path style="opacity:1" fill="#a6339b" d="M 395.5,132.5 C 398.709,134.265 401.709,136.265 404.5,138.5C 404.586,139.496 404.252,140.329 403.5,141C 380.28,152.775 357.28,164.775 334.5,177C 333.207,177.49 331.873,177.657 330.5,177.5C 319.225,175.97 307.892,175.303 296.5,175.5C 303.655,174.671 310.989,174.171 318.5,174C 343.676,160.578 369.009,147.412 394.5,134.5C 395.298,134.043 395.631,133.376 395.5,132.5 Z"/></g>
<g><path style="opacity:1" fill="#d12c81" d="M 568.5,138.5 C 569.162,142.466 569.495,146.466 569.5,150.5C 568.698,149.048 568.198,147.382 568,145.5C 541.868,158.814 516.034,172.48 490.5,186.5C 488.796,183.744 487.463,180.744 486.5,177.5C 508.487,165.419 530.653,153.419 553,141.5C 557.694,139.067 562.527,137.067 567.5,135.5C 567.263,136.791 567.596,137.791 568.5,138.5 Z"/></g>
<g><path style="opacity:1" fill="#ab3097" d="M 404.5,138.5 C 408.482,141.152 412.149,144.152 415.5,147.5C 393.685,159.588 371.351,171.588 348.5,183.5C 342.353,181.673 336.353,179.673 330.5,177.5C 331.873,177.657 333.207,177.49 334.5,177C 357.28,164.775 380.28,152.775 403.5,141C 404.252,140.329 404.586,139.496 404.5,138.5 Z"/></g>
<g><path style="opacity:1" fill="#d82a7d" d="M 569.5,150.5 C 569.5,156.167 569.5,161.833 569.5,167.5C 568.883,167.389 568.383,167.056 568,166.5C 545.07,179.049 521.903,191.216 498.5,203C 497.748,203.671 497.414,204.504 497.5,205.5C 494.599,199.473 492.266,193.139 490.5,186.5C 516.034,172.48 541.868,158.814 568,145.5C 568.198,147.382 568.698,149.048 569.5,150.5 Z"/></g>
<g><path style="opacity:1" fill="#b22f93" d="M 415.5,147.5 C 418.833,150.167 421.833,153.167 424.5,156.5C 406.279,167.204 387.112,177.204 367,186.5C 365.287,188.076 363.787,189.743 362.5,191.5C 357.798,188.818 353.131,186.151 348.5,183.5C 371.351,171.588 393.685,159.588 415.5,147.5 Z"/></g>
<g><path style="opacity:1" fill="#ba2e8e" d="M 424.5,156.5 C 429.931,162.266 434.598,168.599 438.5,175.5C 418.672,185.58 399.006,195.913 379.5,206.5C 374.105,201.099 368.438,196.099 362.5,191.5C 363.787,189.743 365.287,188.076 367,186.5C 387.112,177.204 406.279,167.204 424.5,156.5 Z"/></g>
<g><path style="opacity:1" fill="#de2f74" d="M 569.5,167.5 C 569.5,171.833 569.5,176.167 569.5,180.5C 568.636,181.688 567.636,182.855 566.5,184C 516.167,210.333 465.833,236.667 415.5,263C 411.812,265.345 407.812,266.845 403.5,267.5C 402.402,262.908 401.735,258.241 401.5,253.5C 419.838,243.998 438.171,234.498 456.5,225C 458.679,225.284 460.679,225.117 462.5,224.5C 475.111,221.404 487.444,217.737 499.5,213.5C 498.215,210.979 497.548,208.313 497.5,205.5C 497.414,204.504 497.748,203.671 498.5,203C 521.903,191.216 545.07,179.049 568,166.5C 568.383,167.056 568.883,167.389 569.5,167.5 Z"/></g>
<g><path style="opacity:1" fill="#c42d88" d="M 438.5,175.5 C 440.664,177.822 442.331,180.489 443.5,183.5C 424.881,194.815 405.547,205.148 385.5,214.5C 383.147,212.14 381.147,209.473 379.5,206.5C 399.006,195.913 418.672,185.58 438.5,175.5 Z"/></g>
<g><path style="opacity:1" fill="#7b37b2" d="M 128.5,162.5 C 119.848,180.122 113.182,198.455 108.5,217.5C 82.5089,230.829 56.5089,244.162 30.5,257.5C 30.5,243.167 30.5,228.833 30.5,214.5C 31.7899,213.942 32.6232,212.942 33,211.5C 34,211.5 35,211.5 36,211.5C 36.3173,209.699 36.984,209.366 38,210.5C 38.5764,207.876 39.9098,207.209 42,208.5C 42.4419,206.321 43.4419,205.655 45,206.5C 46.0674,205.809 47.2341,205.309 48.5,205C 47.1667,204.333 47.1667,203.667 48.5,203C 49.5,202.5 50.5,202 51.5,201.5C 52.9647,202.609 53.9647,202.109 54.5,200C 66.2627,194.377 77.4294,188.544 88,182.5C 89.8402,183.833 90.3402,183.666 89.5,182C 93.5051,180.092 97.0051,178.258 100,176.5C 109.364,171.401 118.864,166.734 128.5,162.5 Z"/></g>
<g><path style="opacity:1" fill="#e03570" d="M 569.5,180.5 C 569.5,184.167 569.5,187.833 569.5,191.5C 515.521,219.496 461.188,247.663 406.5,276C 405.619,276.708 404.953,277.542 404.5,278.5C 403.518,275.038 403.185,271.371 403.5,267.5C 407.812,266.845 411.812,265.345 415.5,263C 465.833,236.667 516.167,210.333 566.5,184C 567.636,182.855 568.636,181.688 569.5,180.5 Z"/></g>
<g><path style="opacity:1" fill="#cb2d85" d="M 443.5,183.5 C 446.29,187.416 448.29,191.749 449.5,196.5C 430.334,206.249 411.334,216.249 392.5,226.5C 389.679,222.869 387.346,218.869 385.5,214.5C 405.547,205.148 424.881,194.815 443.5,183.5 Z"/></g>
<g><path style="opacity:1" fill="#e1396c" d="M 569.5,191.5 C 569.5,193.5 569.5,195.5 569.5,197.5C 517.177,225.671 464.177,253.505 410.5,281C 411.056,281.383 411.389,281.883 411.5,282.5C 408.669,281.921 406.336,280.588 404.5,278.5C 404.953,277.542 405.619,276.708 406.5,276C 461.188,247.663 515.521,219.496 569.5,191.5 Z"/></g>
<g><path style="opacity:1" fill="#e23c68" d="M 569.5,197.5 C 569.5,200.167 569.5,202.833 569.5,205.5C 568.71,206.609 568.21,207.942 568,209.5C 567.586,209.043 567.086,208.709 566.5,208.5C 517.098,234.741 467.431,260.407 417.5,285.5C 415.181,285.008 413.181,284.008 411.5,282.5C 411.389,281.883 411.056,281.383 410.5,281C 464.177,253.505 517.177,225.671 569.5,197.5 Z"/></g>
<g><path style="opacity:1" fill="#e34065" d="M 569.5,205.5 C 569.5,208.167 569.5,210.833 569.5,213.5C 568.596,214.209 568.263,215.209 568.5,216.5C 559.96,219.768 551.627,223.602 543.5,228C 503.989,249.087 464.322,269.587 424.5,289.5C 421.996,288.416 419.663,287.083 417.5,285.5C 467.431,260.407 517.098,234.741 566.5,208.5C 567.086,208.709 567.586,209.043 568,209.5C 568.21,207.942 568.71,206.609 569.5,205.5 Z"/></g>
<g><path style="opacity:1" fill="#d52c7f" d="M 449.5,196.5 C 453.128,202.704 455.795,209.371 457.5,216.5C 437.814,226.008 418.48,236.008 399.5,246.5C 397.181,239.922 394.847,233.256 392.5,226.5C 411.334,216.249 430.334,206.249 449.5,196.5 Z"/></g>
<g><path style="opacity:1" fill="#9f319e" d="M 225.5,208.5 C 223.192,211.815 220.859,215.149 218.5,218.5C 220.186,219.857 221.852,221.19 223.5,222.5C 197.213,237.313 170.547,251.647 143.5,265.5C 142.516,262.572 142.183,259.572 142.5,256.5C 142.539,252.267 143.205,248.267 144.5,244.5C 144.34,246.199 144.506,247.866 145,249.5C 171.383,234.892 198.216,221.225 225.5,208.5 Z"/></g>
<g><path style="opacity:1" fill="#b33294" d="M 310.5,216.5 C 257.596,244.386 201.93,273.386 143.5,303.5C 140.907,306.654 139.907,310.321 140.5,314.5C 139.167,302.167 139.167,289.833 140.5,277.5C 140.334,282.179 140.501,286.845 141,291.5C 175.479,273.345 209.979,255.345 244.5,237.5C 246.941,238.557 249.275,239.89 251.5,241.5C 266.517,222.054 286.184,213.72 310.5,216.5 Z"/></g>
<g><path style="opacity:1" fill="#dc2c7b" d="M 457.5,216.5 C 458.32,218.812 459.153,221.146 460,223.5C 460.671,224.252 461.504,224.586 462.5,224.5C 460.679,225.117 458.679,225.284 456.5,225C 438.171,234.498 419.838,243.998 401.5,253.5C 400.061,251.412 399.394,249.079 399.5,246.5C 418.48,236.008 437.814,226.008 457.5,216.5 Z"/></g>
<g><path style="opacity:1" fill="#8633ab" d="M 108.5,217.5 C 107.245,222.106 106.245,226.772 105.5,231.5C 104.163,232.315 103.163,233.482 102.5,235C 78.3159,247.258 54.3159,259.758 30.5,272.5C 30.5,267.5 30.5,262.5 30.5,257.5C 56.5089,244.162 82.5089,230.829 108.5,217.5 Z"/></g>
<g><path style="opacity:1" fill="#b82e8e" d="M 310.5,216.5 C 317.243,216.55 323.576,217.883 329.5,220.5C 266.307,252.929 203.307,285.595 140.5,318.5C 140.5,317.167 140.5,315.833 140.5,314.5C 139.907,310.321 140.907,306.654 143.5,303.5C 201.93,273.386 257.596,244.386 310.5,216.5 Z"/></g>
<g><path style="opacity:1" fill="#e44560" d="M 569.5,213.5 C 569.5,218.5 569.5,223.5 569.5,228.5C 524.654,251.087 480.32,274.421 436.5,298.5C 432.462,295.488 428.462,292.488 424.5,289.5C 464.322,269.587 503.989,249.087 543.5,228C 551.627,223.602 559.96,219.768 568.5,216.5C 568.263,215.209 568.596,214.209 569.5,213.5 Z"/></g>
<g><path style="opacity:1" fill="#be2d8b" d="M 329.5,220.5 C 333.431,221.132 336.765,222.799 339.5,225.5C 338.71,226.794 337.71,227.961 336.5,229C 275.896,260.637 215.229,292.303 154.5,324C 150.365,326.403 146.032,328.237 141.5,329.5C 140.756,325.881 140.423,322.215 140.5,318.5C 203.307,285.595 266.307,252.929 329.5,220.5 Z"/></g>
<g><path style="opacity:1" fill="#a6319a" d="M 223.5,222.5 C 227.382,224.934 231.048,227.601 234.5,230.5C 230.482,230.968 226.482,232.468 222.5,235C 195.667,249.167 168.833,263.333 142,277.5C 141.501,273.514 141.334,269.514 141.5,265.5C 141.19,262.287 141.523,259.287 142.5,256.5C 142.183,259.572 142.516,262.572 143.5,265.5C 170.547,251.647 197.213,237.313 223.5,222.5 Z"/></g>
<g><path style="opacity:1" fill="#c62e88" d="M 339.5,225.5 C 347.132,229.414 352.466,235.414 355.5,243.5C 354.85,243.196 354.183,242.863 353.5,242.5C 339.682,249.722 326.682,256.555 314.5,263C 320.016,263.173 325.349,263.673 330.5,264.5C 319.828,264.333 309.161,264.5 298.5,265C 271.333,267.317 248.333,278.15 229.5,297.5C 200.355,311.906 171.355,326.572 142.5,341.5C 141.64,337.566 141.307,333.566 141.5,329.5C 146.032,328.237 150.365,326.403 154.5,324C 215.229,292.303 275.896,260.637 336.5,229C 337.71,227.961 338.71,226.794 339.5,225.5 Z"/></g>
<g><path style="opacity:1" fill="#ab3096" d="M 234.5,230.5 C 238.392,232.062 241.725,234.395 244.5,237.5C 209.979,255.345 175.479,273.345 141,291.5C 140.501,286.845 140.334,282.179 140.5,277.5C 140.183,273.298 140.517,269.298 141.5,265.5C 141.334,269.514 141.501,273.514 142,277.5C 168.833,263.333 195.667,249.167 222.5,235C 226.482,232.468 230.482,230.968 234.5,230.5 Z"/></g>
<g><path style="opacity:1" fill="#e64b5b" d="M 569.5,228.5 C 569.5,234.167 569.5,239.833 569.5,245.5C 568.691,243.708 568.191,241.708 568,239.5C 526.521,261.652 485.021,283.319 443.5,304.5C 441.167,302.5 438.833,300.5 436.5,298.5C 480.32,274.421 524.654,251.087 569.5,228.5 Z"/></g>
<g><path style="opacity:1" fill="#8c33a8" d="M 105.5,231.5 C 104.741,235.477 104.075,239.477 103.5,243.5C 101.896,244.287 101.229,245.62 101.5,247.5C 77.8614,259.07 54.3614,271.07 31,283.5C 30.5014,279.848 30.3347,276.182 30.5,272.5C 54.3159,259.758 78.3159,247.258 102.5,235C 103.163,233.482 104.163,232.315 105.5,231.5 Z"/></g>
<g><path style="opacity:1" fill="#e74f56" d="M 569.5,245.5 C 569.5,246.5 569.5,247.5 569.5,248.5C 530.685,268.593 490.685,289.26 449.5,310.5C 447.806,308.139 445.806,306.139 443.5,304.5C 485.021,283.319 526.521,261.652 568,239.5C 568.191,241.708 568.691,243.708 569.5,245.5 Z"/></g>
<g><path style="opacity:1" fill="#933aa8" d="M 30.5,139.5 C 30.5,139.833 30.5,140.167 30.5,140.5C 30.5,150.833 30.5,161.167 30.5,171.5C 30.5,176.833 30.5,182.167 30.5,187.5C 30.5,196.5 30.5,205.5 30.5,214.5C 30.5,228.833 30.5,243.167 30.5,257.5C 30.5,262.5 30.5,267.5 30.5,272.5C 30.3347,276.182 30.5014,279.848 31,283.5C 54.3614,271.07 77.8614,259.07 101.5,247.5C 101.229,245.62 101.896,244.287 103.5,243.5C 102.555,248.114 101.888,252.781 101.5,257.5C 81.0546,268.892 60.388,280.059 39.5,291C 36.6907,292.741 33.6907,293.908 30.5,294.5C 30.5,299.167 30.5,303.833 30.5,308.5C 30.5,313.833 30.5,319.167 30.5,324.5C 30.5,327.5 30.5,330.5 30.5,333.5C 30.1667,333.5 29.8333,333.5 29.5,333.5C 29.1675,268.665 29.5009,203.998 30.5,139.5 Z"/></g>
<g><path style="opacity:1" fill="#d23083" d="M 355.5,243.5 C 359.939,250.816 362.606,258.816 363.5,267.5C 352.587,265.594 341.587,264.594 330.5,264.5C 325.349,263.673 320.016,263.173 314.5,263C 326.682,256.555 339.682,249.722 353.5,242.5C 354.183,242.863 354.85,243.196 355.5,243.5 Z"/></g>
<g><path style="opacity:1" fill="#e85551" d="M 569.5,248.5 C 569.5,252.167 569.5,255.833 569.5,259.5C 566.939,261.371 564.439,263.371 562,265.5C 561,265.167 560,264.833 559,264.5C 558.641,267.544 557.974,267.878 557,265.5C 556.641,268.544 555.974,268.878 555,266.5C 554.641,269.544 553.974,269.878 553,267.5C 552.641,270.544 551.974,270.878 551,268.5C 550.641,271.544 549.974,271.878 549,269.5C 548.333,270.833 547.667,272.167 547,273.5C 546.667,272.833 546.333,272.167 546,271.5C 545,272.833 544,274.167 543,275.5C 542,275.167 541,274.833 540,274.5C 538.482,276.348 536.649,277.848 534.5,279C 533.551,279.617 532.718,279.451 532,278.5C 531.626,279.416 531.126,280.25 530.5,281C 525.243,283.208 520.41,286.041 516,289.5C 514.048,288.3 512.548,288.8 511.5,291C 510.551,291.617 509.718,291.451 509,290.5C 507.237,292.719 505.237,294.719 503,296.5C 502.026,294.122 501.359,294.456 501,297.5C 500.667,296.833 500.333,296.167 500,295.5C 499,296.833 498,298.167 497,299.5C 495.048,298.3 493.548,298.8 492.5,301C 491.551,301.617 490.718,301.451 490,300.5C 483.658,305.265 476.991,309.598 470,313.5C 469.026,311.122 468.359,311.456 468,314.5C 467.026,312.122 466.359,312.456 466,315.5C 465.667,314.833 465.333,314.167 465,313.5C 464.385,315.116 463.385,316.449 462,317.5C 461.667,316.833 461.333,316.167 461,315.5C 460.333,316.833 459.667,318.167 459,319.5C 458.221,316.903 457.721,316.903 457.5,319.5C 454.862,316.526 452.195,313.526 449.5,310.5C 490.685,289.26 530.685,268.593 569.5,248.5 Z"/></g>
<g><path style="opacity:1" fill="#ea5a4d" d="M 569.5,259.5 C 569.5,262.833 569.5,266.167 569.5,269.5C 568.596,270.209 568.263,271.209 568.5,272.5C 566.436,272.687 564.436,273.187 562.5,274C 526.539,293.096 493.206,310.596 462.5,326.5C 460.478,324.469 458.811,322.135 457.5,319.5C 457.721,316.903 458.221,316.903 459,319.5C 459.667,318.167 460.333,316.833 461,315.5C 461.333,316.167 461.667,316.833 462,317.5C 463.385,316.449 464.385,315.116 465,313.5C 465.333,314.167 465.667,314.833 466,315.5C 466.359,312.456 467.026,312.122 468,314.5C 468.359,311.456 469.026,311.122 470,313.5C 476.991,309.598 483.658,305.265 490,300.5C 490.718,301.451 491.551,301.617 492.5,301C 493.548,298.8 495.048,298.3 497,299.5C 498,298.167 499,296.833 500,295.5C 500.333,296.167 500.667,296.833 501,297.5C 501.359,294.456 502.026,294.122 503,296.5C 505.237,294.719 507.237,292.719 509,290.5C 509.718,291.451 510.551,291.617 511.5,291C 512.548,288.8 514.048,288.3 516,289.5C 520.41,286.041 525.243,283.208 530.5,281C 531.126,280.25 531.626,279.416 532,278.5C 532.718,279.451 533.551,279.617 534.5,279C 536.649,277.848 538.482,276.348 540,274.5C 541,274.833 542,275.167 543,275.5C 544,274.167 545,272.833 546,271.5C 546.333,272.167 546.667,272.833 547,273.5C 547.667,272.167 548.333,270.833 549,269.5C 549.974,271.878 550.641,271.544 551,268.5C 551.974,270.878 552.641,270.544 553,267.5C 553.974,269.878 554.641,269.544 555,266.5C 555.974,268.878 556.641,268.544 557,265.5C 557.974,267.878 558.641,267.544 559,264.5C 560,264.833 561,265.167 562,265.5C 564.439,263.371 566.939,261.371 569.5,259.5 Z"/></g>
<g><path style="opacity:1" fill="#9831a1" d="M 101.5,257.5 C 100.893,262.851 100.226,268.184 99.5,273.5C 76.6558,285.422 53.6558,297.089 30.5,308.5C 30.5,303.833 30.5,299.167 30.5,294.5C 33.6907,293.908 36.6907,292.741 39.5,291C 60.388,280.059 81.0546,268.892 101.5,257.5 Z"/></g>
<g><path style="opacity:1" fill="#eb6048" d="M 569.5,269.5 C 569.5,274.5 569.5,279.5 569.5,284.5C 535.995,302.086 502.328,319.42 468.5,336.5C 466.11,333.434 464.11,330.1 462.5,326.5C 493.206,310.596 526.539,293.096 562.5,274C 564.436,273.187 566.436,272.687 568.5,272.5C 568.263,271.209 568.596,270.209 569.5,269.5 Z"/></g>
<g><path style="opacity:1" fill="#9f309d" d="M 99.5,273.5 C 99.5,277.5 99.5,281.5 99.5,285.5C 98.596,286.209 98.2627,287.209 98.5,288.5C 75.8018,300.515 53.1352,312.515 30.5,324.5C 30.5,319.167 30.5,313.833 30.5,308.5C 53.6558,297.089 76.6558,285.422 99.5,273.5 Z"/></g>
<g><path style="opacity:1" fill="#ed6742" d="M 569.5,284.5 C 569.5,290.167 569.5,295.833 569.5,301.5C 537.717,317.233 506.05,333.899 474.5,351.5C 471.747,346.929 469.747,341.929 468.5,336.5C 502.328,319.42 535.995,302.086 569.5,284.5 Z"/></g>
<g><path style="opacity:1" fill="#cb2d85" d="M 229.5,297.5 C 225.067,303.927 221.067,310.594 217.5,317.5C 194.094,329.378 170.427,341.711 146.5,354.5C 145.571,355.689 145.238,357.022 145.5,358.5C 144.235,353.007 143.235,347.34 142.5,341.5C 171.355,326.572 200.355,311.906 229.5,297.5 Z"/></g>
<g><path style="opacity:1" fill="#a92f97" d="M 98.5,288.5 C 98.5,297.167 98.5,305.833 98.5,314.5C 90.4752,317.933 82.9752,321.599 76,325.5C 61.2462,333.129 46.0795,340.795 30.5,348.5C 30.5,343.5 30.5,338.5 30.5,333.5C 30.5,330.5 30.5,327.5 30.5,324.5C 53.1352,312.515 75.8018,300.515 98.5,288.5 Z"/></g>
<g><path style="opacity:1" fill="#ef6d3c" d="M 569.5,301.5 C 569.5,304.167 569.5,306.833 569.5,309.5C 538.651,325.887 507.651,341.887 476.5,357.5C 474.926,355.898 474.259,353.898 474.5,351.5C 506.05,333.899 537.717,317.233 569.5,301.5 Z"/></g>
<g><path style="opacity:1" fill="#de3377" d="M 338.5,306.5 C 335.102,306.18 331.768,306.513 328.5,307.5C 304.451,320.858 280.118,333.691 255.5,346C 254.748,346.671 254.414,347.504 254.5,348.5C 252.591,341.464 253.758,334.797 258,328.5C 265.021,318.404 274.521,311.904 286.5,309C 303.838,305.44 321.172,304.606 338.5,306.5 Z"/></g>
<g><path style="opacity:1" fill="#e0386d" d="M 338.5,306.5 C 343.991,306.248 349.325,306.915 354.5,308.5C 354.611,309.117 354.944,309.617 355.5,310C 323.833,326.5 292.167,343 260.5,359.5C 259.614,360.325 259.281,361.325 259.5,362.5C 256.316,358.462 254.649,353.795 254.5,348.5C 254.414,347.504 254.748,346.671 255.5,346C 280.118,333.691 304.451,320.858 328.5,307.5C 331.768,306.513 335.102,306.18 338.5,306.5 Z"/></g>
<g><path style="opacity:1" fill="#e23c68" d="M 354.5,308.5 C 357.833,308.833 361.167,309.167 364.5,309.5C 364.634,311.292 364.301,312.958 363.5,314.5C 330.225,332.03 296.892,349.363 263.5,366.5C 261.833,365.5 260.5,364.167 259.5,362.5C 259.281,361.325 259.614,360.325 260.5,359.5C 292.167,343 323.833,326.5 355.5,310C 354.944,309.617 354.611,309.117 354.5,308.5 Z"/></g>
<g><path style="opacity:1" fill="#f07237" d="M 569.5,309.5 C 569.5,313.167 569.5,316.833 569.5,320.5C 566.959,323.123 563.959,325.289 560.5,327C 532.952,340.94 505.618,355.106 478.5,369.5C 477.197,365.618 476.53,361.618 476.5,357.5C 507.651,341.887 538.651,325.887 569.5,309.5 Z"/></g>
<g><path style="opacity:1" fill="#b23193" d="M 99.5,285.5 C 99.3338,300.516 99.6671,315.516 100.5,330.5C 99.71,329.391 99.21,328.058 99,326.5C 76.4227,339.207 53.5894,351.54 30.5,363.5C 30.5,358.5 30.5,353.5 30.5,348.5C 46.0795,340.795 61.2462,333.129 76,325.5C 82.9752,321.599 90.4752,317.933 98.5,314.5C 98.5,305.833 98.5,297.167 98.5,288.5C 98.2627,287.209 98.596,286.209 99.5,285.5 Z"/></g>
<g><path style="opacity:1" fill="#d12c81" d="M 217.5,317.5 C 216.453,323.02 215.12,328.354 213.5,333.5C 213.631,332.624 213.298,331.957 212.5,331.5C 191.437,342.364 170.437,353.197 149.5,364C 147.963,365.11 147.297,366.61 147.5,368.5C 146.215,365.411 145.549,362.078 145.5,358.5C 145.238,357.022 145.571,355.689 146.5,354.5C 170.427,341.711 194.094,329.378 217.5,317.5 Z"/></g>
<g><path style="opacity:1" fill="#e34364" d="M 363.5,314.5 C 363.452,320.46 362.452,326.127 360.5,331.5C 359.279,330.972 358.113,330.305 357,329.5C 355.635,331.86 353.635,333.527 351,334.5C 349.493,333.465 347.993,333.632 346.5,335C 347.833,335.667 347.833,336.333 346.5,337C 345.451,337.492 344.451,337.326 343.5,336.5C 342.5,337 341.5,337.5 340.5,338C 341.833,338.667 341.833,339.333 340.5,340C 339.551,340.617 338.718,340.451 338,339.5C 336.635,341.86 334.635,343.527 332,344.5C 331.586,344.043 331.086,343.709 330.5,343.5C 322.561,347.267 314.728,351.933 307,357.5C 306.586,357.043 306.086,356.709 305.5,356.5C 301.716,357.712 298.716,359.879 296.5,363C 295.551,363.617 294.718,363.451 294,362.5C 293.424,365.124 292.09,365.791 290,364.5C 289.683,366.301 289.016,366.634 288,365.5C 287.492,367.904 286.325,368.571 284.5,367.5C 283.5,368 282.5,368.5 281.5,369C 282.833,369.667 282.833,370.333 281.5,371C 280.451,371.492 279.451,371.326 278.5,370.5C 279.016,371.758 278.35,372.758 276.5,373.5C 274.114,372.012 273.448,372.345 274.5,374.5C 273.078,374.291 271.745,373.791 270.5,373C 267.638,371.265 265.304,369.098 263.5,366.5C 296.892,349.363 330.225,332.03 363.5,314.5 Z"/></g>
<g><path style="opacity:1" fill="#f27a31" d="M 569.5,320.5 C 569.5,326.167 569.5,331.833 569.5,337.5C 539.907,351.963 510.574,366.963 481.5,382.5C 480.516,385.428 480.183,388.428 480.5,391.5C 480.768,393.099 480.434,394.432 479.5,395.5C 479.711,386.8 479.377,378.133 478.5,369.5C 505.618,355.106 532.952,340.94 560.5,327C 563.959,325.289 566.959,323.123 569.5,320.5 Z"/></g>
<g><path style="opacity:1" fill="#e5475f" d="M 360.5,331.5 C 360.095,336.456 358.762,341.123 356.5,345.5C 355.85,345.196 355.183,344.863 354.5,344.5C 333.324,355.922 311.991,367.088 290.5,378C 288.866,378.494 287.199,378.66 285.5,378.5C 281.463,377.935 277.797,376.601 274.5,374.5C 273.448,372.345 274.114,372.012 276.5,373.5C 278.35,372.758 279.016,371.758 278.5,370.5C 279.451,371.326 280.451,371.492 281.5,371C 282.833,370.333 282.833,369.667 281.5,369C 282.5,368.5 283.5,368 284.5,367.5C 286.325,368.571 287.492,367.904 288,365.5C 289.016,366.634 289.683,366.301 290,364.5C 292.09,365.791 293.424,365.124 294,362.5C 294.718,363.451 295.551,363.617 296.5,363C 298.716,359.879 301.716,357.712 305.5,356.5C 306.086,356.709 306.586,357.043 307,357.5C 314.728,351.933 322.561,347.267 330.5,343.5C 331.086,343.709 331.586,344.043 332,344.5C 334.635,343.527 336.635,341.86 338,339.5C 338.718,340.451 339.551,340.617 340.5,340C 341.833,339.333 341.833,338.667 340.5,338C 341.5,337.5 342.5,337 343.5,336.5C 344.451,337.326 345.451,337.492 346.5,337C 347.833,336.333 347.833,335.667 346.5,335C 347.993,333.632 349.493,333.465 351,334.5C 353.635,333.527 355.635,331.86 357,329.5C 358.113,330.305 359.279,330.972 360.5,331.5 Z"/></g>
<g><path style="opacity:1" fill="#b92e8e" d="M 100.5,330.5 C 100.833,333.833 101.167,337.167 101.5,340.5C 100.883,340.389 100.383,340.056 100,339.5C 77.1724,352.164 54.0057,364.164 30.5,375.5C 30.5,371.5 30.5,367.5 30.5,363.5C 53.5894,351.54 76.4227,339.207 99,326.5C 99.21,328.058 99.71,329.391 100.5,330.5 Z"/></g>
<g><path style="opacity:1" fill="#d82b7d" d="M 213.5,333.5 C 213.354,341.196 213.687,348.862 214.5,356.5C 213.839,355.282 213.172,353.949 212.5,352.5C 192.865,362.652 173.198,372.818 153.5,383C 153.014,385.027 153.014,387.193 153.5,389.5C 150.729,382.838 148.729,375.838 147.5,368.5C 147.297,366.61 147.963,365.11 149.5,364C 170.437,353.197 191.437,342.364 212.5,331.5C 213.298,331.957 213.631,332.624 213.5,333.5 Z"/></g>
<g><path style="opacity:1" fill="#f37e2c" d="M 569.5,337.5 C 569.5,340.833 569.5,344.167 569.5,347.5C 568.85,347.196 568.183,346.863 567.5,346.5C 538.823,362.337 509.823,377.337 480.5,391.5C 480.183,388.428 480.516,385.428 481.5,382.5C 510.574,366.963 539.907,351.963 569.5,337.5 Z"/></g>
<g><path style="opacity:1" fill="#ea5b50" d="M 425.5,344.5 C 424.269,345.718 423.102,347.051 422,348.5C 418.102,349.294 414.436,351.294 411,354.5C 410.667,354.167 410.333,353.833 410,353.5C 404.812,356.125 399.812,359.125 395,362.5C 394.536,361.906 394.369,361.239 394.5,360.5C 398.089,348.879 401.422,337.212 404.5,325.5C 409.188,328.178 413.521,331.344 417.5,335C 420.754,337.747 423.42,340.914 425.5,344.5 Z"/></g>
<g><path style="opacity:1" fill="#be2d8b" d="M 101.5,340.5 C 101.942,344.154 102.276,347.821 102.5,351.5C 78.899,363.276 55.0656,375.609 31,388.5C 30.501,384.179 30.3343,379.846 30.5,375.5C 54.0057,364.164 77.1724,352.164 100,339.5C 100.383,340.056 100.883,340.389 101.5,340.5 Z"/></g>
<g><path style="opacity:1" fill="#e64f5a" d="M 356.5,345.5 C 348.897,366.598 333.897,378.098 311.5,380C 304.5,380.667 297.5,380.667 290.5,380C 288.618,379.802 286.952,379.302 285.5,378.5C 287.199,378.66 288.866,378.494 290.5,378C 311.991,367.088 333.324,355.922 354.5,344.5C 355.183,344.863 355.85,345.196 356.5,345.5 Z"/></g>
<g><path style="opacity:1" fill="#eb6249" d="M 425.5,344.5 C 428.952,348.299 431.618,352.632 433.5,357.5C 432.85,357.196 432.183,356.863 431.5,356.5C 415.967,364.766 400.301,372.766 384.5,380.5C 388.039,373.847 391.372,367.18 394.5,360.5C 394.369,361.239 394.536,361.906 395,362.5C 399.812,359.125 404.812,356.125 410,353.5C 410.333,353.833 410.667,354.167 411,354.5C 414.436,351.294 418.102,349.294 422,348.5C 423.102,347.051 424.269,345.718 425.5,344.5 Z"/></g>
<g><path style="opacity:1" fill="#f48529" d="M 569.5,347.5 C 569.5,351.167 569.5,354.833 569.5,358.5C 568.835,360.369 568.169,362.369 567.5,364.5C 537.67,379.496 508.17,394.829 479,410.5C 479.353,406.587 479.52,402.587 479.5,398.5C 479.5,397.5 479.5,396.5 479.5,395.5C 480.434,394.432 480.768,393.099 480.5,391.5C 509.823,377.337 538.823,362.337 567.5,346.5C 568.183,346.863 568.85,347.196 569.5,347.5 Z"/></g>
<g><path style="opacity:1" fill="#c6338b" d="M 29.5,333.5 C 29.8333,333.5 30.1667,333.5 30.5,333.5C 30.5,338.5 30.5,343.5 30.5,348.5C 30.5,353.5 30.5,358.5 30.5,363.5C 30.5,367.5 30.5,371.5 30.5,375.5C 30.3343,379.846 30.501,384.179 31,388.5C 55.0656,375.609 78.899,363.276 102.5,351.5C 103.795,355.267 104.461,359.267 104.5,363.5C 103.127,363.343 101.793,363.51 100.5,364C 77.3112,375.76 54.3112,387.76 31.5,400C 30.5308,404.737 30.1975,409.57 30.5,414.5C 30.5,418.5 30.5,422.5 30.5,426.5C 30.5,433.5 30.5,440.5 30.5,447.5C 30.5,450.5 30.5,453.5 30.5,456.5C 29.5014,415.67 29.168,374.67 29.5,333.5 Z"/></g>
<g><path style="opacity:1" fill="#de2f74" d="M 214.5,356.5 C 215.15,358.435 215.483,360.435 215.5,362.5C 215.785,364.288 215.452,365.955 214.5,367.5C 195.361,377.995 176.028,387.995 156.5,397.5C 155.129,395.064 154.129,392.397 153.5,389.5C 153.014,387.193 153.014,385.027 153.5,383C 173.198,372.818 192.865,362.652 212.5,352.5C 213.172,353.949 213.839,355.282 214.5,356.5 Z"/></g>
<g><path style="opacity:1" fill="#f68c2f" d="M 569.5,358.5 C 569.5,362.833 569.5,367.167 569.5,371.5C 568.776,373.218 568.109,375.052 567.5,377C 567.833,377.333 568.167,377.667 568.5,378C 564.495,379.908 560.995,381.742 558,383.5C 556.984,382.366 556.317,382.699 556,384.5C 554.984,383.366 554.317,383.699 554,385.5C 552.984,384.366 552.317,384.699 552,386.5C 551.667,386.167 551.333,385.833 551,385.5C 549.777,388.447 547.777,389.447 545,388.5C 542.948,391.206 540.281,393.206 537,394.5C 535.984,393.366 535.317,393.699 535,395.5C 533.984,394.366 533.317,394.699 533,396.5C 531.984,395.366 531.317,395.699 531,397.5C 529.984,396.366 529.317,396.699 529,398.5C 527.984,397.366 527.317,397.699 527,399.5C 525.927,398.72 524.76,398.887 523.5,400C 523.833,400.333 524.167,400.667 524.5,401C 521.16,402.573 518.327,404.073 516,405.5C 514.984,404.366 514.317,404.699 514,406.5C 512.984,405.366 512.317,405.699 512,407.5C 510.984,406.366 510.317,406.699 510,408.5C 508.984,407.366 508.317,407.699 508,409.5C 507.667,409.167 507.333,408.833 507,408.5C 506.632,409.91 505.799,410.91 504.5,411.5C 503.227,411.254 502.06,411.254 501,411.5C 499.997,414.156 498.33,415.156 496,414.5C 494.667,415.167 493.667,416.167 493,417.5C 491.984,416.366 491.317,416.699 491,418.5C 489.984,417.366 489.317,417.699 489,419.5C 487.984,418.366 487.317,418.699 487,420.5C 485.984,419.366 485.317,419.699 485,421.5C 483.984,420.366 483.317,420.699 483,422.5C 482.667,422.167 482.333,421.833 482,421.5C 480.341,422.831 478.674,424.165 477,425.5C 475.97,425.164 475.47,424.497 475.5,423.5C 476.763,415.024 478.097,406.691 479.5,398.5C 479.52,402.587 479.353,406.587 479,410.5C 508.17,394.829 537.67,379.496 567.5,364.5C 568.169,362.369 568.835,360.369 569.5,358.5 Z"/></g>
<g><path style="opacity:1" fill="#ed6942" d="M 433.5,357.5 C 435.909,362.491 437.576,367.825 438.5,373.5C 437.193,372.847 435.86,372.18 434.5,371.5C 367.042,406.465 299.709,441.632 232.5,477C 233.056,477.383 233.389,477.883 233.5,478.5C 227.436,476.634 221.769,473.967 216.5,470.5C 216.937,468.926 217.937,467.759 219.5,467C 249.301,451.768 278.967,436.601 308.5,421.5C 340.584,419.844 365.918,406.178 384.5,380.5C 400.301,372.766 415.967,364.766 431.5,356.5C 432.183,356.863 432.85,357.196 433.5,357.5 Z"/></g>
<g><path style="opacity:1" fill="#cb2c84" d="M 104.5,363.5 C 105.617,367.295 106.283,371.295 106.5,375.5C 81.2292,388.47 55.8959,401.47 30.5,414.5C 30.1975,409.57 30.5308,404.737 31.5,400C 54.3112,387.76 77.3112,375.76 100.5,364C 101.793,363.51 103.127,363.343 104.5,363.5 Z"/></g>
<g><path style="opacity:1" fill="#ef6d3c" d="M 438.5,373.5 C 439.301,375.042 439.634,376.708 439.5,378.5C 438.778,378.082 438.278,377.416 438,376.5C 436.378,378.906 434.211,380.739 431.5,382C 369.149,414.363 306.816,446.697 244.5,479C 243.619,479.708 242.953,480.542 242.5,481.5C 239.215,481.072 236.215,480.072 233.5,478.5C 233.389,477.883 233.056,477.383 232.5,477C 299.709,441.632 367.042,406.465 434.5,371.5C 435.86,372.18 437.193,372.847 438.5,373.5 Z"/></g>
<g><path style="opacity:1" fill="#f69335" d="M 569.5,371.5 C 569.5,376.833 569.5,382.167 569.5,387.5C 569.024,390.402 567.691,392.902 565.5,395C 538.21,408.7 512.377,422.2 488,435.5C 487.667,435.167 487.333,434.833 487,434.5C 483,437.167 479,439.833 475,442.5C 474.667,442.167 474.333,441.833 474,441.5C 472.648,443.432 470.815,444.766 468.5,445.5C 467.702,445.043 467.369,444.376 467.5,443.5C 469.991,436.678 472.658,430.011 475.5,423.5C 475.47,424.497 475.97,425.164 477,425.5C 478.674,424.165 480.341,422.831 482,421.5C 482.333,421.833 482.667,422.167 483,422.5C 483.317,420.699 483.984,420.366 485,421.5C 485.317,419.699 485.984,419.366 487,420.5C 487.317,418.699 487.984,418.366 489,419.5C 489.317,417.699 489.984,417.366 491,418.5C 491.317,416.699 491.984,416.366 493,417.5C 493.667,416.167 494.667,415.167 496,414.5C 498.33,415.156 499.997,414.156 501,411.5C 502.06,411.254 503.227,411.254 504.5,411.5C 505.799,410.91 506.632,409.91 507,408.5C 507.333,408.833 507.667,409.167 508,409.5C 508.317,407.699 508.984,407.366 510,408.5C 510.317,406.699 510.984,406.366 512,407.5C 512.317,405.699 512.984,405.366 514,406.5C 514.317,404.699 514.984,404.366 516,405.5C 518.327,404.073 521.16,402.573 524.5,401C 524.167,400.667 523.833,400.333 523.5,400C 524.76,398.887 525.927,398.72 527,399.5C 527.317,397.699 527.984,397.366 529,398.5C 529.317,396.699 529.984,396.366 531,397.5C 531.317,395.699 531.984,395.366 533,396.5C 533.317,394.699 533.984,394.366 535,395.5C 535.317,393.699 535.984,393.366 537,394.5C 540.281,393.206 542.948,391.206 545,388.5C 547.777,389.447 549.777,388.447 551,385.5C 551.333,385.833 551.667,386.167 552,386.5C 552.317,384.699 552.984,384.366 554,385.5C 554.317,383.699 554.984,383.366 556,384.5C 556.317,382.699 556.984,382.366 558,383.5C 560.995,381.742 564.495,379.908 568.5,378C 568.167,377.667 567.833,377.333 567.5,377C 568.109,375.052 568.776,373.218 569.5,371.5 Z"/></g>
<g><path style="opacity:1" fill="#d12b81" d="M 106.5,375.5 C 108.074,378.907 109.074,382.573 109.5,386.5C 105.219,387.136 101.219,388.636 97.5,391C 75.1083,402.861 52.775,414.694 30.5,426.5C 30.5,422.5 30.5,418.5 30.5,414.5C 55.8959,401.47 81.2292,388.47 106.5,375.5 Z"/></g>
<g><path style="opacity:1" fill="#e0386e" d="M 215.5,362.5 C 217.278,367.825 219.278,373.158 221.5,378.5C 220.326,380.441 218.659,381.941 216.5,383C 198.35,392.742 180.017,401.908 161.5,410.5C 159.559,406.282 157.892,401.949 156.5,397.5C 176.028,387.995 195.361,377.995 214.5,367.5C 215.452,365.955 215.785,364.288 215.5,362.5 Z"/></g>
<g><path style="opacity:1" fill="#f07237" d="M 439.5,378.5 C 439.666,382.846 439.499,387.179 439,391.5C 438.667,391.167 438.333,390.833 438,390.5C 378.547,421.809 319.047,452.976 259.5,484C 257.527,484.495 255.527,484.662 253.5,484.5C 249.554,484.118 245.888,483.118 242.5,481.5C 242.953,480.542 243.619,479.708 244.5,479C 306.816,446.697 369.149,414.363 431.5,382C 434.211,380.739 436.378,378.906 438,376.5C 438.278,377.416 438.778,378.082 439.5,378.5 Z"/></g>
<g><path style="opacity:1" fill="#d82a7d" d="M 109.5,386.5 C 111.63,392.02 113.297,397.686 114.5,403.5C 86.4686,418.182 58.4686,432.848 30.5,447.5C 30.5,440.5 30.5,433.5 30.5,426.5C 52.775,414.694 75.1083,402.861 97.5,391C 101.219,388.636 105.219,387.136 109.5,386.5 Z"/></g>
<g><path style="opacity:1" fill="#e24067" d="M 221.5,378.5 C 224.826,383.495 228.159,388.495 231.5,393.5C 230.85,393.196 230.183,392.863 229.5,392.5C 209.121,402.686 189.121,413.353 169.5,424.5C 166.343,420.194 163.676,415.528 161.5,410.5C 180.017,401.908 198.35,392.742 216.5,383C 218.659,381.941 220.326,380.441 221.5,378.5 Z"/></g>
<g><path style="opacity:1" fill="#f7993b" d="M 569.5,387.5 C 569.5,390.5 569.5,393.5 569.5,396.5C 568.799,399.563 568.132,402.73 567.5,406C 530.644,424.927 493.978,444.093 457.5,463.5C 456.893,463.376 456.56,463.043 456.5,462.5C 459.929,455.968 463.596,449.634 467.5,443.5C 467.369,444.376 467.702,445.043 468.5,445.5C 470.815,444.766 472.648,443.432 474,441.5C 474.333,441.833 474.667,442.167 475,442.5C 479,439.833 483,437.167 487,434.5C 487.333,434.833 487.667,435.167 488,435.5C 512.377,422.2 538.21,408.7 565.5,395C 567.691,392.902 569.024,390.402 569.5,387.5 Z"/></g>
<g><path style="opacity:1" fill="#e44660" d="M 231.5,393.5 C 234.167,395.5 236.5,397.833 238.5,400.5C 217.58,411.432 196.913,422.765 176.5,434.5C 173.687,431.554 171.354,428.221 169.5,424.5C 189.121,413.353 209.121,402.686 229.5,392.5C 230.183,392.863 230.85,393.196 231.5,393.5 Z"/></g>
<g><path style="opacity:1" fill="#f89f41" d="M 569.5,396.5 C 569.5,402.5 569.5,408.5 569.5,414.5C 568.698,415.952 568.198,417.618 568,419.5C 558.564,425.779 548.398,430.946 537.5,435C 537.833,435.333 538.167,435.667 538.5,436C 507.433,451.419 477.933,466.919 450,482.5C 444.865,484.734 439.532,487.401 434,490.5C 433.536,489.906 433.369,489.239 433.5,488.5C 441.939,480.402 449.606,471.735 456.5,462.5C 456.56,463.043 456.893,463.376 457.5,463.5C 493.978,444.093 530.644,424.927 567.5,406C 568.132,402.73 568.799,399.563 569.5,396.5 Z"/></g>
<g><path style="opacity:1" fill="#f27a32" d="M 439.5,378.5 C 440.651,383.65 440.817,388.984 440,394.5C 439.924,398.796 439.091,402.796 437.5,406.5C 384.741,433.38 332.074,460.547 279.5,488C 280.056,488.383 280.389,488.883 280.5,489.5C 273.785,489.124 267.119,488.291 260.5,487C 257.896,486.61 255.562,485.776 253.5,484.5C 255.527,484.662 257.527,484.495 259.5,484C 319.047,452.976 378.547,421.809 438,390.5C 438.333,390.833 438.667,391.167 439,391.5C 439.499,387.179 439.666,382.846 439.5,378.5 Z"/></g>
<g><path style="opacity:1" fill="#de2f75" d="M 114.5,403.5 C 116.402,407.655 118.069,411.989 119.5,416.5C 91.6852,431.575 63.6852,446.409 35.5,461C 33.6813,461.74 32.3479,462.907 31.5,464.5C 30.5269,462.052 30.1936,459.385 30.5,456.5C 30.5,453.5 30.5,450.5 30.5,447.5C 58.4686,432.848 86.4686,418.182 114.5,403.5 Z"/></g>
<g><path style="opacity:1" fill="#e64e58" d="M 238.5,400.5 C 244.033,404.429 249.7,408.096 255.5,411.5C 233.062,423.94 210.395,435.94 187.5,447.5C 182.736,444.072 179.07,439.738 176.5,434.5C 196.913,422.765 217.58,411.432 238.5,400.5 Z"/></g>
<g><path style="opacity:1" fill="#e85552" d="M 255.5,411.5 C 259.354,412.93 263.021,414.597 266.5,416.5C 265.761,416.369 265.094,416.536 264.5,417C 265.956,417.423 266.456,418.256 266,419.5C 264.94,419.746 263.773,419.746 262.5,419.5C 261.52,420.981 260.353,422.315 259,423.5C 258.667,423.167 258.333,422.833 258,422.5C 254.572,425.092 251.239,427.425 248,429.5C 246.497,429.165 245.164,429.165 244,429.5C 243.683,431.301 243.016,431.634 242,430.5C 240.899,432.394 239.566,433.061 238,432.5C 237.082,434.632 235.749,435.299 234,434.5C 233.082,436.632 231.749,437.299 230,436.5C 229.082,438.632 227.749,439.299 226,438.5C 224.899,440.394 223.566,441.061 222,440.5C 220.317,442.514 218.317,444.18 216,445.5C 215.667,445.167 215.333,444.833 215,444.5C 214.333,445.833 213.333,446.833 212,447.5C 211,447.5 210,447.5 209,447.5C 208.641,450.544 207.974,450.878 207,448.5C 205.899,450.394 204.566,451.061 203,450.5C 201.857,454.037 199.691,455.204 196.5,454C 198.932,455.087 198.598,455.587 195.5,455.5C 192.5,453.167 189.833,450.5 187.5,447.5C 210.395,435.94 233.062,423.94 255.5,411.5 Z"/></g>
<g><path style="opacity:1" fill="#f4812b" d="M 437.5,406.5 C 437.277,413.171 435.277,419.171 431.5,424.5C 389.045,446.397 346.379,468.397 303.5,490.5C 295.648,490.825 287.982,490.492 280.5,489.5C 280.389,488.883 280.056,488.383 279.5,488C 332.074,460.547 384.741,433.38 437.5,406.5 Z"/></g>
<g><path style="opacity:1" fill="#ea5b4d" d="M 266.5,416.5 C 271.943,417.861 277.276,419.194 282.5,420.5C 256.4,434.596 230.067,448.262 203.5,461.5C 200.467,459.984 197.8,457.984 195.5,455.5C 198.598,455.587 198.932,455.087 196.5,454C 199.691,455.204 201.857,454.037 203,450.5C 204.566,451.061 205.899,450.394 207,448.5C 207.974,450.878 208.641,450.544 209,447.5C 210,447.5 211,447.5 212,447.5C 213.333,446.833 214.333,445.833 215,444.5C 215.333,444.833 215.667,445.167 216,445.5C 218.317,444.18 220.317,442.514 222,440.5C 223.566,441.061 224.899,440.394 226,438.5C 227.749,439.299 229.082,438.632 230,436.5C 231.749,437.299 233.082,436.632 234,434.5C 235.749,435.299 237.082,434.632 238,432.5C 239.566,433.061 240.899,432.394 242,430.5C 243.016,431.634 243.683,431.301 244,429.5C 245.164,429.165 246.497,429.165 248,429.5C 251.239,427.425 254.572,425.092 258,422.5C 258.333,422.833 258.667,423.167 259,423.5C 260.353,422.315 261.52,420.981 262.5,419.5C 263.773,419.746 264.94,419.746 266,419.5C 266.456,418.256 265.956,417.423 264.5,417C 265.094,416.536 265.761,416.369 266.5,416.5 Z"/></g>
<g><path style="opacity:1" fill="#e03570" d="M 119.5,416.5 C 121.07,419.314 122.403,422.314 123.5,425.5C 122.883,425.389 122.383,425.056 122,424.5C 95.1322,439.019 67.9656,453.186 40.5,467C 37.6639,468.391 35.3306,470.224 33.5,472.5C 32.469,470.039 31.8023,467.373 31.5,464.5C 32.3479,462.907 33.6813,461.74 35.5,461C 63.6852,446.409 91.6852,431.575 119.5,416.5 Z"/></g>
<g><path style="opacity:1" fill="#f8a546" d="M 569.5,414.5 C 569.5,419.5 569.5,424.5 569.5,429.5C 568.238,431.993 566.238,433.826 563.5,435C 477.457,479.353 391.79,524.186 306.5,569.5C 298.167,569.5 289.833,569.5 281.5,569.5C 304.918,556.749 329.584,544.083 355.5,531.5C 355.94,530.302 356.273,529.135 356.5,528C 355.552,527.517 354.552,527.351 353.5,527.5C 383.258,520.955 409.924,507.955 433.5,488.5C 433.369,489.239 433.536,489.906 434,490.5C 439.532,487.401 444.865,484.734 450,482.5C 477.933,466.919 507.433,451.419 538.5,436C 538.167,435.667 537.833,435.333 537.5,435C 548.398,430.946 558.564,425.779 568,419.5C 568.198,417.618 568.698,415.952 569.5,414.5 Z"/></g>
<g><path style="opacity:1" fill="#eb6148" d="M 282.5,420.5 C 291.138,421.34 299.805,421.673 308.5,421.5C 278.967,436.601 249.301,451.768 219.5,467C 217.937,467.759 216.937,468.926 216.5,470.5C 211.606,468.227 207.273,465.227 203.5,461.5C 230.067,448.262 256.4,434.596 282.5,420.5 Z"/></g>
<g><path style="opacity:1" fill="#f5862a" d="M 431.5,424.5 C 429.354,431.465 425.687,437.465 420.5,442.5C 389.972,456.764 359.972,472.097 330.5,488.5C 321.639,490.261 312.639,490.928 303.5,490.5C 346.379,468.397 389.045,446.397 431.5,424.5 Z"/></g>
<g><path style="opacity:1" fill="#f9aa4a" d="M 569.5,429.5 C 569.5,433.5 569.5,437.5 569.5,441.5C 568.751,442.531 568.085,443.698 567.5,445C 487.916,486.289 408.583,527.789 329.5,569.5C 321.833,569.5 314.167,569.5 306.5,569.5C 391.79,524.186 477.457,479.353 563.5,435C 566.238,433.826 568.238,431.993 569.5,429.5 Z"/></g>
<g><path style="opacity:1" fill="#e13b6a" d="M 123.5,425.5 C 125.403,428.979 127.07,432.646 128.5,436.5C 117.218,443.479 105.552,449.979 93.5,456C 74.594,465.795 55.594,475.295 36.5,484.5C 34.7437,480.727 33.7437,476.727 33.5,472.5C 35.3306,470.224 37.6639,468.391 40.5,467C 67.9656,453.186 95.1322,439.019 122,424.5C 122.383,425.056 122.883,425.389 123.5,425.5 Z"/></g>
<g><path style="opacity:1" fill="#f68d31" d="M 420.5,442.5 C 411.407,454.885 400.073,464.719 386.5,472C 368.967,481.232 350.301,486.732 330.5,488.5C 359.972,472.097 389.972,456.764 420.5,442.5 Z"/></g>
<g><path style="opacity:1" fill="#e34263" d="M 128.5,436.5 C 131.069,439.961 133.403,443.628 135.5,447.5C 134.504,447.586 133.671,447.252 133,446.5C 131.888,449.303 130.054,450.303 127.5,449.5C 126.5,450 125.5,450.5 124.5,451C 125.833,451.667 125.833,452.333 124.5,453C 123.167,453 121.833,453 120.5,453C 121.833,453.667 121.833,454.333 120.5,455C 119.551,455.617 118.718,455.451 118,454.5C 116.386,455.023 114.886,456.356 113.5,458.5C 112.914,458.291 112.414,457.957 112,457.5C 110.635,459.86 108.635,461.527 106,462.5C 105.586,462.043 105.086,461.709 104.5,461.5C 98.4207,463.861 93.0874,467.194 88.5,471.5C 87.914,471.291 87.414,470.957 87,470.5C 86.4921,472.904 85.3255,473.571 83.5,472.5C 81.1667,473.667 78.8333,474.833 76.5,476C 77.8333,476.667 77.8333,477.333 76.5,478C 75.5509,478.617 74.7175,478.451 74,477.5C 72.2068,480.007 69.3734,482.007 65.5,483.5C 64.1575,482.098 63.3242,482.431 63,484.5C 62.6667,484.167 62.3333,483.833 62,483.5C 57.8073,485.166 54.3073,487.666 51.5,491C 50.5509,491.617 49.7175,491.451 49,490.5C 48.4236,493.124 47.0902,493.791 45,492.5C 44.6827,494.301 44.016,494.634 43,493.5C 42.5831,494.756 41.7498,495.423 40.5,495.5C 38.7709,491.979 37.4375,488.313 36.5,484.5C 55.594,475.295 74.594,465.795 93.5,456C 105.552,449.979 117.218,443.479 128.5,436.5 Z"/></g>
<g><path style="opacity:1" fill="#e44660" d="M 135.5,447.5 C 136.752,449.001 137.752,450.668 138.5,452.5C 107.518,469.66 76.1851,486.326 44.5,502.5C 42.4284,500.65 41.0951,498.317 40.5,495.5C 41.7498,495.423 42.5831,494.756 43,493.5C 44.016,494.634 44.6827,494.301 45,492.5C 47.0902,493.791 48.4236,493.124 49,490.5C 49.7175,491.451 50.5509,491.617 51.5,491C 54.3073,487.666 57.8073,485.166 62,483.5C 62.3333,483.833 62.6667,484.167 63,484.5C 63.3242,482.431 64.1575,482.098 65.5,483.5C 69.3734,482.007 72.2068,480.007 74,477.5C 74.7175,478.451 75.5509,478.617 76.5,478C 77.8333,477.333 77.8333,476.667 76.5,476C 78.8333,474.833 81.1667,473.667 83.5,472.5C 85.3255,473.571 86.4921,472.904 87,470.5C 87.414,470.957 87.914,471.291 88.5,471.5C 93.0874,467.194 98.4207,463.861 104.5,461.5C 105.086,461.709 105.586,462.043 106,462.5C 108.635,461.527 110.635,459.86 112,457.5C 112.414,457.957 112.914,458.291 113.5,458.5C 114.886,456.356 116.386,455.023 118,454.5C 118.718,455.451 119.551,455.617 120.5,455C 121.833,454.333 121.833,453.667 120.5,453C 121.833,453 123.167,453 124.5,453C 125.833,452.333 125.833,451.667 124.5,451C 125.5,450.5 126.5,450 127.5,449.5C 130.054,450.303 131.888,449.303 133,446.5C 133.671,447.252 134.504,447.586 135.5,447.5 Z"/></g>
<g><path style="opacity:1" fill="#f9b04f" d="M 569.5,441.5 C 569.5,445.167 569.5,448.833 569.5,452.5C 568.792,454.378 567.626,456.045 566,457.5C 565,457.5 564,457.5 563,457.5C 558.202,461.389 553.202,464.056 548,465.5C 546.667,466.167 545.667,467.167 545,468.5C 543.984,467.366 543.317,467.699 543,469.5C 541.984,468.366 541.317,468.699 541,470.5C 540,470.5 539,470.5 538,470.5C 537.683,472.301 537.016,472.634 536,471.5C 534.134,473.341 532.134,475.008 530,476.5C 529.667,476.167 529.333,475.833 529,475.5C 525.158,477.179 522.158,479.179 520,481.5C 519,481.5 518,481.5 517,481.5C 513.027,484.164 509.027,486.831 505,489.5C 503.984,488.366 503.317,488.699 503,490.5C 501.984,489.366 501.317,489.699 501,491.5C 499.984,490.366 499.317,490.699 499,492.5C 497.984,491.366 497.317,491.699 497,493.5C 496,493.5 495,493.5 494,493.5C 491.164,495.254 488.498,497.254 486,499.5C 484.984,498.366 484.317,498.699 484,500.5C 482.984,499.366 482.317,499.699 482,501.5C 480.984,500.366 480.317,500.699 480,502.5C 478.984,501.366 478.317,501.699 478,503.5C 476.984,502.366 476.317,502.699 476,504.5C 475,504.5 474,504.5 473,504.5C 470.333,506.5 467.667,508.5 465,510.5C 463.251,509.701 461.918,510.368 461,512.5C 459.984,511.366 459.317,511.699 459,513.5C 457.984,512.366 457.317,512.699 457,514.5C 455.984,513.366 455.317,513.699 455,515.5C 453.984,514.366 453.317,514.699 453,516.5C 446.865,518.416 440.531,521.749 434,526.5C 432.984,525.366 432.317,525.699 432,527.5C 430.984,526.366 430.317,526.699 430,528.5C 428.984,527.366 428.317,527.699 428,529.5C 427.667,529.167 427.333,528.833 427,528.5C 426.082,530.632 424.749,531.299 423,530.5C 421.381,532.583 419.381,534.25 417,535.5C 416.667,535.167 416.333,534.833 416,534.5C 411,537.5 406,540.5 401,543.5C 400.667,543.167 400.333,542.833 400,542.5C 397.333,544.5 394.667,546.5 392,548.5C 390.984,547.366 390.317,547.699 390,549.5C 389,549.5 388,549.5 387,549.5C 381.667,552.833 376.333,556.167 371,559.5C 369.984,558.366 369.317,558.699 369,560.5C 367.984,559.366 367.317,559.699 367,561.5C 366,561.5 365,561.5 364,561.5C 363.683,563.301 363.016,563.634 362,562.5C 359.627,564.807 356.794,566.473 353.5,567.5C 352.702,567.957 352.369,568.624 352.5,569.5C 344.833,569.5 337.167,569.5 329.5,569.5C 408.583,527.789 487.916,486.289 567.5,445C 568.085,443.698 568.751,442.531 569.5,441.5 Z"/></g>
<g><path style="opacity:1" fill="#e64c5b" d="M 138.5,452.5 C 140.821,455.796 143.154,459.129 145.5,462.5C 144.671,463.332 143.838,462.999 143,461.5C 111.533,477.814 80.3667,494.48 49.5,511.5C 47.0764,508.992 45.4097,505.992 44.5,502.5C 76.1851,486.326 107.518,469.66 138.5,452.5 Z"/></g>
<g><path style="opacity:1" fill="#e74f57" d="M 145.5,462.5 C 146.974,463.436 147.974,464.77 148.5,466.5C 147.761,466.369 147.094,466.536 146.5,467C 147.833,467.667 147.833,468.333 146.5,469C 116.198,484.818 85.8647,500.652 55.5,516.5C 54.7025,516.957 54.3691,517.624 54.5,518.5C 52.1,516.704 50.4333,514.37 49.5,511.5C 80.3667,494.48 111.533,477.814 143,461.5C 143.838,462.999 144.671,463.332 145.5,462.5 Z"/></g>
<g><path style="opacity:1" fill="#fab554" d="M 569.5,452.5 C 569.632,455.57 569.299,458.57 568.5,461.5C 567.582,463.82 566.248,465.987 564.5,468C 499.614,501.608 434.948,535.441 370.5,569.5C 364.5,569.5 358.5,569.5 352.5,569.5C 352.369,568.624 352.702,567.957 353.5,567.5C 356.794,566.473 359.627,564.807 362,562.5C 363.016,563.634 363.683,563.301 364,561.5C 365,561.5 366,561.5 367,561.5C 367.317,559.699 367.984,559.366 369,560.5C 369.317,558.699 369.984,558.366 371,559.5C 376.333,556.167 381.667,552.833 387,549.5C 388,549.5 389,549.5 390,549.5C 390.317,547.699 390.984,547.366 392,548.5C 394.667,546.5 397.333,544.5 400,542.5C 400.333,542.833 400.667,543.167 401,543.5C 406,540.5 411,537.5 416,534.5C 416.333,534.833 416.667,535.167 417,535.5C 419.381,534.25 421.381,532.583 423,530.5C 424.749,531.299 426.082,530.632 427,528.5C 427.333,528.833 427.667,529.167 428,529.5C 428.317,527.699 428.984,527.366 430,528.5C 430.317,526.699 430.984,526.366 432,527.5C 432.317,525.699 432.984,525.366 434,526.5C 440.531,521.749 446.865,518.416 453,516.5C 453.317,514.699 453.984,514.366 455,515.5C 455.317,513.699 455.984,513.366 457,514.5C 457.317,512.699 457.984,512.366 459,513.5C 459.317,511.699 459.984,511.366 461,512.5C 461.918,510.368 463.251,509.701 465,510.5C 467.667,508.5 470.333,506.5 473,504.5C 474,504.5 475,504.5 476,504.5C 476.317,502.699 476.984,502.366 478,503.5C 478.317,501.699 478.984,501.366 480,502.5C 480.317,500.699 480.984,500.366 482,501.5C 482.317,499.699 482.984,499.366 484,500.5C 484.317,498.699 484.984,498.366 486,499.5C 488.498,497.254 491.164,495.254 494,493.5C 495,493.5 496,493.5 497,493.5C 497.317,491.699 497.984,491.366 499,492.5C 499.317,490.699 499.984,490.366 501,491.5C 501.317,489.699 501.984,489.366 503,490.5C 503.317,488.699 503.984,488.366 505,489.5C 509.027,486.831 513.027,484.164 517,481.5C 518,481.5 519,481.5 520,481.5C 522.158,479.179 525.158,477.179 529,475.5C 529.333,475.833 529.667,476.167 530,476.5C 532.134,475.008 534.134,473.341 536,471.5C 537.016,472.634 537.683,472.301 538,470.5C 539,470.5 540,470.5 541,470.5C 541.317,468.699 541.984,468.366 543,469.5C 543.317,467.699 543.984,467.366 545,468.5C 545.667,467.167 546.667,466.167 548,465.5C 553.202,464.056 558.202,461.389 563,457.5C 564,457.5 565,457.5 566,457.5C 567.626,456.045 568.792,454.378 569.5,452.5 Z"/></g>
<g><path style="opacity:1" fill="#fab958" d="M 568.5,461.5 C 567.393,466.477 566.393,471.477 565.5,476.5C 557.382,481.581 548.382,486.415 538.5,491C 539.833,491.667 539.833,492.333 538.5,493C 522.833,501.167 507.167,509.333 491.5,517.5C 488.523,516.796 485.856,517.629 483.5,520C 484.167,520.333 484.833,520.667 485.5,521C 479.723,524.58 473.723,526.914 467.5,528C 468.167,528.333 468.833,528.667 469.5,529C 458.423,535.546 447.09,540.88 435.5,545C 436.833,545.667 436.833,546.333 435.5,547C 432.339,548.413 429.339,550.08 426.5,552C 424.793,552.195 423.126,552.195 421.5,552C 420.672,552.915 419.672,553.581 418.5,554C 418.833,554.333 419.167,554.667 419.5,555C 417.229,555.454 414.896,556.121 412.5,557C 413.833,557.667 413.833,558.333 412.5,559C 406.922,561.706 401.422,564.539 396,567.5C 395.439,566.978 394.772,566.645 394,566.5C 392.142,567.606 390.308,568.606 388.5,569.5C 382.5,569.5 376.5,569.5 370.5,569.5C 434.948,535.441 499.614,501.608 564.5,468C 566.248,465.987 567.582,463.82 568.5,461.5 Z"/></g>
<g><path style="opacity:1" fill="#e85552" d="M 148.5,466.5 C 151.805,470.141 155.138,473.808 158.5,477.5C 157.178,477.67 156.011,477.337 155,476.5C 154.333,479.167 153.667,479.167 153,476.5C 151,478.5 149,480.5 147,482.5C 146.667,481.833 146.333,481.167 146,480.5C 143,482.833 140,485.167 137,487.5C 136.026,485.122 135.359,485.456 135,488.5C 134.026,486.122 133.359,486.456 133,489.5C 132.026,487.122 131.359,487.456 131,490.5C 130.026,488.122 129.359,488.456 129,491.5C 128.667,490.833 128.333,490.167 128,489.5C 124.926,492.518 121.593,495.185 118,497.5C 117.667,497.167 117.333,496.833 117,496.5C 113.619,498.017 110.619,500.017 108,502.5C 107.026,500.122 106.359,500.456 106,503.5C 105.667,502.833 105.333,502.167 105,501.5C 103,503.5 101,505.5 99,507.5C 98,507.167 97,506.833 96,506.5C 92.8948,508.662 89.7281,510.828 86.5,513C 85.5509,513.617 84.7175,513.451 84,512.5C 83.6411,515.544 82.9745,515.878 82,513.5C 81.6411,516.544 80.9745,516.878 80,514.5C 79.5172,515.448 79.3505,516.448 79.5,517.5C 77.5165,517.383 75.8498,518.05 74.5,519.5C 73.0353,518.391 72.0353,518.891 71.5,521C 70.5509,521.617 69.7175,521.451 69,520.5C 68.4236,523.124 67.0902,523.791 65,522.5C 63.7912,524.184 62.2912,525.517 60.5,526.5C 58.1223,524.122 56.1223,521.455 54.5,518.5C 54.3691,517.624 54.7025,516.957 55.5,516.5C 85.8647,500.652 116.198,484.818 146.5,469C 147.833,468.333 147.833,467.667 146.5,467C 147.094,466.536 147.761,466.369 148.5,466.5 Z"/></g>
<g><path style="opacity:1" fill="#ea5a4d" d="M 158.5,477.5 C 160.833,479.167 162.833,481.167 164.5,483.5C 156.964,485.351 150.131,488.684 144,493.5C 143.667,493.167 143.333,492.833 143,492.5C 139.513,494.655 136.18,496.989 133,499.5C 131.434,498.939 130.101,499.606 129,501.5C 128.667,501.167 128.333,500.833 128,500.5C 120.834,505.57 113.834,509.236 107,511.5C 106.581,512.672 105.915,513.672 105,514.5C 103.667,514.5 102.333,514.5 101,514.5C 90.174,520.687 79.0073,527.021 67.5,533.5C 64.8333,531.5 62.5,529.167 60.5,526.5C 62.2912,525.517 63.7912,524.184 65,522.5C 67.0902,523.791 68.4236,523.124 69,520.5C 69.7175,521.451 70.5509,521.617 71.5,521C 72.0353,518.891 73.0353,518.391 74.5,519.5C 75.8498,518.05 77.5165,517.383 79.5,517.5C 79.3505,516.448 79.5172,515.448 80,514.5C 80.9745,516.878 81.6411,516.544 82,513.5C 82.9745,515.878 83.6411,515.544 84,512.5C 84.7175,513.451 85.5509,513.617 86.5,513C 89.7281,510.828 92.8948,508.662 96,506.5C 97,506.833 98,507.167 99,507.5C 101,505.5 103,503.5 105,501.5C 105.333,502.167 105.667,502.833 106,503.5C 106.359,500.456 107.026,500.122 108,502.5C 110.619,500.017 113.619,498.017 117,496.5C 117.333,496.833 117.667,497.167 118,497.5C 121.593,495.185 124.926,492.518 128,489.5C 128.333,490.167 128.667,490.833 129,491.5C 129.359,488.456 130.026,488.122 131,490.5C 131.359,487.456 132.026,487.122 133,489.5C 133.359,486.456 134.026,486.122 135,488.5C 135.359,485.456 136.026,485.122 137,487.5C 140,485.167 143,482.833 146,480.5C 146.333,481.167 146.667,481.833 147,482.5C 149,480.5 151,478.5 153,476.5C 153.667,479.167 154.333,479.167 155,476.5C 156.011,477.337 157.178,477.67 158.5,477.5 Z"/></g>
<g><path style="opacity:1" fill="#eb6048" d="M 164.5,483.5 C 167.859,486.529 171.192,489.529 174.5,492.5C 173.127,492.343 171.793,492.51 170.5,493C 141.657,508.255 112.657,523.255 83.5,538C 82.2381,540.276 80.5714,542.109 78.5,543.5C 74.2092,540.877 70.5425,537.544 67.5,533.5C 79.0073,527.021 90.174,520.687 101,514.5C 102.333,514.5 103.667,514.5 105,514.5C 105.915,513.672 106.581,512.672 107,511.5C 113.834,509.236 120.834,505.57 128,500.5C 128.333,500.833 128.667,501.167 129,501.5C 130.101,499.606 131.434,498.939 133,499.5C 136.18,496.989 139.513,494.655 143,492.5C 143.333,492.833 143.667,493.167 144,493.5C 150.131,488.684 156.964,485.351 164.5,483.5 Z"/></g>
<g><path style="opacity:1" fill="#fbc15f" d="M 565.5,476.5 C 562.945,488.191 558.278,498.858 551.5,508.5C 549.05,510.229 546.383,511.729 543.5,513C 544.167,513.333 544.833,513.667 545.5,514C 538.802,517.349 533.469,520.016 529.5,522C 525.893,523.131 522.226,524.464 518.5,526C 519.167,526.333 519.833,526.667 520.5,527C 512.929,531.303 505.263,534.637 497.5,537C 498.167,537.333 498.833,537.667 499.5,538C 491.264,542.635 482.931,546.301 474.5,549C 475.167,549.333 475.833,549.667 476.5,550C 469.594,553.973 462.594,556.973 455.5,559C 456.167,559.333 456.833,559.667 457.5,560C 450.392,563.905 443.392,567.072 436.5,569.5C 420.5,569.5 404.5,569.5 388.5,569.5C 390.308,568.606 392.142,567.606 394,566.5C 394.772,566.645 395.439,566.978 396,567.5C 401.422,564.539 406.922,561.706 412.5,559C 413.833,558.333 413.833,557.667 412.5,557C 414.896,556.121 417.229,555.454 419.5,555C 419.167,554.667 418.833,554.333 418.5,554C 419.672,553.581 420.672,552.915 421.5,552C 423.126,552.195 424.793,552.195 426.5,552C 429.339,550.08 432.339,548.413 435.5,547C 436.833,546.333 436.833,545.667 435.5,545C 447.09,540.88 458.423,535.546 469.5,529C 468.833,528.667 468.167,528.333 467.5,528C 473.723,526.914 479.723,524.58 485.5,521C 484.833,520.667 484.167,520.333 483.5,520C 485.856,517.629 488.523,516.796 491.5,517.5C 507.167,509.333 522.833,501.167 538.5,493C 539.833,492.333 539.833,491.667 538.5,491C 548.382,486.415 557.382,481.581 565.5,476.5 Z"/></g>
<g><path style="opacity:1" fill="#ed6742" d="M 174.5,492.5 C 177.81,494.482 180.81,496.815 183.5,499.5C 182.668,500.329 183.001,501.162 184.5,502C 152.916,518.289 121.582,534.789 90.5,551.5C 85.8033,549.822 81.8033,547.156 78.5,543.5C 80.5714,542.109 82.2381,540.276 83.5,538C 112.657,523.255 141.657,508.255 170.5,493C 171.793,492.51 173.127,492.343 174.5,492.5 Z"/></g>
<g><path style="opacity:1" fill="#ef6e3d" d="M 183.5,499.5 C 187.173,501 190.506,503 193.5,505.5C 162.594,522.195 130.928,538.695 98.5,555C 99.056,555.383 99.3893,555.883 99.5,556.5C 96.0078,555.59 93.0078,553.924 90.5,551.5C 121.582,534.789 152.916,518.289 184.5,502C 183.001,501.162 182.668,500.329 183.5,499.5 Z"/></g>
<g><path style="opacity:1" fill="#f07338" d="M 193.5,505.5 C 197.362,507.262 201.028,509.262 204.5,511.5C 203.36,512.801 202.027,513.968 200.5,515C 170.635,530.766 140.635,546.266 110.5,561.5C 106.407,560.618 102.74,558.951 99.5,556.5C 99.3893,555.883 99.056,555.383 98.5,555C 130.928,538.695 162.594,522.195 193.5,505.5 Z"/></g>
<g><path style="opacity:1" fill="#fcca68" d="M 551.5,508.5 C 525.042,550.57 486.709,570.903 436.5,569.5C 443.392,567.072 450.392,563.905 457.5,560C 456.833,559.667 456.167,559.333 455.5,559C 462.594,556.973 469.594,553.973 476.5,550C 475.833,549.667 475.167,549.333 474.5,549C 482.931,546.301 491.264,542.635 499.5,538C 498.833,537.667 498.167,537.333 497.5,537C 505.263,534.637 512.929,531.303 520.5,527C 519.833,526.667 519.167,526.333 518.5,526C 522.226,524.464 525.893,523.131 529.5,522C 533.469,520.016 538.802,517.349 545.5,514C 544.833,513.667 544.167,513.333 543.5,513C 546.383,511.729 549.05,510.229 551.5,508.5 Z"/></g>
<g><path style="opacity:1" fill="#f27a32" d="M 204.5,511.5 C 211.244,514.518 217.911,517.518 224.5,520.5C 222.738,520.643 221.071,520.309 219.5,519.5C 189.833,535 160.167,550.5 130.5,566C 131.056,566.383 131.389,566.883 131.5,567.5C 124.094,566.568 117.094,564.568 110.5,561.5C 140.635,546.266 170.635,530.766 200.5,515C 202.027,513.968 203.36,512.801 204.5,511.5 Z"/></g>
<g><path style="opacity:1" fill="#f37f2d" d="M 224.5,520.5 C 226.786,520.595 228.786,521.262 230.5,522.5C 201.639,537.844 172.639,553.011 143.5,568C 145.382,568.198 147.048,568.698 148.5,569.5C 142.731,569.563 137.064,568.896 131.5,567.5C 131.389,566.883 131.056,566.383 130.5,566C 160.167,550.5 189.833,535 219.5,519.5C 221.071,520.309 222.738,520.643 224.5,520.5 Z"/></g>
<g><path style="opacity:1" fill="#f4852a" d="M 230.5,522.5 C 238.193,524.039 245.859,525.705 253.5,527.5C 253.53,528.497 253.03,529.164 252,529.5C 226.407,542.713 200.907,556.046 175.5,569.5C 166.5,569.5 157.5,569.5 148.5,569.5C 147.048,568.698 145.382,568.198 143.5,568C 172.639,553.011 201.639,537.844 230.5,522.5 Z"/></g>
<g><path style="opacity:1" fill="#f89f41" d="M 353.5,527.5 C 354.552,527.351 355.552,527.517 356.5,528C 356.273,529.135 355.94,530.302 355.5,531.5C 329.584,544.083 304.918,556.749 281.5,569.5C 272.833,569.5 264.167,569.5 255.5,569.5C 277.781,557.033 300.115,545.199 322.5,534C 321.142,533.066 319.808,532.232 318.5,531.5C 330.261,530.891 341.928,529.557 353.5,527.5 Z"/></g>
<g><path style="opacity:1" fill="#f68c2f" d="M 253.5,527.5 C 257.476,528.295 261.476,528.962 265.5,529.5C 267.042,530.141 268.376,531.141 269.5,532.5C 268.478,533.354 267.645,534.354 267,535.5C 265.984,534.366 265.317,534.699 265,536.5C 263.984,535.366 263.317,535.699 263,537.5C 262,537.5 261,537.5 260,537.5C 259.424,540.124 258.09,540.791 256,539.5C 255,541.167 253.667,542.5 252,543.5C 250.251,542.701 248.918,543.368 248,545.5C 246.984,544.366 246.317,544.699 246,546.5C 244.984,545.366 244.317,545.699 244,547.5C 243,547.5 242,547.5 241,547.5C 240.424,550.124 239.09,550.791 237,549.5C 236,550.5 235,551.5 234,552.5C 232.984,551.366 232.317,551.699 232,553.5C 231.667,553.167 231.333,552.833 231,552.5C 230.558,554.679 229.558,555.345 228,554.5C 219.162,560.822 209.996,565.822 200.5,569.5C 192.167,569.5 183.833,569.5 175.5,569.5C 200.907,556.046 226.407,542.713 252,529.5C 253.03,529.164 253.53,528.497 253.5,527.5 Z"/></g>
<g><path style="opacity:1" fill="#f69335" d="M 265.5,529.5 C 271.731,531.006 278.064,531.673 284.5,531.5C 290.319,532.328 296.319,532.828 302.5,533C 285.028,540.637 268.528,549.137 253,558.5C 252.667,558.167 252.333,557.833 252,557.5C 245.101,562.17 237.935,566.17 230.5,569.5C 220.5,569.5 210.5,569.5 200.5,569.5C 209.996,565.822 219.162,560.822 228,554.5C 229.558,555.345 230.558,554.679 231,552.5C 231.333,552.833 231.667,553.167 232,553.5C 232.317,551.699 232.984,551.366 234,552.5C 235,551.5 236,550.5 237,549.5C 239.09,550.791 240.424,550.124 241,547.5C 242,547.5 243,547.5 244,547.5C 244.317,545.699 244.984,545.366 246,546.5C 246.317,544.699 246.984,544.366 248,545.5C 248.918,543.368 250.251,542.701 252,543.5C 253.667,542.5 255,541.167 256,539.5C 258.09,540.791 259.424,540.124 260,537.5C 261,537.5 262,537.5 263,537.5C 263.317,535.699 263.984,535.366 265,536.5C 265.317,534.699 265.984,534.366 267,535.5C 267.645,534.354 268.478,533.354 269.5,532.5C 268.376,531.141 267.042,530.141 265.5,529.5 Z"/></g>
<g><path style="opacity:1" fill="#f79a3e" d="M 284.5,531.5 C 295.833,531.5 307.167,531.5 318.5,531.5C 319.808,532.232 321.142,533.066 322.5,534C 300.115,545.199 277.781,557.033 255.5,569.5C 247.167,569.5 238.833,569.5 230.5,569.5C 237.935,566.17 245.101,562.17 252,557.5C 252.333,557.833 252.667,558.167 253,558.5C 268.528,549.137 285.028,540.637 302.5,533C 296.319,532.828 290.319,532.328 284.5,531.5 Z"/></g>
</svg>
