<?xml version="1.0" encoding="UTF-8"?>
<svg version="1.1" xmlns="http://www.w3.org/2000/svg" width="512" height="512">
<path d="M0 0 C1.17432156 -0.00226556 2.34864312 -0.00453111 3.55855018 -0.00686532 C6.78228166 -0.0120597 10.00597761 -0.01285727 13.22971189 -0.01167095 C16.72066028 -0.01146533 20.21160062 -0.01700095 23.70254517 -0.02172852 C30.52859954 -0.03000089 37.35464528 -0.0327818 44.18070426 -0.03334089 C49.73471648 -0.03381767 55.28872587 -0.03588046 60.8427372 -0.03904152 C76.62293276 -0.04783871 92.40312156 -0.05246235 108.18331959 -0.05171105 C109.03232318 -0.05167109 109.88132677 -0.05163113 110.75605774 -0.05158997 C111.6061095 -0.05154909 112.45616126 -0.0515082 113.33197216 -0.05146609 C127.09990429 -0.05105986 140.86780905 -0.06062587 154.63573327 -0.07472833 C168.80542269 -0.08912669 182.9750988 -0.09599662 197.14479572 -0.09513456 C205.08677345 -0.09480378 213.02872248 -0.0974981 220.97069359 -0.10831261 C227.73356912 -0.11746326 234.49640294 -0.11955566 241.25928202 -0.11280318 C244.70242873 -0.10956087 248.14549561 -0.1093973 251.58863449 -0.11815643 C276.31702007 -0.1695118 299.02884899 -0.04814842 319.73774719 15.13371277 C320.35649719 15.56941589 320.97524719 16.00511902 321.61274719 16.45402527 C335.04115978 26.83617759 343.40497967 43.88006193 346.73774719 60.13371277 C347.69221992 67.87462124 347.8825755 75.56745199 347.87145996 83.35836792 C347.87372552 84.54070772 347.87599107 85.72304753 347.87832528 86.94121581 C347.88352594 90.19194029 347.88431613 93.4426296 347.88313091 96.69335687 C347.88292552 100.21157047 347.88845873 103.72977605 347.89318848 107.24798584 C347.90146593 114.12932137 347.904242 121.01064833 347.90480085 127.89198842 C347.9052774 133.49036953 347.90733906 139.08874784 347.91050148 144.68712807 C347.91930018 160.58897249 347.92392209 176.49081019 347.92317101 192.39265706 C347.92311107 193.67636562 347.92311107 193.67636562 347.92304993 194.98600769 C347.92300905 195.84286849 347.92296817 196.69972929 347.92292605 197.58255557 C347.92251981 211.4611577 347.93208566 225.33973267 347.94618829 239.21832695 C347.9605826 253.49759108 347.9674568 267.77684198 347.96659452 282.05611354 C347.9662636 290.06123141 347.9689644 298.06632081 347.97977257 306.07143211 C347.98891787 312.88815915 347.99101995 319.70484481 347.98426314 326.52157535 C347.98101813 329.99294471 347.9808673 333.46423485 347.98961639 336.93559647 C348.0400019 361.41769602 347.76440339 383.63652274 332.73774719 404.13371277 C332.30204407 404.75246277 331.86634094 405.37121277 331.41743469 406.00871277 C321.06817572 419.39458065 303.97148307 427.89029218 287.73774719 431.13371277 C279.65053733 432.04269206 271.6065643 432.27914927 263.47549438 432.26742554 C261.71401205 432.27082387 261.71401205 432.27082387 259.91694421 432.27429086 C256.69321272 432.27948524 253.46951677 432.28028281 250.24578249 432.27909648 C246.7548341 432.27889086 243.26389377 432.28442649 239.77294922 432.28915405 C232.94689484 432.29742643 226.1208491 432.30020734 219.29479013 432.30076643 C213.74077791 432.30124321 208.18676851 432.303306 202.63275719 432.30646706 C186.85256162 432.31526425 171.07237283 432.31988789 155.29217479 432.31913658 C154.4431712 432.31909663 153.59416762 432.31905667 152.71943665 432.3190155 C151.86938489 432.31897462 151.01933313 432.31893374 150.14352223 432.31889162 C136.37559009 432.3184854 122.60768534 432.32805141 108.83976112 432.34215387 C94.67007169 432.35655222 80.50039559 432.36342216 66.33069867 432.36256009 C58.38872093 432.36222932 50.4467719 432.36492364 42.5048008 432.37573814 C35.74192526 432.3848888 28.97909145 432.3869812 22.21621237 432.38022872 C18.77306566 432.37698641 15.32999878 432.37682283 11.88685989 432.38558197 C-12.84152569 432.43693734 -35.5533546 432.31557395 -56.26225281 417.13371277 C-56.88100281 416.69800964 -57.49975281 416.26230652 -58.13725281 415.81340027 C-71.56566539 405.43124795 -79.92948529 388.3873636 -83.26225281 372.13371277 C-84.21672554 364.3928043 -84.40708112 356.69997355 -84.39596558 348.90905762 C-84.39823113 347.72671781 -84.40049669 346.54437801 -84.4028309 345.32620972 C-84.40803155 342.07548525 -84.40882175 338.82479593 -84.40763652 335.57406867 C-84.40743114 332.05585506 -84.41296435 328.53764949 -84.41769409 325.0194397 C-84.42597155 318.13810417 -84.42874762 311.25677721 -84.42930647 304.37543712 C-84.42978302 298.777056 -84.43184468 293.1786777 -84.4350071 287.58029747 C-84.44380579 271.67845305 -84.44842771 255.77661535 -84.44767662 239.87476847 C-84.44763667 239.01896277 -84.44759671 238.16315706 -84.44755554 237.28141785 C-84.44751466 236.42455705 -84.44747378 235.56769625 -84.44743166 234.68486997 C-84.44702543 220.80626784 -84.45659128 206.92769287 -84.47069391 193.04909859 C-84.48508821 178.76983446 -84.49196241 164.49058356 -84.49110013 150.211312 C-84.49076921 142.20619412 -84.49347001 134.20110473 -84.50427818 126.19599342 C-84.51342349 119.37926638 -84.51552557 112.56258073 -84.50876876 105.74585018 C-84.50552375 102.27448083 -84.50537292 98.80319069 -84.51412201 95.33182907 C-84.56450752 70.84972952 -84.28890901 48.63090279 -69.26225281 28.13371277 C-68.60869812 27.20558777 -68.60869812 27.20558777 -67.94194031 26.25871277 C-57.59268134 12.87284488 -40.49598868 4.37713336 -24.26225281 1.13371277 C-16.17504295 0.22473348 -8.13106992 -0.01172373 0 0 Z M11.73774719 94.13371277 C13.66037586 98.12732443 16.08811512 101.6895487 18.61274719 105.32121277 C19.09960999 106.02536316 19.58647278 106.72951355 20.08808899 107.45500183 C24.54123409 113.8818696 29.05222869 120.26766629 33.56977844 126.64933777 C36.9765963 131.46524712 40.35785799 136.29888291 43.73774719 141.13371277 C50.04460866 150.15251603 56.3842099 159.14775273 62.73774719 168.13371277 C69.09128544 177.11967415 75.43065797 186.11506771 81.73774719 195.13371277 C86.28931697 201.64144358 90.84839817 208.14372956 95.42524719 214.63371277 C95.9183136 215.33367371 96.41138 216.03363464 96.91938782 216.75480652 C97.3789386 217.40578308 97.83848938 218.05675964 98.31196594 218.72746277 C98.73139465 219.32945496 99.15082336 219.93144714 99.58296204 220.55168152 C100.80449009 222.28398658 100.80449009 222.28398658 102.69477844 224.28996277 C103.73774719 226.13371277 103.73774719 226.13371277 103.24165344 228.53215027 C101.4251777 231.67441739 99.1842517 234.17068786 96.67524719 236.75871277 C93.09531658 240.55414002 89.63873564 244.38009724 86.36274719 248.44621277 C81.19888308 254.85271798 75.78625852 261.03211265 70.38423157 267.23722839 C67.80137336 270.21226436 65.23714288 273.2031236 62.67524719 276.19621277 C62.18508118 276.76887878 61.69491516 277.3415448 61.18989563 277.93156433 C60.2018586 279.08611715 59.21390271 280.24073943 58.22602844 281.39543152 C56.7210267 283.15324195 55.21407017 284.90935722 53.70649719 286.66496277 C48.40787796 292.83659666 43.12953279 299.02426312 37.8820343 305.23942566 C34.51860585 309.21975375 31.1324132 313.18000887 27.73774719 317.13371277 C25.73704646 319.46644608 23.73721907 321.79992612 21.73774719 324.13371277 C21.2098761 324.74940125 20.682005 325.36508972 20.13813782 325.99943542 C18.5853384 327.81276848 17.03606946 329.62905648 15.48774719 331.44621277 C14.77038391 332.28249207 14.77038391 332.28249207 14.03852844 333.13566589 C11.74533778 335.35144137 11.74533778 335.35144137 10.73774719 338.13371277 C24.80903838 339.74673327 24.80903838 339.74673327 38.01899719 336.29386902 C40.27826444 333.70307886 41.99142255 331.09177287 43.73774719 328.13371277 C45.21013797 326.27813294 46.71089836 324.44474666 48.23774719 322.63371277 C49.35149719 321.25699402 49.35149719 321.25699402 50.48774719 319.85246277 C52.67276288 317.21223547 54.9294611 314.66641557 57.23774719 312.13371277 C60.2605714 308.8138179 63.16286881 305.43607165 65.98774719 301.94621277 C71.20293235 295.50659284 76.65106471 289.27915873 82.09126282 283.03019714 C85.17057344 279.48332808 88.22400536 275.91433153 91.27680969 272.34465027 C93.81417911 269.37767333 96.3563422 266.41514205 98.90962219 263.46183777 C103.9182594 257.65951588 108.85798042 251.86494118 113.43305969 245.70793152 C114.73774719 244.13371277 114.73774719 244.13371277 116.73774719 243.13371277 C116.96977844 243.82336121 117.20180969 244.51300964 117.44087219 245.22355652 C119.0132269 248.75188259 121.16370882 251.64217477 123.48774719 254.69621277 C127.94738331 260.66700841 132.28830969 266.70770946 136.55024719 272.82121277 C137.13693176 273.66216492 137.72361633 274.50311707 138.32807922 275.36955261 C139.52940766 277.09268667 140.73025112 278.81615894 141.93061829 280.53996277 C144.90191716 284.80463168 147.88212201 289.06305909 150.86274719 293.32121277 C151.44371155 294.15136902 152.0246759 294.98152527 152.62324524 295.83683777 C157.80275892 303.23427373 163.00822725 310.61316898 168.22163391 317.98674011 C169.85581055 320.30090266 171.48651202 322.61748741 173.11665344 324.93449402 C173.67014465 325.72058044 174.22363586 326.50666687 174.79389954 327.3165741 C175.86138295 328.83280952 176.92814382 330.34955395 177.99409485 331.86686707 C180.19110071 335.14252539 180.19110071 335.14252539 182.73774719 338.13371277 C185.20218776 338.22871825 187.63849346 338.25929262 190.10322571 338.24723816 C191.25924286 338.2474572 191.25924286 338.2474572 192.43861389 338.24768066 C194.99798858 338.24698137 197.5572914 338.23918822 200.11665344 338.23136902 C201.88642334 338.2295049 203.65619376 338.22808097 205.42596436 338.2270813 C210.09326085 338.22325565 214.76052643 338.21342497 219.42781067 338.20237732 C224.18671755 338.1921642 228.9456294 338.18758389 233.70454407 338.18254089 C243.04895872 338.17180274 252.39335039 338.15472576 261.73774719 338.13371277 C260.50045559 334.95196034 259.3003356 332.25946065 257.26118469 329.51652527 C256.763526 328.83904236 256.26586731 328.16155945 255.75312805 327.46354675 C255.21180237 326.73595154 254.67047668 326.00835632 254.11274719 325.25871277 C248.862512 318.09957146 243.73012534 310.86960929 238.67524719 303.57121277 C232.54764722 294.73302009 226.37933987 285.9258661 220.164505 277.14884949 C212.72989334 266.64828742 205.32702035 256.12603687 197.9535675 245.58244324 C192.73180352 238.11846014 187.4818832 230.67466634 182.22309875 223.23674011 C180.68156281 221.0541644 179.14291861 218.86957396 177.60493469 216.68449402 C176.8281134 215.58222473 176.8281134 215.58222473 176.03559875 214.45768738 C175.01714712 213.01081138 174.00081047 211.56244394 172.98677063 210.11247253 C170.76827175 206.95129713 168.52991407 203.82909538 166.13618469 200.79777527 C165.38595032 199.83613464 164.63571594 198.87449402 163.86274719 197.88371277 C163.20532532 197.07418152 162.54790344 196.26465027 161.87055969 195.43058777 C160.73774719 193.13371277 160.73774719 193.13371277 161.25727844 190.65715027 C162.98205231 187.71729824 164.946951 185.47617513 167.30024719 183.00871277 C170.68373478 179.40014732 173.94488665 175.7366601 177.05024719 171.88371277 C182.23982759 165.46069337 187.67015275 159.25723298 193.09126282 153.03019714 C195.67412128 150.05516088 198.23831634 147.06427217 200.80024719 144.07121277 C201.29113831 143.49782166 201.78202942 142.92443054 202.28779602 142.33366394 C203.27659923 141.17840759 204.26528768 140.02305301 205.25386047 138.86759949 C207.2467019 136.53901116 209.24139137 134.21201015 211.23628235 131.88517761 C212.23486902 130.7203222 213.23324248 129.55528398 214.23139954 128.39006042 C216.76486997 125.43282754 219.30132344 122.47824219 221.84321594 119.52824402 C232.58697815 107.07197844 232.58697815 107.07197844 242.73774719 94.13371277 C228.23368934 92.11787719 228.23368934 92.11787719 215.01118469 96.41886902 C212.11522056 99.33450348 209.95600606 102.68756107 207.73774719 106.13371277 C206.30123159 107.92229034 204.84325819 109.6938789 203.36274719 111.44621277 C202.63958313 112.34340027 201.91641907 113.24058777 201.17134094 114.16496277 C196.69574156 119.62476298 192.01939985 124.91297586 187.38423157 130.23722839 C183.30872195 134.93155798 179.27590873 139.66270018 175.2348175 144.38664246 C173.70487961 146.17206901 172.17103919 147.95407422 170.63618469 149.73527527 C165.1899488 156.06120858 159.81287237 162.42401353 154.57759094 168.92668152 C152.73774719 171.13371277 152.73774719 171.13371277 150.99165344 172.80949402 C149.5085584 174.07180535 149.5085584 174.07180535 149.73774719 176.13371277 C149.07774719 176.13371277 148.41774719 176.13371277 147.73774719 176.13371277 C147.52634094 175.47500183 147.31493469 174.81629089 147.09712219 174.13761902 C145.24253025 170.03939718 142.66233382 166.67211582 139.98774719 163.07121277 C138.80286305 161.45366764 137.61931555 159.83514271 136.43696594 158.21574402 C135.82514465 157.37865906 135.21332336 156.5415741 134.58296204 155.67912292 C131.60645523 151.57313457 128.70121474 147.41826652 125.80024719 143.25871277 C125.221297 142.42936218 124.6423468 141.6000116 124.04585266 140.74552917 C122.86770574 139.05701487 121.68997226 137.36821201 120.51264954 135.67912292 C115.83386229 128.96921429 111.14078622 122.2692736 106.445755 115.57072449 C105.29361438 113.92683259 104.14193194 112.28261949 102.99067688 110.6381073 C101.32512902 108.2601639 99.65684608 105.88416454 97.98774719 103.50871277 C97.48614075 102.79175232 96.9845343 102.07479187 96.46772766 101.33610535 C94.66878281 98.78055098 92.95231582 96.3482814 90.73774719 94.13371277 C88.20798184 93.94590527 85.78867314 93.8817937 83.25874329 93.90666199 C82.1025071 93.90622391 82.1025071 93.90622391 80.9229126 93.90577698 C78.36888974 93.90717303 75.81515674 93.92274697 73.26118469 93.93840027 C71.49284525 93.94212943 69.72450374 93.94497686 67.9561615 93.94697571 C63.29705624 93.95461984 58.63807525 93.97427499 53.97901917 93.99638367 C49.22673728 94.01682533 44.47443535 94.02597382 39.72212219 94.03605652 C30.39394253 94.05752017 21.06585519 94.09166549 11.73774719 94.13371277 Z " fill="#218AE5" transform="translate(124.26225280761719,39.86628723144531)"/>
<path d="M0 0 C4.39194528 -0.2992677 8.7783497 -0.51546389 13.17749023 -0.65917969 C14.66910176 -0.7191213 16.16001994 -0.80072554 17.64916992 -0.90527344 C29.94618348 -1.74623581 29.94618348 -1.74623581 34.80395508 2.3840332 C37.13954272 5.4814137 39.08449772 8.62906052 41 12 C42.15452094 13.66284893 43.32640471 15.313849 44.51953125 16.94921875 C45.61916939 18.52726663 46.71680274 20.10671327 47.8125 21.6875 C49.02445378 23.42728247 50.23669828 25.16686244 51.44921875 26.90625 C52.34326416 28.19015625 52.34326416 28.19015625 53.25537109 29.5 C55.86465473 33.23902385 58.49316899 36.96432654 61.125 40.6875 C61.61202393 41.37674561 62.09904785 42.06599121 62.60083008 42.77612305 C63.57784202 44.15861361 64.55497354 45.54101968 65.53222656 46.92333984 C68.02320986 50.44767516 70.51144903 53.97394701 73 57.5 C73.99998722 58.91667568 74.99998722 60.33334236 76 61.75 C102 98.58333333 128 135.41666667 154 172.25 C154.49588623 172.95229736 154.99177246 173.65459473 155.50268555 174.37817383 C156.4945276 175.78370119 157.48558636 177.18978165 158.47583008 178.59643555 C161.09422625 182.31363453 163.72871972 186.01802318 166.38671875 189.70703125 C166.93908203 190.47789062 167.49144531 191.24875 168.06054688 192.04296875 C169.12067788 193.52180696 170.18555971 194.99725457 171.25585938 196.46875 C171.73216797 197.13519531 172.20847656 197.80164063 172.69921875 198.48828125 C173.12033936 199.07134033 173.54145996 199.65439941 173.9753418 200.25512695 C175.08899658 202.15155077 175.57038993 203.85253857 176 206 C149.01400935 208.82234818 149.01400935 208.82234818 141.43408203 204.55566406 C137.29313987 200.62810877 134.84743571 195.7220876 132.37060547 190.63916016 C130.0115442 186.09668557 126.93950837 182.0704957 123.9375 177.9375 C122.75812929 176.25511472 121.58230884 174.57023474 120.41015625 172.8828125 C117.24668989 168.34877858 114.06546497 163.82756596 110.875 159.3125 C110.38765381 158.622771 109.90030762 157.93304199 109.39819336 157.22241211 C108.42149396 155.84041899 107.44468782 154.45850131 106.46777344 153.07666016 C103.97679014 149.55232484 101.48855097 146.02605299 99 142.5 C98.00001278 141.08332432 97.00001278 139.66665764 96 138.25 C69 100 69 100 42 61.75 C41.50516113 61.0489917 41.01032227 60.3479834 40.50048828 59.62573242 C39.49880957 58.20666042 38.4971821 56.78755225 37.49560547 55.3684082 C35.02170505 51.86324726 32.54696634 48.35868485 30.0703125 44.85546875 C22.91492912 34.73145098 15.78466243 24.58988049 8.69677734 14.41845703 C7.48304087 12.68848963 6.25811452 10.9663515 5.02587891 9.24951172 C4.38440918 8.35119629 3.74293945 7.45288086 3.08203125 6.52734375 C2.49268799 5.7087085 1.90334473 4.89007324 1.29614258 4.04663086 C0 2 0 2 0 0 Z " fill="#218BE6" transform="translate(173,153)"/>
</svg>
