<?xml version="1.0" encoding="UTF-8"?>
<svg version="1.1" xmlns="http://www.w3.org/2000/svg" width="512" height="512">
<path d="M0 0 C1.26557084 -0.00538554 2.53114169 -0.01077108 3.83506316 -0.01631981 C7.31355517 -0.03066037 10.79180796 -0.02656582 14.27031243 -0.019153 C18.03527184 -0.01439507 21.80018142 -0.02695429 25.56512451 -0.03717041 C32.92794743 -0.05431314 40.29068484 -0.05520778 47.65352253 -0.04995751 C53.64234215 -0.04590579 59.63113663 -0.04737123 65.61995506 -0.05270576 C66.47436032 -0.05345419 67.32876559 -0.05420261 68.20906192 -0.05497371 C69.94514755 -0.05650529 71.68123317 -0.05804364 73.41731878 -0.05958868 C89.67607904 -0.07329758 105.93479111 -0.06788757 122.19355025 -0.05640347 C137.04277964 -0.04647479 151.89188435 -0.05940829 166.74109451 -0.08333766 C182.01593741 -0.10776602 197.29072233 -0.11732723 212.56558436 -0.11068493 C221.13015315 -0.10720074 229.69462613 -0.10937158 238.25918007 -0.12693596 C245.55062776 -0.14170486 252.84191219 -0.14223257 260.13335685 -0.12486505 C263.84771449 -0.11639066 267.56178108 -0.11411722 271.27612305 -0.1295166 C299.96741149 -0.24005149 299.96741149 -0.24005149 311.88908386 4.38768005 C313.03772022 4.83011472 313.03772022 4.83011472 314.20956135 5.28148746 C332.120723 12.96979015 345.9235184 28.30264883 353.12211984 46.21730644 C356.33511495 55.30951891 357.32643895 63.90247627 357.27676392 73.49859619 C357.28484222 75.39695246 357.28484222 75.39695246 357.29308373 77.33365935 C357.30742428 80.81215136 357.30332974 84.29040415 357.29591691 87.76890862 C357.29115898 91.53386803 357.30371821 95.29877762 357.31393433 99.0637207 C357.33107706 106.42654362 357.3319717 113.78928103 357.32672142 121.15211872 C357.3226697 127.14093834 357.32413515 133.12973282 357.32946968 139.11855125 C357.3302181 139.97295652 357.33096652 140.82736178 357.33173763 141.70765811 C357.33326921 143.44374374 357.33480755 145.17982936 357.33635259 146.91591498 C357.35006149 163.17467523 357.34465149 179.4333873 357.33316738 195.69214644 C357.32323871 210.54137583 357.33617221 225.39048054 357.36010157 240.2396907 C357.38452993 255.5145336 357.39409115 270.78931852 357.38744885 286.06418055 C357.38396466 294.62874934 357.3861355 303.19322232 357.40369987 311.75777626 C357.41846877 319.04922396 357.41899649 326.34050839 357.40162896 333.63195304 C357.39315457 337.34631069 357.39088114 341.06037727 357.40628052 344.77471924 C357.51681541 373.46600768 357.51681541 373.46600768 352.88908386 385.38768005 C352.44664919 386.53631641 352.44664919 386.53631641 351.99527645 387.70815754 C344.30697377 405.61931919 328.97411508 419.42211459 311.05945748 426.62071604 C301.96724501 429.83371114 293.37428765 430.82503514 283.77816772 430.77536011 C282.51259688 430.78074565 281.24702604 430.78613118 279.94310457 430.79167992 C276.46461256 430.80602048 272.98635977 430.80192593 269.5078553 430.79451311 C265.74289589 430.78975517 261.9779863 430.8023144 258.21304321 430.81253052 C250.85022029 430.82967325 243.48748288 430.83056789 236.1246452 430.82531761 C230.13582557 430.82126589 224.1470311 430.82273134 218.15821266 430.82806587 C216.87660477 430.82918851 216.87660477 430.82918851 215.56910581 430.83033382 C213.83302018 430.8318654 212.09693456 430.83340375 210.36084894 430.83494879 C194.10208868 430.84865768 177.84337662 430.84324768 161.58461747 430.83176357 C146.73538809 430.8218349 131.88628338 430.8347684 117.03707322 430.85869776 C101.76223032 430.88312613 86.48744539 430.89268734 71.21258336 430.88604504 C62.64801458 430.88256085 54.08354159 430.88473169 45.51898766 430.90229607 C38.22753996 430.91706496 30.93625553 430.91759268 23.64481088 430.90022516 C19.93045323 430.89175077 16.21638665 430.88947733 12.50204468 430.90487671 C-16.18924376 431.0154116 -16.18924376 431.0154116 -28.11091614 426.38768005 C-28.87667371 426.09272361 -29.64243128 425.79776716 -30.43139362 425.49387264 C-48.34255527 417.80556996 -62.14535068 402.47271127 -69.34395212 384.55805367 C-72.55694722 375.4658412 -73.54827123 366.87288384 -73.49859619 357.27676392 C-73.50398173 356.01119307 -73.50936727 354.74562223 -73.514916 353.44170076 C-73.52925656 349.96320875 -73.52516201 346.48495596 -73.51774919 343.00645149 C-73.51299126 339.24149208 -73.52555048 335.47658249 -73.5357666 331.7116394 C-73.55290933 324.34881648 -73.55380398 316.98607907 -73.5485537 309.62324139 C-73.54450198 303.63442176 -73.54596742 297.64562729 -73.55130196 291.65680885 C-73.55205038 290.80240359 -73.5527988 289.94799833 -73.5535699 289.067702 C-73.55510148 287.33161637 -73.55663983 285.59553075 -73.55818487 283.85944513 C-73.57189377 267.60068487 -73.56648376 251.34197281 -73.55499966 235.08321366 C-73.54507098 220.23398428 -73.55800448 205.38487957 -73.58193385 190.53566941 C-73.60636221 175.26082651 -73.61592342 159.98604158 -73.60928112 144.71117955 C-73.60579694 136.14661077 -73.60796777 127.58213779 -73.62553215 119.01758385 C-73.64030105 111.72613615 -73.64082876 104.43485172 -73.62346124 97.14340707 C-73.61498685 93.42904942 -73.61271341 89.71498284 -73.62811279 86.00064087 C-73.73864768 57.30935243 -73.73864768 57.30935243 -69.11091614 45.38768005 C-68.81595969 44.62192248 -68.52100325 43.85616491 -68.21710873 43.06720257 C-60.52880604 25.15604092 -45.19594736 11.35324551 -27.28128976 4.15464407 C-18.18907728 0.94164897 -9.59611992 -0.04967503 0 0 Z " fill="#228BE6" transform="translate(114.11091613769531,40.61231994628906)"/>
<path d="M0 0 C10.50026739 -0.37200254 20.99895045 -0.65562553 31.50448322 -0.82899475 C36.38403034 -0.91224541 41.25904752 -1.02494957 46.13598633 -1.20703125 C50.85024447 -1.38192158 55.56017275 -1.47673854 60.27742577 -1.51803589 C62.06927904 -1.5474263 63.86091484 -1.60483706 65.6509037 -1.69168091 C79.28632847 -2.3264286 79.28632847 -2.3264286 83.82053947 1.56074715 C87.1520734 5.38639653 89.63435285 9.61040753 91.97487068 14.09357166 C93.35401964 16.65836872 95.00246407 18.98829008 96.71484375 21.33984375 C97.24932129 22.10321045 97.78379883 22.86657715 98.33447266 23.65307617 C98.86347168 24.40693604 99.3924707 25.1607959 99.9375 25.9375 C100.52321777 26.77321533 101.10893555 27.60893066 101.71240234 28.4699707 C106.9620029 35.95572237 112.23229683 43.42680277 117.51025391 50.89257812 C120.11221644 54.57336157 122.7125689 58.25528146 125.3125 61.9375 C125.81185059 62.64471191 126.31120117 63.35192383 126.82568359 64.08056641 C130.56417488 69.377492 134.2899355 74.6831118 138 80 C140.89874417 78.70735873 142.76602526 77.43512432 144.8125 75.015625 C145.32433838 74.41741943 145.83617676 73.81921387 146.36352539 73.20288086 C146.90356201 72.55843018 147.44359863 71.91397949 148 71.25 C148.57032959 70.5804126 149.14065918 69.9108252 149.72827148 69.22094727 C150.91246558 67.83003844 152.09400398 66.43686448 153.27294922 65.04150391 C155.36547851 62.56797691 157.47575229 60.11009983 159.58789062 57.65332031 C161.07258668 55.92576338 162.55432953 54.19571809 164.03515625 52.46484375 C166.52132293 49.55898788 169.00940173 46.65477971 171.49853516 43.75146484 C172.49712183 42.58660944 173.49549528 41.42157121 174.49365234 40.25634766 C177.02712277 37.29911478 179.56357624 34.34452942 182.10546875 31.39453125 C186.69606553 26.06164678 191.25761398 20.71814055 195.6875 15.25 C196.42355469 14.38246094 197.15960938 13.51492187 197.91796875 12.62109375 C200.06845803 10.04577317 200.06845803 10.04577317 201.67578125 7.09765625 C203.93521196 3.64803292 205.34767324 2.0072881 209 0 C217.25298248 -1.23574828 225.71033617 -0.61126279 234 0 C232.38182825 3.40829937 230.52234036 5.79530758 227.9375 8.5625 C224.66981527 12.12296928 221.53520807 15.7393292 218.5 19.5 C214.88967558 23.96276213 211.11572071 28.22719533 207.25 32.46875 C204.92137947 35.0884481 202.70437053 37.7751531 200.5 40.5 C197.5918662 44.0947765 194.61458668 47.58260628 191.5 51 C188.47717579 54.31989486 185.57487839 57.69764112 182.75 61.1875 C179.14527375 65.63855328 175.44570874 69.99144631 171.6875 74.3125 C171.14222656 74.94091797 170.59695313 75.56933594 170.03515625 76.21679688 C167.21388865 79.46522823 164.38125075 82.70298721 161.53515625 85.9296875 C160.43996977 87.18217416 159.3449127 88.43477399 158.25 89.6875 C157.73655029 90.26346924 157.22310059 90.83943848 156.6940918 91.43286133 C153.34593072 95.25147541 153.34593072 95.25147541 152 100 C152.75968152 101.82107825 152.75968152 101.82107825 154.10546875 103.51171875 C154.82959961 104.51138672 154.82959961 104.51138672 155.56835938 105.53125 C156.10267578 106.2428125 156.63699219 106.954375 157.1875 107.6875 C158.30632256 109.22241359 159.42480283 110.75757674 160.54296875 112.29296875 C161.11966309 113.07591309 161.69635742 113.85885742 162.29052734 114.66552734 C164.90977383 118.24239608 167.45320829 121.87138153 170 125.5 C171.00217524 126.92087555 172.00478066 128.34144777 173.0078125 129.76171875 C173.50313477 130.46345215 173.99845703 131.16518555 174.50878906 131.88818359 C175.98172821 133.97412394 177.45558181 136.05941515 178.9296875 138.14453125 C184.90402057 146.59757697 190.85199034 155.06859593 196.78417969 163.55126953 C202.49790894 171.71846719 208.24560744 179.86142472 214 188 C220.94574133 197.82352839 227.8725417 207.65973585 234.76220703 217.52270508 C237.65489838 221.66116284 240.55740121 225.79195012 243.484375 229.90625 C244.03480469 230.68097656 244.58523438 231.45570313 245.15234375 232.25390625 C246.18901978 233.71133587 247.22795074 235.16716517 248.26953125 236.62109375 C248.73230469 237.27207031 249.19507813 237.92304688 249.671875 238.59375 C250.0750293 239.15771484 250.47818359 239.72167969 250.89355469 240.30273438 C252.09045269 242.13875267 253.03398665 244.03452926 254 246 C243.59504293 246.2787169 233.19098096 246.4915903 222.78304386 246.62174606 C217.94931264 246.68423554 213.1181445 246.76889398 208.28588867 246.90527344 C203.61721828 247.03620304 198.95100293 247.10751523 194.28063774 247.13852692 C192.50417868 247.16060739 190.72784607 247.20373333 188.95244026 247.26876068 C175.06254796 247.75700954 175.06254796 247.75700954 169.97010803 243.41894531 C167.57753358 240.50485412 165.7908684 237.31425633 164 234 C162.87187713 232.37023951 161.72619065 230.75224285 160.55078125 229.15625 C159.4692878 227.60560581 158.38989504 226.05349459 157.3125 224.5 C156.10290924 222.7642918 154.89327247 221.02861565 153.68359375 219.29296875 C153.07499512 218.41817871 152.46639648 217.54338867 151.83935547 216.64208984 C148.85857136 212.3604273 145.86698031 208.08634301 142.875 203.8125 C142.29419678 202.98258545 141.71339355 202.1526709 141.11499023 201.29760742 C135.9293053 193.89125314 130.71792152 186.50323265 125.49853516 179.12060547 C123.9184496 176.88459648 122.33989322 174.64751444 120.76171875 172.41015625 C120.22627441 171.65114014 119.69083008 170.89212402 119.13916016 170.11010742 C118.1243931 168.67155177 117.10973584 167.23291865 116.09521484 165.79418945 C115.63195801 165.13765381 115.16870117 164.48111816 114.69140625 163.8046875 C114.02455811 162.85674316 114.02455811 162.85674316 113.34423828 161.88964844 C112.42182437 160.59297505 111.48719951 159.30492772 110.54248047 158.02441406 C107 153.20405251 107 153.20405251 107 151 C103.09231147 154.80693781 99.49002488 158.79925803 95.9375 162.9375 C95.37168213 163.59355225 94.80586426 164.24960449 94.22290039 164.92553711 C92.4795918 166.94835739 90.73933085 168.97375898 89 171 C88.47921875 171.60618164 87.9584375 172.21236328 87.421875 172.83691406 C84.44014845 176.30855058 81.46329435 179.78432876 78.48828125 183.26171875 C76.98327951 185.01952918 75.47632297 186.77564446 73.96875 188.53125 C69.12649817 194.17132418 64.29624986 199.82072967 59.5 205.5 C53.70284435 212.36444932 47.85362788 219.18370162 42 226 C39.85364087 228.49954926 37.70790942 230.99963558 35.5625 233.5 C35.0785376 234.06323975 34.5945752 234.62647949 34.09594727 235.20678711 C33.63244873 235.74698486 33.1689502 236.28718262 32.69140625 236.84375 C32.22968018 237.36372559 31.7679541 237.88370117 31.29223633 238.41943359 C29.75876131 240.21578811 29.75876131 240.21578811 27.984375 243.3828125 C23.14135888 247.62996014 17.88350289 246.63497215 11.6875 246.375 C10.46998047 246.34792969 9.25246094 246.32085937 7.99804688 246.29296875 C4.99689502 246.22235341 1.99935288 246.12376972 -1 246 C2.54379702 241.13429214 6.18041134 236.56445317 10.3125 232.1875 C14.59702366 227.59465894 18.62329463 222.86073875 22.56640625 217.96875 C27.04200563 212.50894979 31.71834734 207.22073691 36.35351562 201.89648438 C38.93637383 198.92144841 41.50060432 195.93058917 44.0625 192.9375 C44.55266602 192.36483398 45.04283203 191.79216797 45.54785156 191.20214844 C46.5358886 190.04759562 47.52384448 188.89297334 48.51171875 187.73828125 C50.01672049 185.98047082 51.52367703 184.22435554 53.03125 182.46875 C58.32784311 176.29947606 63.6059505 170.11563956 68.84912109 163.90087891 C71.7590171 160.45525232 74.69161185 157.03017594 77.63574219 153.61376953 C82.89359708 147.51048863 88.03105334 141.34271427 93 135 C91.36880043 129.86324111 88.2354497 125.95837511 85.0625 121.6875 C83.87611136 120.06880139 82.69124141 118.44898872 81.5078125 116.828125 C80.91516602 116.01666016 80.32251953 115.20519531 79.71191406 114.36914062 C77.22808077 110.93173072 74.82574625 107.44172455 72.4375 103.9375 C67.20754323 96.27690562 61.86938269 88.69647609 56.50732422 81.12792969 C54.04362118 77.64985459 51.58378722 74.1690515 49.125 70.6875 C48.63523682 69.99406494 48.14547363 69.30062988 47.64086914 68.58618164 C43.14793293 62.2195521 38.6815515 55.83445719 34.21582031 49.44873047 C30.44712723 44.06176515 26.66763202 38.68263712 22.875 33.3125 C22.39281006 32.62937744 21.91062012 31.94625488 21.41381836 31.24243164 C18.86904665 27.63915089 16.3184269 24.04013429 13.76171875 20.4453125 C13.22627441 19.69080811 12.69083008 18.93630371 12.13916016 18.15893555 C11.12638491 16.73198572 10.11188187 15.30625973 9.09521484 13.88208008 C8.63195801 13.22876709 8.16870117 12.5754541 7.69140625 11.90234375 C7.09114624 11.05917603 7.09114624 11.05917603 6.47875977 10.19897461 C4.23025274 6.8553552 2.12178357 3.42500891 0 0 Z " fill="#FCFDFE" transform="translate(134,133)"/>
<path d="M0 0 C26.27186899 -2.34120028 26.27186899 -2.34120028 33.32226562 1.14990234 C36.90726772 4.29763342 38.82002029 8.38614613 40.80957031 12.65527344 C43.03594262 17.04044153 46.05761726 20.90236452 48.9375 24.875 C50.13508308 26.58474268 51.32911532 28.29697819 52.51953125 30.01171875 C55.70503529 34.58191856 58.90976123 39.13818341 62.125 43.6875 C62.85577759 44.72173096 62.85577759 44.72173096 63.60131836 45.77685547 C64.57817403 47.15909731 65.55514286 48.54125919 66.53222656 49.92333984 C69.02320986 53.44767516 71.51144903 56.97394701 74 60.5 C74.99998722 61.91667568 75.99998722 63.33334236 77 64.75 C143 158.25 143 158.25 144.50048828 160.37573242 C145.49880954 161.78999378 146.4971818 163.20421914 147.49560547 164.6184082 C150.02171322 168.19658007 152.54688502 171.77540608 155.0703125 175.35546875 C155.82973145 176.43235962 155.82973145 176.43235962 156.60449219 177.53100586 C157.60826636 178.95463098 158.61153204 180.37861477 159.61425781 181.80297852 C162.04718698 185.25420235 164.49518978 188.69277863 166.9765625 192.109375 C167.44433105 192.75559814 167.91209961 193.40182129 168.39404297 194.06762695 C169.27702476 195.28526425 170.16388187 196.50010374 171.05517578 197.71166992 C174 201.77772224 174 201.77772224 174 204 C147.90189101 206.82441842 147.90189101 206.82441842 140.46533203 202.53955078 C136.33509664 198.58205115 133.83424205 193.67828379 131.33496094 188.58740234 C129.11763798 184.28981846 126.28814997 180.44078155 123.5 176.5 C122.4131014 174.90648923 121.32846034 173.31143628 120.24609375 171.71484375 C116.57695048 166.35275844 112.76891421 161.09611107 108.94750977 155.84204102 C103.0851184 147.77014821 97.38836257 139.58457137 91.68017578 131.40332031 C89.08994234 127.69825521 86.48384623 124.00447372 83.875 120.3125 C83.38765381 119.622771 82.90030762 118.93304199 82.39819336 118.22241211 C81.42149396 116.84041899 80.44468782 115.45850131 79.46777344 114.07666016 C76.97679014 110.55232484 74.48855097 107.02605299 72 103.5 C71.00001278 102.08332432 70.00001278 100.66665764 69 99.25 C55 79.41666667 41 59.58333333 27 39.75 C26.5045166 39.04810547 26.0090332 38.34621094 25.49853516 37.62304688 C24.50326445 36.21299897 23.50814609 34.80284352 22.51318359 33.39257812 C19.94209402 29.7487265 17.368009 26.10704598 14.7890625 22.46875 C0 1.59220183 0 1.59220183 0 0 Z " fill="#238CE6" transform="translate(174,154)"/>
</svg>
