<?xml version="1.0" standalone="no"?>
<!DOCTYPE svg PUBLIC "-//W3C//DTD SVG 20010904//EN"
 "http://www.w3.org/TR/2001/REC-SVG-20010904/DTD/svg10.dtd">
<svg version="1.0" xmlns="http://www.w3.org/2000/svg"
 width="600.000000pt" height="600.000000pt" viewBox="0 0 600.000000 600.000000"
 preserveAspectRatio="xMidYMid meet">

<g transform="translate(0.000000,600.000000) scale(0.100000,-0.100000)"
fill="#000000" stroke="none">
<path d="M0 3000 l0 -3000 3000 0 3000 0 0 3000 0 3000 -3000 0 -3000 0 0
-3000z m2590 1668 c321 -425 586 -776 590 -781 3 -4 316 344 696 773 l689 779
413 1 413 0 -23 -29 c-13 -16 -419 -480 -903 -1031 -484 -551 -880 -1007 -879
-1014 1 -9 670 -897 1901 -2524 l214 -282 -833 0 -834 0 -649 850 c-358 467
-653 850 -656 850 -4 0 -341 -383 -750 -850 l-744 -850 -414 0 -415 0 26 27
c51 57 1884 2168 1891 2180 6 9 -1004 1344 -1930 2551 l-94 122 854 0 854 0
583 -772z"/>
<path d="M1287 4956 c4 -7 678 -889 1498 -1960 l1489 -1946 229 0 c182 0 227
3 220 13 -6 6 -673 888 -1483 1960 l-1473 1947 -244 0 c-204 0 -243 -2 -236
-14z"/>
</g>
</svg>
