<?xml version="1.0" encoding="UTF-8"?>
<svg version="1.1" xmlns="http://www.w3.org/2000/svg" width="432" height="432">
<path d="M0 0 C1.17432156 -0.00226556 2.34864312 -0.00453111 3.55855018 -0.00686532 C6.78228166 -0.0120597 10.00597761 -0.01285727 13.22971189 -0.01167095 C16.72066028 -0.01146533 20.21160062 -0.01700095 23.70254517 -0.02172852 C30.52859954 -0.03000089 37.35464528 -0.0327818 44.18070426 -0.03334089 C49.73471648 -0.03381767 55.28872587 -0.03588046 60.8427372 -0.03904152 C76.62293276 -0.04783871 92.40312156 -0.05246235 108.18331959 -0.05171105 C109.03232318 -0.05167109 109.88132677 -0.05163113 110.75605774 -0.05158997 C111.6061095 -0.05154909 112.45616126 -0.0515082 113.33197216 -0.05146609 C127.09990429 -0.05105986 140.86780905 -0.06062587 154.63573327 -0.07472833 C168.80542269 -0.08912669 182.9750988 -0.09599662 197.14479572 -0.09513456 C205.08677345 -0.09480378 213.02872248 -0.0974981 220.97069359 -0.10831261 C227.73356912 -0.11746326 234.49640294 -0.11955566 241.25928202 -0.11280318 C244.70242873 -0.10956087 248.14549561 -0.1093973 251.58863449 -0.11815643 C276.31702007 -0.1695118 299.02884899 -0.04814842 319.73774719 15.13371277 C320.35649719 15.56941589 320.97524719 16.00511902 321.61274719 16.45402527 C335.04115978 26.83617759 343.40497967 43.88006193 346.73774719 60.13371277 C347.69221992 67.87462124 347.8825755 75.56745199 347.87145996 83.35836792 C347.87372552 84.54070772 347.87599107 85.72304753 347.87832528 86.94121581 C347.88352594 90.19194029 347.88431613 93.4426296 347.88313091 96.69335687 C347.88292552 100.21157047 347.88845873 103.72977605 347.89318848 107.24798584 C347.90146593 114.12932137 347.904242 121.01064833 347.90480085 127.89198842 C347.9052774 133.49036953 347.90733906 139.08874784 347.91050148 144.68712807 C347.91930018 160.58897249 347.92392209 176.49081019 347.92317101 192.39265706 C347.92311107 193.67636562 347.92311107 193.67636562 347.92304993 194.98600769 C347.92300905 195.84286849 347.92296817 196.69972929 347.92292605 197.58255557 C347.92251981 211.4611577 347.93208566 225.33973267 347.94618829 239.21832695 C347.9605826 253.49759108 347.9674568 267.77684198 347.96659452 282.05611354 C347.9662636 290.06123141 347.9689644 298.06632081 347.97977257 306.07143211 C347.98891787 312.88815915 347.99101995 319.70484481 347.98426314 326.52157535 C347.98101813 329.99294471 347.9808673 333.46423485 347.98961639 336.93559647 C348.0400019 361.41769602 347.76440339 383.63652274 332.73774719 404.13371277 C332.30204407 404.75246277 331.86634094 405.37121277 331.41743469 406.00871277 C321.06817572 419.39458065 303.97148307 427.89029218 287.73774719 431.13371277 C279.65053733 432.04269206 271.6065643 432.27914927 263.47549438 432.26742554 C261.71401205 432.27082387 261.71401205 432.27082387 259.91694421 432.27429086 C256.69321272 432.27948524 253.46951677 432.28028281 250.24578249 432.27909648 C246.7548341 432.27889086 243.26389377 432.28442649 239.77294922 432.28915405 C232.94689484 432.29742643 226.1208491 432.30020734 219.29479013 432.30076643 C213.74077791 432.30124321 208.18676851 432.303306 202.63275719 432.30646706 C186.85256162 432.31526425 171.07237283 432.31988789 155.29217479 432.31913658 C154.4431712 432.31909663 153.59416762 432.31905667 152.71943665 432.3190155 C151.86938489 432.31897462 151.01933313 432.31893374 150.14352223 432.31889162 C136.37559009 432.3184854 122.60768534 432.32805141 108.83976112 432.34215387 C94.67007169 432.35655222 80.50039559 432.36342216 66.33069867 432.36256009 C58.38872093 432.36222932 50.4467719 432.36492364 42.5048008 432.37573814 C35.74192526 432.3848888 28.97909145 432.3869812 22.21621237 432.38022872 C18.77306566 432.37698641 15.32999878 432.37682283 11.88685989 432.38558197 C-12.84152569 432.43693734 -35.5533546 432.31557395 -56.26225281 417.13371277 C-56.88100281 416.69800964 -57.49975281 416.26230652 -58.13725281 415.81340027 C-71.56566539 405.43124795 -79.92948529 388.3873636 -83.26225281 372.13371277 C-84.21672554 364.3928043 -84.40708112 356.69997355 -84.39596558 348.90905762 C-84.39823113 347.72671781 -84.40049669 346.54437801 -84.4028309 345.32620972 C-84.40803155 342.07548525 -84.40882175 338.82479593 -84.40763652 335.57406867 C-84.40743114 332.05585506 -84.41296435 328.53764949 -84.41769409 325.0194397 C-84.42597155 318.13810417 -84.42874762 311.25677721 -84.42930647 304.37543712 C-84.42978302 298.777056 -84.43184468 293.1786777 -84.4350071 287.58029747 C-84.44380579 271.67845305 -84.44842771 255.77661535 -84.44767662 239.87476847 C-84.44763667 239.01896277 -84.44759671 238.16315706 -84.44755554 237.28141785 C-84.44751466 236.42455705 -84.44747378 235.56769625 -84.44743166 234.68486997 C-84.44702543 220.80626784 -84.45659128 206.92769287 -84.47069391 193.04909859 C-84.48508821 178.76983446 -84.49196241 164.49058356 -84.49110013 150.211312 C-84.49076921 142.20619412 -84.49347001 134.20110473 -84.50427818 126.19599342 C-84.51342349 119.37926638 -84.51552557 112.56258073 -84.50876876 105.74585018 C-84.50552375 102.27448083 -84.50537292 98.80319069 -84.51412201 95.33182907 C-84.56450752 70.84972952 -84.28890901 48.63090279 -69.26225281 28.13371277 C-68.60869812 27.20558777 -68.60869812 27.20558777 -67.94194031 26.25871277 C-57.59268134 12.87284488 -40.49598868 4.37713336 -24.26225281 1.13371277 C-16.17504295 0.22473348 -8.13106992 -0.01172373 0 0 Z " fill="#228BE6" transform="translate(84.26225280761719,-0.1337127685546875)"/>
<path d="M0 0 C10.50026739 -0.37200254 20.99895045 -0.65562553 31.50448322 -0.82899475 C36.38403034 -0.91224541 41.25904752 -1.02494957 46.13598633 -1.20703125 C50.85024447 -1.38192158 55.56017275 -1.47673854 60.27742577 -1.51803589 C62.06927904 -1.5474263 63.86091484 -1.60483706 65.6509037 -1.69168091 C79.28632847 -2.3264286 79.28632847 -2.3264286 83.82053947 1.56074715 C87.1520734 5.38639653 89.63435285 9.61040753 91.97487068 14.09357166 C93.35401964 16.65836872 95.00246407 18.98829008 96.71484375 21.33984375 C97.24932129 22.10321045 97.78379883 22.86657715 98.33447266 23.65307617 C98.86347168 24.40693604 99.3924707 25.1607959 99.9375 25.9375 C100.52321777 26.77321533 101.10893555 27.60893066 101.71240234 28.4699707 C106.9620029 35.95572237 112.23229683 43.42680277 117.51025391 50.89257812 C120.11221644 54.57336157 122.7125689 58.25528146 125.3125 61.9375 C125.81185059 62.64471191 126.31120117 63.35192383 126.82568359 64.08056641 C130.56417488 69.377492 134.2899355 74.6831118 138 80 C140.89874417 78.70735873 142.76602526 77.43512432 144.8125 75.015625 C145.32433838 74.41741943 145.83617676 73.81921387 146.36352539 73.20288086 C146.90356201 72.55843018 147.44359863 71.91397949 148 71.25 C148.57032959 70.5804126 149.14065918 69.9108252 149.72827148 69.22094727 C150.91246558 67.83003844 152.09400398 66.43686448 153.27294922 65.04150391 C155.36547851 62.56797691 157.47575229 60.11009983 159.58789062 57.65332031 C161.07258668 55.92576338 162.55432953 54.19571809 164.03515625 52.46484375 C166.52132293 49.55898788 169.00940173 46.65477971 171.49853516 43.75146484 C172.49712183 42.58660944 173.49549528 41.42157121 174.49365234 40.25634766 C177.02712277 37.29911478 179.56357624 34.34452942 182.10546875 31.39453125 C186.69606553 26.06164678 191.25761398 20.71814055 195.6875 15.25 C196.42355469 14.38246094 197.15960938 13.51492187 197.91796875 12.62109375 C200.06845803 10.04577317 200.06845803 10.04577317 201.67578125 7.09765625 C203.93521196 3.64803292 205.34767324 2.0072881 209 0 C217.25298248 -1.23574828 225.71033617 -0.61126279 234 0 C232.38182825 3.40829937 230.52234036 5.79530758 227.9375 8.5625 C224.66981527 12.12296928 221.53520807 15.7393292 218.5 19.5 C214.88967558 23.96276213 211.11572071 28.22719533 207.25 32.46875 C204.92137947 35.0884481 202.70437053 37.7751531 200.5 40.5 C197.5918662 44.0947765 194.61458668 47.58260628 191.5 51 C188.47717579 54.31989486 185.57487839 57.69764112 182.75 61.1875 C179.14527375 65.63855328 175.44570874 69.99144631 171.6875 74.3125 C171.14222656 74.94091797 170.59695313 75.56933594 170.03515625 76.21679688 C167.21388865 79.46522823 164.38125075 82.70298721 161.53515625 85.9296875 C160.43996977 87.18217416 159.3449127 88.43477399 158.25 89.6875 C157.73655029 90.26346924 157.22310059 90.83943848 156.6940918 91.43286133 C153.34593072 95.25147541 153.34593072 95.25147541 152 100 C152.75968152 101.82107825 152.75968152 101.82107825 154.10546875 103.51171875 C154.82959961 104.51138672 154.82959961 104.51138672 155.56835938 105.53125 C156.10267578 106.2428125 156.63699219 106.954375 157.1875 107.6875 C158.30632256 109.22241359 159.42480283 110.75757674 160.54296875 112.29296875 C161.11966309 113.07591309 161.69635742 113.85885742 162.29052734 114.66552734 C164.90977383 118.24239608 167.45320829 121.87138153 170 125.5 C171.00217524 126.92087555 172.00478066 128.34144777 173.0078125 129.76171875 C173.50313477 130.46345215 173.99845703 131.16518555 174.50878906 131.88818359 C175.98172821 133.97412394 177.45558181 136.05941515 178.9296875 138.14453125 C184.90402057 146.59757697 190.85199034 155.06859593 196.78417969 163.55126953 C202.49790894 171.71846719 208.24560744 179.86142472 214 188 C220.94574133 197.82352839 227.8725417 207.65973585 234.76220703 217.52270508 C237.65489838 221.66116284 240.55740121 225.79195012 243.484375 229.90625 C244.03480469 230.68097656 244.58523438 231.45570313 245.15234375 232.25390625 C246.18901978 233.71133587 247.22795074 235.16716517 248.26953125 236.62109375 C248.73230469 237.27207031 249.19507813 237.92304688 249.671875 238.59375 C250.0750293 239.15771484 250.47818359 239.72167969 250.89355469 240.30273438 C252.09045269 242.13875267 253.03398665 244.03452926 254 246 C243.59504293 246.2787169 233.19098096 246.4915903 222.78304386 246.62174606 C217.94931264 246.68423554 213.1181445 246.76889398 208.28588867 246.90527344 C203.61721828 247.03620304 198.95100293 247.10751523 194.28063774 247.13852692 C192.50417868 247.16060739 190.72784607 247.20373333 188.95244026 247.26876068 C175.06254796 247.75700954 175.06254796 247.75700954 169.97010803 243.41894531 C167.57753358 240.50485412 165.7908684 237.31425633 164 234 C162.87187713 232.37023951 161.72619065 230.75224285 160.55078125 229.15625 C159.4692878 227.60560581 158.38989504 226.05349459 157.3125 224.5 C156.10290924 222.7642918 154.89327247 221.02861565 153.68359375 219.29296875 C153.07499512 218.41817871 152.46639648 217.54338867 151.83935547 216.64208984 C148.85857136 212.3604273 145.86698031 208.08634301 142.875 203.8125 C142.29419678 202.98258545 141.71339355 202.1526709 141.11499023 201.29760742 C135.9293053 193.89125314 130.71792152 186.50323265 125.49853516 179.12060547 C123.9184496 176.88459648 122.33989322 174.64751444 120.76171875 172.41015625 C120.22627441 171.65114014 119.69083008 170.89212402 119.13916016 170.11010742 C118.1243931 168.67155177 117.10973584 167.23291865 116.09521484 165.79418945 C115.63195801 165.13765381 115.16870117 164.48111816 114.69140625 163.8046875 C114.02455811 162.85674316 114.02455811 162.85674316 113.34423828 161.88964844 C112.42182437 160.59297505 111.48719951 159.30492772 110.54248047 158.02441406 C107 153.20405251 107 153.20405251 107 151 C103.09231147 154.80693781 99.49002488 158.79925803 95.9375 162.9375 C95.37168213 163.59355225 94.80586426 164.24960449 94.22290039 164.92553711 C92.4795918 166.94835739 90.73933085 168.97375898 89 171 C88.47921875 171.60618164 87.9584375 172.21236328 87.421875 172.83691406 C84.44014845 176.30855058 81.46329435 179.78432876 78.48828125 183.26171875 C76.98327951 185.01952918 75.47632297 186.77564446 73.96875 188.53125 C69.12649817 194.17132418 64.29624986 199.82072967 59.5 205.5 C53.70284435 212.36444932 47.85362788 219.18370162 42 226 C39.85364087 228.49954926 37.70790942 230.99963558 35.5625 233.5 C35.0785376 234.06323975 34.5945752 234.62647949 34.09594727 235.20678711 C33.63244873 235.74698486 33.1689502 236.28718262 32.69140625 236.84375 C32.22968018 237.36372559 31.7679541 237.88370117 31.29223633 238.41943359 C29.75876131 240.21578811 29.75876131 240.21578811 27.984375 243.3828125 C23.14135888 247.62996014 17.88350289 246.63497215 11.6875 246.375 C10.46998047 246.34792969 9.25246094 246.32085937 7.99804688 246.29296875 C4.99689502 246.22235341 1.99935288 246.12376972 -1 246 C2.54379702 241.13429214 6.18041134 236.56445317 10.3125 232.1875 C14.59702366 227.59465894 18.62329463 222.86073875 22.56640625 217.96875 C27.04200563 212.50894979 31.71834734 207.22073691 36.35351562 201.89648438 C38.93637383 198.92144841 41.50060432 195.93058917 44.0625 192.9375 C44.55266602 192.36483398 45.04283203 191.79216797 45.54785156 191.20214844 C46.5358886 190.04759562 47.52384448 188.89297334 48.51171875 187.73828125 C50.01672049 185.98047082 51.52367703 184.22435554 53.03125 182.46875 C58.32784311 176.29947606 63.6059505 170.11563956 68.84912109 163.90087891 C71.7590171 160.45525232 74.69161185 157.03017594 77.63574219 153.61376953 C82.89359708 147.51048863 88.03105334 141.34271427 93 135 C91.36880043 129.86324111 88.2354497 125.95837511 85.0625 121.6875 C83.87611136 120.06880139 82.69124141 118.44898872 81.5078125 116.828125 C80.91516602 116.01666016 80.32251953 115.20519531 79.71191406 114.36914062 C77.22808077 110.93173072 74.82574625 107.44172455 72.4375 103.9375 C67.20754323 96.27690562 61.86938269 88.69647609 56.50732422 81.12792969 C54.04362118 77.64985459 51.58378722 74.1690515 49.125 70.6875 C48.63523682 69.99406494 48.14547363 69.30062988 47.64086914 68.58618164 C43.14793293 62.2195521 38.6815515 55.83445719 34.21582031 49.44873047 C30.44712723 44.06176515 26.66763202 38.68263712 22.875 33.3125 C22.39281006 32.62937744 21.91062012 31.94625488 21.41381836 31.24243164 C18.86904665 27.63915089 16.3184269 24.04013429 13.76171875 20.4453125 C13.22627441 19.69080811 12.69083008 18.93630371 12.13916016 18.15893555 C11.12638491 16.73198572 10.11188187 15.30625973 9.09521484 13.88208008 C8.63195801 13.22876709 8.16870117 12.5754541 7.69140625 11.90234375 C7.09114624 11.05917603 7.09114624 11.05917603 6.47875977 10.19897461 C4.23025274 6.8553552 2.12178357 3.42500891 0 0 Z " fill="#FCFDFE" transform="translate(94,93)"/>
<path d="M0 0 C26.27186899 -2.34120028 26.27186899 -2.34120028 33.32226562 1.14990234 C36.90726772 4.29763342 38.82002029 8.38614613 40.80957031 12.65527344 C43.03594262 17.04044153 46.05761726 20.90236452 48.9375 24.875 C50.13508308 26.58474268 51.32911532 28.29697819 52.51953125 30.01171875 C55.70503529 34.58191856 58.90976123 39.13818341 62.125 43.6875 C62.85577759 44.72173096 62.85577759 44.72173096 63.60131836 45.77685547 C64.57817403 47.15909731 65.55514286 48.54125919 66.53222656 49.92333984 C69.02320986 53.44767516 71.51144903 56.97394701 74 60.5 C74.99998722 61.91667568 75.99998722 63.33334236 77 64.75 C143 158.25 143 158.25 144.50048828 160.37573242 C145.49880954 161.78999378 146.4971818 163.20421914 147.49560547 164.6184082 C150.02171322 168.19658007 152.54688502 171.77540608 155.0703125 175.35546875 C155.82973145 176.43235962 155.82973145 176.43235962 156.60449219 177.53100586 C157.60826636 178.95463098 158.61153204 180.37861477 159.61425781 181.80297852 C162.04718698 185.25420235 164.49518978 188.69277863 166.9765625 192.109375 C167.44433105 192.75559814 167.91209961 193.40182129 168.39404297 194.06762695 C169.27702476 195.28526425 170.16388187 196.50010374 171.05517578 197.71166992 C174 201.77772224 174 201.77772224 174 204 C147.90189101 206.82441842 147.90189101 206.82441842 140.46533203 202.53955078 C136.33509664 198.58205115 133.83424205 193.67828379 131.33496094 188.58740234 C129.11763798 184.28981846 126.28814997 180.44078155 123.5 176.5 C122.4131014 174.90648923 121.32846034 173.31143628 120.24609375 171.71484375 C116.57695048 166.35275844 112.76891421 161.09611107 108.94750977 155.84204102 C103.0851184 147.77014821 97.38836257 139.58457137 91.68017578 131.40332031 C89.08994234 127.69825521 86.48384623 124.00447372 83.875 120.3125 C83.38765381 119.622771 82.90030762 118.93304199 82.39819336 118.22241211 C81.42149396 116.84041899 80.44468782 115.45850131 79.46777344 114.07666016 C76.97679014 110.55232484 74.48855097 107.02605299 72 103.5 C71.00001278 102.08332432 70.00001278 100.66665764 69 99.25 C55 79.41666667 41 59.58333333 27 39.75 C26.5045166 39.04810547 26.0090332 38.34621094 25.49853516 37.62304688 C24.50326445 36.21299897 23.50814609 34.80284352 22.51318359 33.39257812 C19.94209402 29.7487265 17.368009 26.10704598 14.7890625 22.46875 C0 1.59220183 0 1.59220183 0 0 Z " fill="#238CE6" transform="translate(134,114)"/>
</svg>
